<?xml version="1.0" encoding="utf-8"?>
<!-- Generator: Adobe Illustrator 19.0.0, SVG Export Plug-In . SVG Version: 6.00 Build 0)  -->
<svg version="1.1" id="Capa_1" xmlns="http://www.w3.org/2000/svg" xmlns:xlink="http://www.w3.org/1999/xlink" x="0px" y="0px"
	 viewBox="0 0 48 48" style="enable-background:new 0 0 48 48;" xml:space="preserve">
<style type="text/css">
	.st0{fill:#FFFFFF;}
</style>
<path class="st0" d="M46.6,17.6l-8.3-8.9c-0.2-0.2-0.5-0.2-0.7,0L34,12c-0.2,0.2-0.2,0.5,0,0.7l8.3,8.9c0.2,0.2,0.5,0.2,0.7,0
	l3.5-3.3C46.7,18.1,46.7,17.8,46.6,17.6z M43.5,18.6c-0.4,0.4-1.1,0.4-1.5,0c-0.4-0.4-0.4-1.1,0-1.5c0.4-0.4,1.1-0.4,1.5,0
	C44,17.5,43.9,18.2,43.5,18.6z M32.2,14.7c-0.3-0.3-0.7-0.5-1.2-0.6l-3.7-0.5c-0.6-0.1-1.2,0.1-1.6,0.5l-0.9,0.8l-8.3,7.6
	c-0.1,0.1-0.3,0.3-0.1,0.6l0.1,0.1c0.3,0.6,1.1,1.4,2.3,1.6c1.4,0.2,3-0.4,4.6-1.8l3.1-2.8l9.8,7.6l3.1-2.9c0.8-0.8,0.8-2,0-2.8
	L32.2,14.7z M13.7,12.9l-3.8-3C9.7,9.8,9.4,9.8,9.2,10L1.4,20c-0.2,0.2-0.1,0.5,0.1,0.7l3.8,3c0.2,0.2,0.5,0.1,0.7-0.1l7.8-10
	C14,13.4,13.9,13.1,13.7,12.9z M6.2,20.4c-0.4,0.5-1.1,0.6-1.5,0.2c-0.5-0.4-0.6-1.1-0.2-1.5c0.4-0.5,1.1-0.6,1.5-0.2
	C6.5,19.2,6.6,19.9,6.2,20.4z M35.2,30.1l-8.6-6.7l-1.6,1.4c-2.2,2-4.2,2.5-5.7,2.5c-0.4,0-0.7,0-1.1-0.1c-2.1-0.4-3.5-1.7-4.1-2.8
	c-0.8-1.2-0.5-2.8,0.5-3.8l6.1-5.6c-0.7-0.6-1.6-0.8-2.4-0.8c-1.2,0-2.4,0.5-3.2,1.6l-6,7.8c-0.5,0.6-0.7,1.4-0.6,2.2l0.4,3.1
	c0.1,0.8,0.5,1.5,1.1,2l10.5,8.2c0.3,0.2,0.6,0.3,1,0.3c0.4,0,0.9-0.2,1.2-0.5l0.5-0.5c0.6-0.7,0.6-1.7-0.2-2.3l1.8,1.5
	c0.3,0.3,0.7,0.4,1,0.4c0.4,0,0.8-0.2,1.1-0.5l0.5-0.5c0.7-0.7,0.7-1.8-0.1-2.4l1.3,1.1c0.3,0.3,0.7,0.4,1,0.4
	c0.4,0,0.8-0.2,1.1-0.5l0.5-0.5c0.7-0.7,0.6-1.8-0.1-2.4l0.9,0.7c0.3,0.3,0.7,0.4,1.1,0.4c0.5,0,0.9-0.2,1.2-0.6l0.7-0.9
	C36,31.7,35.9,30.6,35.2,30.1z"/>
</svg>
