<?xml version="1.0" encoding="utf-8"?>
<!-- Generator: Adobe Illustrator 19.0.0, SVG Export Plug-In . SVG Version: 6.00 Build 0)  -->
<svg version="1.1" id="Capa_1" xmlns="http://www.w3.org/2000/svg" xmlns:xlink="http://www.w3.org/1999/xlink" x="0px" y="0px"
	 viewBox="0 0 48 48" style="enable-background:new 0 0 48 48;" xml:space="preserve">
<style type="text/css">
	.st0{fill:#FFFFFF;}
</style>
<path class="st0" d="M35,7.1l-3-3l-7.5,7.5L21,8.1l-3,3l6.5,6.5L35,7.1z M37.2,28.7c-0.4-0.6-1.2-1-2-1.1c0.4-0.7,0.4-1.8-0.1-2.5
	c-0.4-0.6-1.2-1-1.9-1c0.4-0.7,0.3-1.8-0.2-2.5c-0.4-0.6-1.4-1-2.1-1c-0.1,0-0.1,0-0.2,0l4.5-4.5c0.6-0.6,0.9-1.6,0.4-2.4
	c-0.4-0.7-1.1-1.1-1.8-1.1c-0.5,0-1,0.2-1.4,0.6L21.1,24.6c-0.8-0.8-0.8-2,0-2.8l1.3-1.3c0.3-0.3,0.3-0.7,0-1L22,19.1
	c-0.5-0.5-1.2-0.8-1.9-0.8c-0.7,0-1.4,0.3-1.9,0.8l-3.5,3.5c-0.6,0.6-0.9,1.5-0.9,2.3l0.2,3.6c0,0.7,0.4,1.4,0.9,1.9l7.8,7.8
	c0.6,0.6,1.3,0.9,2.1,0.9H28c0.8,0,1.6-0.3,2.1-0.9l6.8-6.8C37.6,30.7,37.8,29.6,37.2,28.7z M12.7,31.7c-0.2-0.2-0.5-0.2-0.7,0
	l-1.4,1.4c-0.2,0.2-0.2,0.5,0,0.7l9.9,9.9c0.2,0.2,0.5,0.2,0.7,0l1.4-1.4c0.2-0.2,0.2-0.5,0-0.7L12.7,31.7z"/>
</svg>
