<?xml version="1.0" encoding="utf-8"?>
<!-- Generator: Adobe Illustrator 19.0.0, SVG Export Plug-In . SVG Version: 6.00 Build 0)  -->
<svg version="1.1" id="Capa_1" xmlns="http://www.w3.org/2000/svg" xmlns:xlink="http://www.w3.org/1999/xlink" x="0px" y="0px"
	 viewBox="0 0 48 48" style="enable-background:new 0 0 48 48;" xml:space="preserve">
<style type="text/css">
	.st0{fill:#FFFFFF;}
</style>
<path id="XMLID_43_" class="st0" d="M39.4,26.3l-2.6-6.1v-1.1c0-8.3-7.2-15-15.7-14c-6.5,0.7-11.7,6-12.4,12.5
	c-0.5,4.7,1.3,9,4.4,11.9c1.7,1.6,2.5,4,1.9,6.3l-1.5,6c-0.2,0.9,0,1.2,0.4,1.2h13.7c0.3,0,0.5-0.2,0.5-0.4l0.9-4.4
	c0.2-1,1.1-1.7,2.1-1.7h3.6c1.1,0,1.9-0.9,1.9-1.9v-6.7h1.6C39.2,27.8,39.7,27,39.4,26.3z M23.9,21.9c-0.8,0.4-1.7,0.4-2.4-0.1
	C19.4,20.7,16,18.2,16,15c0-2.1,1.4-3.7,3.2-3.7c2.7,0,3.4,2,3.4,2s1.4-2,3.4-2c1.8,0,3.2,1.7,3.2,3.7
	C29.3,18.6,25.9,20.9,23.9,21.9z"/>
</svg>
