<?xml version="1.0" encoding="utf-8"?>
<!-- Generator: Adobe Illustrator 19.0.0, SVG Export Plug-In . SVG Version: 6.00 Build 0)  -->
<svg version="1.1" id="Capa_1" xmlns="http://www.w3.org/2000/svg" xmlns:xlink="http://www.w3.org/1999/xlink" x="0px" y="0px"
	 viewBox="0 0 48 48" style="enable-background:new 0 0 48 48;" xml:space="preserve">
<style type="text/css">
	.st0{fill:#FFFFFF;}
</style>
<g id="XMLID_40_">
	<circle id="XMLID_41_" class="st0" cx="24.1" cy="9.2" r="4.7"/>
	<circle id="XMLID_48_" class="st0" cx="12.4" cy="12.4" r="3.4"/>
	<path id="XMLID_49_" class="st0" d="M13.5,18h-2.4c-1.4,0-2.6,0.9-2.8,2.2L7.2,26c-0.1,0.4,0,0.7,0.2,1l1.8,2.6
		c0.1,0.2,0.2,0.4,0.2,0.7l0.4,5.9C10,37,10.6,38,11.3,38h1.9c0.7,0,1.4-1,1.4-1.8l0.4-5.6c0,0,0-0.2,0-0.2
		c-0.4-0.7-0.5-1.6-0.4-2.5l1.3-7c0-0.3,0.1-0.4,0.2-0.7C16.1,18.9,14.9,18,13.5,18z"/>
	<path id="XMLID_50_" class="st0" d="M29.6,20.1c-0.4-1.9-2-3.1-3.9-3.1h-3.4c-1.9,0-3.6,1.2-3.9,3.1l-1.5,8.1c-0.1,0.5,0,1,0.3,1.5
		l2.5,3.6c0.2,0.3,0.3,0.6,0.3,1l0.6,7.7c0.1,1,1,2,2,2h2.7c1,0,1.9-1,2-2l0.6-7.6c0-0.3,0.1-0.7,0.3-1l2.5-3.7
		c0.3-0.4,0.4-0.9,0.3-1.4L29.6,20.1z"/>
	<circle id="XMLID_51_" class="st0" cx="35.8" cy="12.4" r="3.4"/>
	<path id="XMLID_52_" class="st0" d="M40.8,26l-1.1-5.8c-0.3-1.4-1.4-2.2-2.8-2.2h-2.4c-1.4,0-2.6,0.9-2.8,2.2
		c0.1,0.2,0.2,0.4,0.2,0.7l1.3,7c0.2,0.8,0,1.7-0.4,2.4c0,0,0,0,0,0.1l0.4,5.9C33.4,37,34,38,34.7,38h1.9c0.7,0,1.4-1,1.4-1.8
		l0.4-5.6c0-0.2,0.1-0.6,0.2-0.8l1.8-2.7C40.8,26.8,40.9,26.4,40.8,26z"/>
</g>
</svg>
