<?xml version="1.0" encoding="utf-8"?>
<!-- Generator: Adobe Illustrator 23.0.6, SVG Export Plug-In . SVG Version: 6.00 Build 0)  -->
<svg version="1.1" id="Capa_1" xmlns="http://www.w3.org/2000/svg" xmlns:xlink="http://www.w3.org/1999/xlink" x="0px" y="0px"
	 viewBox="0 0 1452 1452" style="enable-background:new 0 0 1452 1452;" xml:space="preserve">
<style type="text/css">
	.st0{fill:#F55A25;}
	.st1{fill:#FEFDFE;}
	.st2{fill:#FEFEFE;}
	.st3{opacity:0.49;fill:#FFB17F;enable-background:new    ;}
	.st4{fill:#ADACB3;}
</style>
<title>logo-icono</title>
<path class="st0" d="M1416.7,1189.1c-0.9-74.4-32-135.3-81.2-160.6c-72.7-37.4-145.4-74.9-218.3-111.3c-9.7-4.8-12.1-11.2-12.1-24.7
	c0.4-97.3-0.1-194.6,0.5-291.9c0.1-16.5-2.4-22.1-14.8-21.7c-40.5,1.2-81.1,0.1-121.7,0.7c-9.5,0.1-12.5-3.9-12.3-17.5
	c0.6-38.7,0.4-77.3,0-116c-0.4-39.8-8.6-75.7-26-107.6c-18.8-34.4-45-50.4-72.8-64.6C693.2,190,528.6,105.2,363.9,20.9
	c-16.3-8.3-16.3-8-16.3,17.3c0,228.7,0.1,457.5,0.2,686.2c0,13.5-2.3,20.3-11.9,25.1c-71.2,35.7-142,72.6-213.2,108.5
	c-56.4,28.5-86.4,87.8-86.4,172.7c0,106.7-0.4,213.4,0.4,320c3.8,23.4,13,46.3,25.7,62.3c10,12.6,23.1,16,36,18.9
	c39.1-5.7,78.3-10.8,117.5-15.4c127.6-14.9,255.5-22.9,383.5-26.4c92-2.6,184-2.5,276.1,1.2c81.1,3.3,162.1,6.3,243,13.7
	c77.3,7.1,154.6,15.7,231.7,26.8c7-0.9,14.1-1.3,20.9-3.6c7-2.4,12.4-7.3,17.4-14.5c10-14.2,20.7-28.9,26-47.7
	c0.1-2.4,0.5-4.8,1.3-7.1c0-0.8,0-1.7-0.1-2.6c-0.2-1.7,0.2-3.4,1.1-4.8C1417.3,1297.4,1417.3,1243.3,1416.7,1189.1z"/>
<path class="st1" d="M1036.9,677.5c0.2,53.5,0.5,106.9,0.6,160.4c0.1,150.1-0.2,300.2,0.3,450.3c0,16.8-3.6,20-14.5,19
	c-68.6-6.2-137.3-10.8-206.1-11.9c-10.9-0.2-13.5-4.8-13.5-19.7c0.3-147.5,0.4-295,0.1-442.6c0-6.8,1.7-14.2-1.9-20.5
	c-14.8-4.3-29.9-1.9-44.8-1.5c-10.3,0.2-14.1-5.8-14.2-19c-0.4-32.8-0.5-65.6,0.1-98.4c0.2-11.8,3.2-18.5,13.1-18.5
	c91.4,0.4,182.8,0.2,274.3,0.3C1032.7,675.4,1035,675.3,1036.9,677.5z"/>
<g>
	<path class="st2" d="M523.1,205.3c87.3,44.6,174.5,89.2,261.8,133.8c21.8,11.2,43.5,23,65.4,33.5c19.8,9.5,32.3,27.8,36.8,56.8
		c1.9,46.3,0.3,92.7,0.9,139c0.1,7.3-1.9,10.8-7.2,10.3c-3.2-0.3-6.4,0-9.6,0H591.1c-14.8,0-14.9,0-14.9,20.8
		c0,64.4-0.3,128.8,0.2,193.2c0.1,14.5-2.8,19.2-13,18.3c-13.6-1.2-27.3-0.7-41-0.2c-7.6,0.3-10.8-4.7-11.6-14.4
		c-0.6-6.4-0.6-12.8-0.6-19.3c0-179.7,0-359.4,0-539.1c0-7.7-0.2-15.5,1-23.1C512.8,205.9,516.2,201.1,523.1,205.3z"/>
</g>
<path class="st3" d="M523.1,205.3c-7.9-1.2-8.6,5.6-8.5,14.4c0.2,37.3,0,74.6,0,112c0,151.3,0.2,302.5-0.3,453.7
	c-0.1,17.8,2.3,26.4,16.2,23.9c14.3-2.6,32.8,8.6,42-4.5c8.4-12.2,2.3-38,2.5-57.8c0.3-48.3,0.1-96.5,0.1-144.8
	c0-25.4,0-25.4,17.4-25.4c92.8,0,185.7-0.3,278.6,0.4c12.4,0.1,16.3-4.3,15.9-22.3c-0.8-41.8,0-83.6,0.2-125.4
	c4.7,16.1,1.9,32.9,2.2,49.4c0.5,27-0.7,54.2,0.4,81.1c0.7,17.8-4,21.2-15.6,21.2c-93.4-0.6-186.7,0-280.1-0.8
	c-12.9-0.1-16.9,3.9-16.7,23c0.9,63.1,0,126.2,0.6,189.3c0.1,15.6-2.5,21.7-14.3,21c-23.2-1.5-46.4-0.3-69.6-1.7
	c-11.8-0.7-14.6,5.8-14.5,21.2c0.3,148.1,0.4,296.2,0.1,444.3c0,25.7,0,25.5-18.3,26.7c-12.3,0.8-24.5,1.9-36.8,3.2
	c-6.4,0.6-9.4-3-8.9-12.2c0.2-4.5,0-9,0-13.5v-1107c0-24.9,0-24.7,16.7-16C462.7,174.2,492.9,189.7,523.1,205.3z"/>
<path class="st2" d="M178.8,933.1c53.3-27.6,106.7-55,159.9-83c10.8-5.7,8.8,4.3,8.8,12.3c0.1,57.9,0.1,115.9,0,173.8
	c0,86.9-0.3,173.8,0.2,260.7c0.1,15.9-3.3,20.2-14.4,21.6c-47.1,5.9-94.1,13.4-141.1,20.3c-15.5,2.7-18.1,0.4-18.2-21.1
	c-0.5-121-0.5-242.1-0.1-363.1C174,946.8,174.3,939,178.8,933.1z"/>
<path class="st2" d="M621.4,909.3c35-0.2,70.1-0.2,105.1-0.8c7.1-0.1,9.5,3,9.4,13.2c-0.2,119.1-0.2,238.2,0,357.2
	c0,9.9-1.7,14-9.1,13.5c-9.5-0.6-19.1,0-28.7,0.1c-18.9,3-37.9,0.5-56.8,1.4c-4.9,0.2-10-1.2-14.8,1.3l-1.2,0.1h-1.2
	c-6.7-4.1-7.2-12.8-7.2-21.2c-0.4-115-0.5-230-0.1-345.1C617.1,921.9,617.8,914.9,621.4,909.3z"/>
<path class="st2" d="M1187.7,1055.7c40.3,20.6,80.7,41.4,121.1,61.7c27.1,13.6,39.3,37.1,39.5,78.1c0.2,48.2-0.1,96.4,0.3,144.6
	c0.1,11.6-0.4,16.5-10.9,14.4c-51.7-10.3-103.5-19.1-155.3-28.4c-5.2-7-4.8-16.4-4.8-25.3c-0.1-73.3-0.3-146.7,0.2-220
	C1177.8,1071.2,1174,1055.6,1187.7,1055.7z"/>
<path class="st3" d="M178.8,933.1c-0.1,129.7,0.1,259.3-0.6,388.9c-0.1,17.3,6.3,16.5,14.1,16.7c-26.4,5.1-52.8,10.2-79.2,15.5
	c-7.1,1.4-8.7-3.8-8.5-12.2c0.2-9,0.1-18,0.1-27c0-95.8,0-191.5,0.1-287.3c0-41,12.1-64.4,39.4-77.5
	C155.8,944.8,166.5,935.9,178.8,933.1z"/>
<path class="st3" d="M621.4,909.3c-0.1,123.3-0.1,246.6-0.2,369.8c0,5.8-0.1,11.6,3.2,16.2c-22.3,1-44.5,1.6-66.8,3
	c-6.5,0.4-9.5-2.5-9.5-11.6c0-3.2,0-6.4,0-9.7c0-115.3,0.2-230.6-0.3-345.9c-0.1-18.2,3.9-23.5,16.3-22.6
	C583.1,910,602.3,909.2,621.4,909.3z"/>
<path class="st3" d="M1187.7,1055.7c-6.5,1.2-5.8,8.2-5.8,14.5c0.1,85.3,0.3,170.6,0.4,255.9c-22.2-2.6-44.3-5.6-66.5-7.7
	c-7.4-0.7-10.6-4.2-10.5-15c0.2-92.1,0.2-184.2,0-276.3c0-11.5,2.7-12.9,9.7-9.2C1139.1,1030.8,1163.5,1043.1,1187.7,1055.7z"/>
<path class="st3" d="M1036.9,677.5c-93.1-0.2-186.3-0.4-279.4-0.7c-7.6,0-10.3,3.4-10.2,14.4c0.4,34.7,0.3,69.4-0.1,104.1
	c-0.2,11.6,3.4,13.4,10.6,14c14.7,1.2,29.7-4.6,44.2,3.2c-49.1-0.2-98.2-0.6-147.3-0.3c-8.5,0-11-4.9-10.9-16.2
	c0.3-33.4,0.7-66.9-0.1-100.3c-0.4-16.9,3.2-22,15.3-21.9c121.4,0.3,242.9-0.3,364.3-0.4C1027.8,673.3,1033.3,669.7,1036.9,677.5z"
	/>
<path class="st4" d="M626.7,1295.2c23.8-6,47.7-3.5,71.6-2.6C674.5,1297.5,650.5,1295.8,626.7,1295.2z"/>
</svg>
