<svg id="Capa_1" data-name="Capa 1" xmlns="http://www.w3.org/2000/svg" xmlns:xlink="http://www.w3.org/1999/xlink" viewBox="0 0 1549.04 461"><defs><style>.cls-1{fill:#4e4e50;}.cls-2{fill:#fdfcfd;}.cls-3{fill:#fdfdfd;}.cls-4{fill:#aeadb4;}.cls-5{fill:#afaeb3;}.cls-6{fill:#ff5a1a;}.cls-7{fill:url(#Degradado_sin_nombre_50);}.cls-8{fill:url(#Degradado_sin_nombre_13);}.cls-9{fill:#504d50;}.cls-10{fill:url(#Degradado_sin_nombre_13-2);}.cls-11{fill:url(#Degradado_sin_nombre_13-3);}.cls-12{fill:#4e4e4f;}.cls-13{fill:#ff6e00;}.cls-14{fill:url(#Degradado_sin_nombre_3);}.cls-15{fill:url(#Degradado_sin_nombre_40);}.cls-16{fill:url(#Degradado_sin_nombre_13-4);}.cls-17{fill:#5b5b5f;}.cls-18{fill:#5b5a5e;}.cls-19{fill:#5c5c60;}.cls-20{fill:#5b5b5e;}.cls-21{fill:#5b5a5d;}.cls-22{fill:#5b5a5f;}.cls-23{fill:#fc7630;}.cls-24{fill:#fc762f;}.cls-25{fill:url(#Degradado_sin_nombre_13-5);}.cls-26{fill:url(#Degradado_sin_nombre_13-6);}.cls-27{font-size:72px;font-family:MyriadPro-Regular, Myriad Pro;}</style><linearGradient id="Degradado_sin_nombre_50" x1="1057.48" y1="437.38" x2="1057.48" y2="344.39" gradientTransform="matrix(1.01, 0, 0, 1, -22.46, 0.97)" gradientUnits="userSpaceOnUse"><stop offset="0" stop-color="#ff6e00"/><stop offset="0.51" stop-color="#ff6012"/><stop offset="0.89" stop-color="#ff5a1a"/></linearGradient><linearGradient id="Degradado_sin_nombre_13" x1="1277.55" y1="445.03" x2="1277.55" y2="336.05" gradientTransform="matrix(1.01, 0, 0, 1, -22.46, 0.97)" gradientUnits="userSpaceOnUse"><stop offset="0" stop-color="#878787"/><stop offset="0.07" stop-color="#777778"/><stop offset="0.19" stop-color="#656566"/><stop offset="0.33" stop-color="#585859"/><stop offset="0.52" stop-color="#505052"/><stop offset="0.89" stop-color="#4e4e50"/></linearGradient><linearGradient id="Degradado_sin_nombre_13-2" x1="775.8" y1="444.92" x2="775.8" y2="332.55" xlink:href="#Degradado_sin_nombre_13"/><linearGradient id="Degradado_sin_nombre_13-3" x1="1658.8" y1="445.25" x2="1658.8" y2="332.88" xlink:href="#Degradado_sin_nombre_13"/><linearGradient id="Degradado_sin_nombre_3" x1="1155.17" y1="445.41" x2="1155.17" y2="336.07" gradientTransform="matrix(1.01, 0, 0, 1, -22.46, 0.97)" gradientUnits="userSpaceOnUse"><stop offset="0" stop-color="#ff9b20"/><stop offset="0.28" stop-color="#ff9119"/><stop offset="0.76" stop-color="#ff7606"/><stop offset="0.89" stop-color="#ff6e00"/></linearGradient><linearGradient id="Degradado_sin_nombre_40" x1="1091.16" y1="359.06" x2="1141.8" y2="359.06" xlink:href="#Degradado_sin_nombre_3"/><linearGradient id="Degradado_sin_nombre_13-4" x1="940.06" y1="444.59" x2="940.06" y2="335.92" xlink:href="#Degradado_sin_nombre_13"/><linearGradient id="Degradado_sin_nombre_13-5" x1="1510.15" y1="444.92" x2="1510.15" y2="335.82" xlink:href="#Degradado_sin_nombre_13"/><linearGradient id="Degradado_sin_nombre_13-6" x1="1427.27" y1="444.92" x2="1427.27" y2="335.86" xlink:href="#Degradado_sin_nombre_13"/></defs><title>logo-rectangulo</title><path class="cls-1" d="M830,783.43l-17.53-6.51c-32.22-11.95-64.86-20.34-97.72-27-34-6.88-68.11-11.38-102.31-14.73-22.39-2.2-44.82-3.11-67.25-4.08-25.47-1.1-50.94-1.13-76.4-.37-35.42,1.06-70.8,3.42-106.11,7.86-33.77,4.25-67.44,9.89-100.9,18.1-26.85,6.58-53.54,14.45-79.82,25.28-1.43.59-2.83,1.63-5.11,1a196.15,196.15,0,0,1,21.63-13.14c35.9-19.51,72.81-33.14,110.34-43,3-.78,4.31-2.1,4.27-7.45-.22-31.78-.12-63.56-.11-95.35,0-25.23,8.3-42.85,23.91-51.32,19.67-10.69,39.29-21.66,59-32.25,2.67-1.44,3.31-3.46,3.31-7.46Q399,431,399.09,329c0-7.53,0-7.62,4.52-5.15,45.58,25.07,91.13,50.26,136.74,75.18,7.71,4.21,14.95,8.95,20.14,19.18,4.81,9.49,7.11,20.16,7.2,32,.1,11.48.15,23,0,34.46-.06,4,.76,5.24,3.39,5.19,11.23-.18,22.45.15,33.67-.21,3.45-.11,4.13,1.56,4.11,6.46-.16,28.91,0,57.83-.14,86.74,0,4,.65,5.9,3.34,7.34,20.18,10.83,40.3,22,60.42,33.09,13.61,7.51,22.22,25.62,22.46,47.72q.29,24.69,0,49.39c0,4.16.78,5.49,3.39,6.17a501.56,501.56,0,0,1,84.53,30A403,403,0,0,1,827,780.12c1,.64,2,1.47,3,2.21Z" transform="translate(-176.82 -322.43)"/><path class="cls-2" d="M589.85,519c0,15.88.14,31.76.15,47.65,0,44.6,0,89.2.09,133.8,0,5-1,5.95-4,5.66-19-1.84-38-3.21-57-3.55-3,0-3.74-1.42-3.73-5.84q.15-65.75,0-131.51c0-2,.47-4.22-.52-6.09-4.1-1.27-8.26-.56-12.38-.45-2.85.07-3.9-1.74-3.94-5.65-.11-9.74-.15-19.49,0-29.23.06-3.51.89-5.5,3.63-5.49,25.3.13,50.6.07,75.9.08A2,2,0,0,1,589.85,519Z" transform="translate(-176.82 -322.43)"/><path class="cls-3" d="M447.67,378.68l72.45,39.75c6,3.31,12,6.81,18.11,10,5.48,2.83,8.93,8.26,10.17,16.86.53,13.76.09,27.54.25,41.3,0,2.16-.52,3.19-2,3.07-.88-.08-1.76,0-2.65,0H466.49c-4.1,0-4.11,0-4.11,6.18,0,19.13-.09,38.28.06,57.41,0,4.32-.76,5.71-3.61,5.43a81,81,0,0,0-11.34,0c-2.09.09-3-1.39-3.22-4.28-.16-1.91-.16-3.82-.16-5.73q0-80.1,0-160.19a43.68,43.68,0,0,1,.29-6.87C444.82,378.85,445.76,377.44,447.67,378.68Z" transform="translate(-176.82 -322.43)"/><path class="cls-4" d="M447.67,378.68c-2.18-.36-2.37,1.67-2.36,4.26.05,11.09,0,22.19,0,33.28,0,44.94.06,89.88-.07,134.83,0,5.27.63,7.84,4.47,7.09s9.09,2.56,11.62-1.35c2.33-3.61.65-11.29.68-17.17.09-14.34,0-28.68,0-43,0-7.55,0-7.55,4.82-7.55,25.69,0,51.38-.09,77.08.12,3.43,0,4.51-1.29,4.41-6.63-.23-12.42,0-24.85,0-37.28,1.3,4.78.53,9.78.62,14.67.14,8-.18,16.09.12,24.1.2,5.3-1.11,6.31-4.32,6.29-25.83-.18-51.67,0-77.5-.23-3.59,0-4.69,1.15-4.62,6.83.26,18.75,0,37.5.16,56.25,0,4.63-.7,6.46-4,6.24-6.41-.44-12.85-.07-19.26-.5-3.26-.22-4,1.71-4,6.31q.12,66,0,132c0,7.62,0,7.57-5.07,7.92-3.4.23-6.79.57-10.17.94-1.77.19-2.59-.88-2.46-3.62.06-1.34,0-2.68,0-4V369.53c0-7.39,0-7.34,4.63-4.75C431,369.44,439.31,374.05,447.67,378.68Z" transform="translate(-176.82 -322.43)"/><path class="cls-3" d="M352.39,594.94c14.75-8.2,29.52-16.35,44.24-24.67,3-1.69,2.44,1.27,2.45,3.66q0,25.82,0,51.64c0,25.82-.08,51.64.07,77.46,0,4.73-.91,6-4,6.43-13,1.74-26,4-39.06,6-4.28.79-5,.14-5-6.27q-.18-53.94,0-107.9C351.07,599,351.16,596.69,352.39,594.94Z" transform="translate(-176.82 -322.43)"/><path class="cls-3" d="M474.88,587.87c9.7-.06,19.4-.06,29.09-.23,2,0,2.62.9,2.61,3.92q-.07,53.09,0,106.16c0,2.93-.48,4.16-2.51,4-2.64-.18-5.29,0-7.94,0-5.23.89-10.48.14-15.71.41-1.37.07-2.76-.35-4.09.38l-.32,0-.32,0c-1.85-1.22-2-3.8-2-6.28q-.19-51.27,0-102.54A11.16,11.16,0,0,1,474.88,587.87Z" transform="translate(-176.82 -322.43)"/><path class="cls-3" d="M631.58,631.36c11.17,6.12,22.32,12.29,33.5,18.33,7.5,4,10.88,11,10.93,23.2,0,14.32,0,28.65.07,43,0,3.46-.12,4.91-3,4.29-14.3-3.08-28.65-5.67-43-8.43-1.45-2.09-1.32-4.86-1.33-7.51,0-21.8-.09-43.59.07-65.39C628.85,636,627.78,631.35,631.58,631.36Z" transform="translate(-176.82 -322.43)"/><path class="cls-4" d="M352.39,594.94c0,38.53,0,77-.16,115.58,0,5.15,1.72,4.91,3.89,5-7.3,1.53-14.61,3-21.91,4.6-2,.43-2.4-1.12-2.34-3.63.05-2.67,0-5.35,0-8q0-42.69,0-85.37c0-12.18,3.34-19.14,10.89-23C346,598.41,349,595.79,352.39,594.94Z" transform="translate(-176.82 -322.43)"/><path class="cls-4" d="M474.88,587.87l-.06,109.89c0,1.74,0,3.45.87,4.8-6.16.28-12.33.48-18.49.91-1.79.12-2.62-.74-2.61-3.45,0-.95,0-1.91,0-2.87,0-34.25.07-68.51-.09-102.77,0-5.4,1.07-7,4.52-6.71C464.29,588.09,469.59,587.84,474.88,587.87Z" transform="translate(-176.82 -322.43)"/><path class="cls-4" d="M631.58,631.36c-1.79.36-1.61,2.43-1.61,4.32l.12,76c-6.13-.78-12.26-1.67-18.41-2.28-2-.2-2.92-1.25-2.91-4.47q.06-41.06,0-82.11c0-3.42.75-3.84,2.7-2.73C618.14,624,624.87,627.63,631.58,631.36Z" transform="translate(-176.82 -322.43)"/><path class="cls-5" d="M589.85,519c-25.78,0-51.56-.07-77.33-.2-2.11,0-2.86,1-2.83,4.28q.15,15.46,0,30.93c-.05,3.45.95,4,2.92,4.16,4.08.37,8.23-1.36,12.23,1-13.59-.05-27.18-.16-40.76-.1-2.37,0-3-1.46-3-4.81.08-9.93.19-19.88,0-29.81-.12-5,.87-6.52,4.23-6.51,33.61.08,67.22-.1,100.83-.13C587.33,517.75,588.87,516.66,589.85,519Z" transform="translate(-176.82 -322.43)"/><path class="cls-4" d="M476.33,702.55c6.57-1.8,13.19-1,19.8-.79C489.55,703.23,482.94,702.71,476.33,702.55Z" transform="translate(-176.82 -322.43)"/><path class="cls-6" d="M1045.66,445.6q9.19,30.33,18.43,60.63c.45,1.48.52,4,2.09,3.93s1.43-2.54,1.87-4.06c3.92-13.38,8.07-26.65,11.67-40.17,1.81-6.81,4.1-13.26,4.46-20.36Z" transform="translate(-176.82 -322.43)"/><path class="cls-7" d="M1082.48,432.67c-9.79-30.28-18.09-61.35-26.89-92.14-.94-3.27-2.39-4.4-5-4.32-5.63.16-11.28.05-16.92.06v0c-4.9,0-9.8,0-14.7,0-6.34,0-6.43.31-4.13,7.87q13.23,43.42,26.37,86.9,2.22,7.29,4.43,14.58l38.52,0A35.34,35.34,0,0,0,1082.48,432.67Z" transform="translate(-176.82 -322.43)"/><path class="cls-8" d="M1325.52,429.09c.13-4.79-1.16-5.64-4.52-5.61-23.86.19-47.73.15-71.59.11-1.68,0-3.61,1-5-1.34,0-12.05.32-24.12.06-36.16-.12-5.25,1-6.72,5.12-6.68,27.32.23,54.65.08,82,.06,2.24,0,4.43.53,4.35-4.13-.21-11.68-.17-23.36,0-35,0-3.77-1.3-4.35-3.81-4.34q-60.6.15-121.2.1c-2.38,0-3.44.66-3.42,4.09.18,27.75.25,55.51.35,83.27q0,10.81,0,21.62L1325.4,445C1325.38,439.66,1325.38,434.37,1325.52,429.09Z" transform="translate(-176.82 -322.43)"/><path class="cls-9" d="M1331.21,513c-27.45.3-54.91.12-82.36.32-3.31,0-4.32-1-4.24-5.4.23-11.85.17-23.72,0-35.58-.06-3.86.62-5.47,3.9-5.19,4.58.37,9.19.1,13.79.08l62.31-.33c1.76-1.27.83-3.41.84-5.09,0-5.61,0-11.21,0-16.81l-117.53.09v3.66q-.07,52.21-.2,104.42c0,3.32,1.28,3.61,3.33,3.6q60.76-.11,121.54-.06c2.75,0,3.57-1.23,3.53-4.68-.14-10.9-.26-21.81,0-32.71C1336.21,514.32,1335.25,512.91,1331.21,513Z" transform="translate(-176.82 -322.43)"/><path class="cls-10" d="M782.73,427.34c-11.25-3.45-22.43-7.23-33-13.34-7.21-4.16-10.33-10.69-9.76-19.78.46-7.5,4.85-13.72,11.61-16.18,6.42-2.34,13-2,19.43-.59,11.81,2.53,22.1,9.78,32,18,2.19,1.82,3.65,2.48,5.38-.93q7.68-15.11,15.8-29.83c1.5-2.73,1.31-4-.74-5.9a103.41,103.41,0,0,0-12.76-10.43c-23.91-15.49-48.84-20.73-74.53-9.28-29.41,13.11-42.86,58-28.15,91.59a39.76,39.76,0,0,0,9.12,14.64l97.33-.07C805.08,436,794.15,431,782.73,427.34Z" transform="translate(-176.82 -322.43)"/><path class="cls-1" d="M817.78,448.81h0c-1.09-1.27-2.21-2.45-3.35-3.57l-97.33.07a63.54,63.54,0,0,0,5.74,5.28,61.8,61.8,0,0,0,17.75,10.27c11.07,4.28,22.22,8.17,33.29,12.43a69.56,69.56,0,0,1,10.36,5.18c7.23,4.32,10.45,10.76,9.85,19.08-.63,8.86-5.52,15.49-13.16,17.83-6.73,2.06-13.54,1.94-20.35,1-15-2.19-27.45-11.58-39.11-23.05-2.43-2.4-3.66-2.33-5.59.81-5.61,9.13-11.38,18.11-17.35,26.85-2.31,3.37-1.75,4.92.71,7.57,16.32,17.58,35.22,27.29,56.13,30.66,17.09,2.75,33.7.69,49.48-9.18C837.48,529.58,838.1,468.76,817.78,448.81Z" transform="translate(-176.82 -322.43)"/><path class="cls-11" d="M1682.83,428.85c-2.54-.81-5.09-1.51-7.6-2.45-11.17-4.16-22.57-7.6-33-14.45-6.4-4.21-8.66-10.53-7.79-19.37.7-7.16,5.52-13.5,11.74-15.4a37.28,37.28,0,0,1,17.68-.7c12.34,2.19,23.05,9.58,33.29,18.18,2.79,2.34,4.17,1.85,5.93-1.62,4.79-9.42,9.69-18.76,14.87-27.82,2.2-3.83,1.44-5.64-1.21-8.12-19.13-17.85-40.62-25.55-64-24.46a55.26,55.26,0,0,0-33.68,12.92c-21.2,17.62-29.17,58-16.57,84.56a37.93,37.93,0,0,0,9.22,14.82l97.47-.07C1701.49,436.8,1692.35,432.35,1682.83,428.85Z" transform="translate(-176.82 -322.43)"/><path class="cls-9" d="M1725.45,482.28c-1.17-13.36-5-25.08-13.22-33.95-1-1.23-2-2.37-3-3.46l-97.47.07a50.2,50.2,0,0,0,5.19,4.6c9.57,8.1,20.45,11.95,31.31,15.79,10.43,3.68,21,6.58,30.86,12.7,6.12,3.83,9.88,9.56,9.22,19-.63,9-4.93,14-11.06,16.85a29.67,29.67,0,0,1-10.48,2.35c-19.51,1.58-35.8-8.54-50.69-23.44-2.6-2.6-3.94-2.56-6,.78-5.62,9.13-11.38,18.13-17.37,26.86-2.25,3.29-1.5,5,.7,7.25,27.53,28.06,58.48,38.25,92.74,28C1713.3,547.47,1728.58,518.05,1725.45,482.28Z" transform="translate(-176.82 -322.43)"/><path class="cls-12" d="M1550.37,363.55c0-7.66.07-15.32-.06-23,0-3.24.47-4.86,3.41-4.8,9,.21,18.12.15,27.18,0,2.57,0,3.51.84,2.77,4.29q-5.12,23.78-10,47.61c-.57,2.8-1.65,3.57-3.73,3.51-5.35-.15-10.7-.24-16,0-2.85.14-3.57-1.33-3.51-4.68C1550.47,378.87,1550.38,371.21,1550.37,363.55Z" transform="translate(-176.82 -322.43)"/><path class="cls-13" d="M1081.34,552.85c-1.11,3.86-.92,5.52,2.74,5.43,9.35-.24,18.71-.2,28.07-.07,2.44,0,3.51-1,4.45-4,9.49-31.06,19.18-62,28.8-93q2.43-7.85,4.87-15.69l-38,0Q1096.84,499.19,1081.34,552.85Z" transform="translate(-176.82 -322.43)"/><path class="cls-14" d="M1178.45,336.1l-35.18,0-13.1,45.95a10.38,10.38,0,0,1-.51,3c-4.25,14.45-8.32,29-12.49,43.46q-2.45,8.49-4.88,17l38,0q15.95-51.39,31.86-102.79C1184.13,336.19,1184,336.09,1178.45,336.1Z" transform="translate(-176.82 -322.43)"/><path class="cls-15" d="M1080.87,336.22c-8,0-8.32.71-4.47,9.94a1.71,1.71,0,0,0,.32.39,102.73,102.73,0,0,0,5.49,18.4h0c.62,2.52,1.33,5,1.84,7.56,1,5.36,3.26,7.51,7.9,7.3,11.57-.51,23.16-.07,34.74-.2,2.36,0,3.45.66,3.48,2.48l13.1-45.95Q1112.07,336.2,1080.87,336.22Z" transform="translate(-176.82 -322.43)"/><path class="cls-16" d="M983.35,427.07h0l-.24-2.29c-1.31-1.92-3.05-.92-4.57-.93q-37.74-.19-75.49-.23,0-21.72,0-43.44c1.78-.08,3.55-.23,5.33-.24,27.18,0,54.36-.12,81.54,0,3.24,0,4.42-1,4.32-5.4-.25-11.1-.21-22.21,0-33.31.07-4.08-1-5.15-4.08-5.14q-60.37.21-120.74.09c-2.87,0-3.84,1-3.83,4.86q.09,51.92.14,103.82l117.78-.09C983.69,438.88,983.74,433,983.35,427.07Z" transform="translate(-176.82 -322.43)"/><path class="cls-1" d="M989.13,513.11c-28.66.27-57.33.08-86,0,0-13.36.06-26.73-.18-40.08-.08-4.4.77-5.75,4.36-5.72,23.54.2,47.09.08,70.64,0,1.76,0,3.51-.31,5.27-.48a61.55,61.55,0,0,0,.09-18.08h0c.06-1.35.11-2.7.16-4l-117.78.09q.06,53.49,0,107c0,3.84.68,5.33,3.94,5.32q60.38-.25,120.75-.09c3.24,0,4-1.49,3.92-5.32-.17-10.53-.29-21.08,0-31.59C994.55,514.81,993.62,513.07,989.13,513.11Z" transform="translate(-176.82 -322.43)"/><path class="cls-17" d="M1080.94,627.36c0,10.65-.19,21.31.09,31.95.1,4.15-1.39,4.59-4.46,4.69-3.36.12-4.31-1-4.26-4.84.21-14.87,0-29.75.17-44.62,0-1.95-1.43-5.26,1.4-5.69,2.68-.41,5.79-1.43,8.14,2.17,6.1,9.34,12.5,18.44,18.79,27.61a24.46,24.46,0,0,0,5.61,6.25V614.61c0-5.74,2.16-7.53,7-6,1.5.48,1.58,1.62,1.58,3q0,24.74,0,49.47c0,1.32,0,2.85-1.63,2.75-2.69-.18-5.51,1.09-7.74-2.35-5.64-8.71-11.59-17.17-17.44-25.7-2.06-3-4.18-6-6.28-8.93Z" transform="translate(-176.82 -322.43)"/><path class="cls-18" d="M904.24,626c0,11.32-.07,22.07,0,32.81,0,3.27,0,5.4-3.9,5.21-3.33-.15-4.7-.75-4.63-5,.23-14.86,0-29.72.14-44.57,0-1.94-1.34-5.18,1.59-5.58,2.75-.37,5.85-1.42,8.19,2.1,7,10.56,14.23,20.95,21.38,31.39.6.88,1.26,1.7,1.89,2.55,1.6-.83.92-2.31.92-3.44,0-9.69.19-19.38,0-29.06-.11-4.62,2.46-3.62,4.78-3.82,2.52-.22,3.83.28,3.79,3.8-.18,15.34,0,30.68-.16,46,0,1.79,1.41,4.85-1.22,5.27s-5.42,1.23-7.69-2.23c-6.79-10.34-13.91-20.41-20.93-30.56C907.3,629.31,906.45,627.43,904.24,626Z" transform="translate(-176.82 -322.43)"/><path class="cls-18" d="M990.59,633.26c10.72,0,10.72,0,10.73,11.92a18.13,18.13,0,0,0,0,3.38c1.43,7.16-2.16,10.62-7.27,13.14-6.45,3.17-13.13,4.25-20,2.38-12.28-3.35-20-16.27-18.6-30.59C957,619,967.25,608.36,979.92,608c6.14-.17,11.88,1.09,17,5,1.27,1,3.13,2.18,1.21,4-1.74,1.68-2.12,6.53-5.87,4.12-2.86-1.84-5.62-3.79-9-4.19-8-1-13.86,2.87-17.08,11.17-3.06,7.89-1.37,17.69,4,23.17,5,5.14,13.81,6,20,2.26,4-2.44,2.39-6.55,2.31-9.92-.08-3.63-3-1.58-4.74-2a7,7,0,0,0-3,0c-3.88.75-5-1.2-4.61-5.36.19-2.21.64-3.22,2.71-3.11C985.47,633.36,988,633.26,990.59,633.26Z" transform="translate(-176.82 -322.43)"/><path class="cls-19" d="M1019,635.83c0-7.59.12-15.18-.06-22.77-.08-3.27.67-4.57,3.77-4.51q14.52.27,29,0c3-.06,3.61,1.35,3.47,4.33-.13,2.67.28,5.08-3.38,4.91-6.68-.29-13.38.08-20.06-.15-3.17-.11-4.54.64-4.45,4.72.21,9.42,0,9.43,8.41,9.43,4.55,0,9.11.12,13.66,0,3.83-.13,2.39,3,2.61,5.07.24,2.25.14,4-2.75,3.87-6-.25-12,.06-17.93-.14-2.85-.09-4,.73-4,4.27,0,10.24-.13,10.24,8.89,10.25,5.41,0,10.83.25,16.22-.08,3.65-.23,3,2.34,3,4.67s.47,4.39-2.83,4.32c-10.24-.23-20.49-.18-30.74,0-2.79,0-2.91-1.56-2.89-3.89C1019,652,1019,643.91,1019,635.83Z" transform="translate(-176.82 -322.43)"/><path class="cls-18" d="M1163,636c0-7.92.08-15.85,0-23.77,0-2.73.73-3.66,3.17-3.63,10,.11,20,.21,29.92-.08,3.65-.11,3,2.33,3,4.67s.51,4.77-3.07,4.6c-7-.33-14,.05-20.94-.18-2.89-.1-3.54,1.08-3.54,4.14,0,10-.12,10,8.6,10,4.28,0,8.56.18,12.82,0,3.53-.2,2.92,2.41,3,4.79.09,2.54-.08,4.28-3.11,4.15-6-.26-12,.06-17.95-.14-2.66-.09-3.32,1-3.36,3.87-.15,10.67-.24,10.67,9.3,10.67,5.13,0,10.27.21,15.39-.08,3.43-.19,3.13,2.14,3.14,4.64s.24,4.38-2.93,4.32c-10.12-.19-20.23-.14-30.35,0-2.48,0-3.13-1-3.08-3.67.14-8.09,0-16.17,0-24.26Z" transform="translate(-176.82 -322.43)"/><path class="cls-20" d="M1355.83,664.56a26.17,26.17,0,0,1-17.53-6.36c-1.54-1.31-3.07-2.76-.74-4.87,1.66-1.52,2.07-6,5.74-2.68,4.64,4.16,10,6.07,16,4.74,2.86-.63,5.14-2.15,5.47-5.79s-1.65-5.73-4.43-6.76c-3.92-1.44-7.93-2.56-11.86-3.94-8.14-2.87-11.62-8.49-10.68-17.12a15.09,15.09,0,0,1,14.39-13.71c6-.37,11.64.68,16.7,4.51,1.41,1.06,3.89,2,1.55,4.58-1.56,1.72-1.47,6.81-5.69,3.58-3.59-2.75-7.61-4.31-12.09-3.83-3.34.36-5.81,2.11-6.33,6-.5,3.66,1.72,5.67,4.46,6.71,4.18,1.59,8.51,2.67,12.61,4.43,7.83,3.36,10.7,8.33,9.91,16.33a15.39,15.39,0,0,1-13.63,14.21A28.93,28.93,0,0,1,1355.83,664.56Z" transform="translate(-176.82 -322.43)"/><path class="cls-20" d="M1433.9,608.13a21.25,21.25,0,0,1,14,4.44c1.53,1.1,3.78,2.2,1.67,4.68-1.5,1.77-1.79,6.56-5.85,3.41-3.46-2.68-7.38-4.21-11.69-3.74-3,.33-5.69,1.33-6.4,5.17-.77,4.13,1.35,6.44,4.47,7.63,4.43,1.69,9,2.91,13.4,4.74,6.55,2.74,9.08,7.21,8.83,14.71-.23,7.26-3.7,12.38-10.08,14.38-9,2.8-17.15.71-24.69-5.27-1.71-1.35-3.13-2.88-1-4.86,1.58-1.45,1.92-6.22,5.7-2.8,4.23,3.83,9.16,5.86,14.72,5.09,3.29-.47,6.19-1.69,6.72-6.06s-2.17-6-5.13-7.13c-3.64-1.37-7.38-2.39-11-3.68-8.48-3-11.68-8.3-10.65-17.51a14.86,14.86,0,0,1,13.85-13.19C1431.87,608,1433,608.13,1433.9,608.13Z" transform="translate(-176.82 -322.43)"/><path class="cls-21" d="M1551.05,608.08c5.21-.39,10.38,1.62,15,5.38,1.46,1.18,4,2.51,1.36,5.08-1.77,1.7-2.21,6.48-6.4,2.89-7.72-6.62-16.11-6.1-22,.62-6.12,7-6.58,20.07-1,27.5,5.91,7.79,15.11,8.6,23,2.14,1-.83,1.8-3.23,3.44-1.87a17,17,0,0,1,4.33,5.22c.74,1.46-1.16,2.33-2,3.2a24.31,24.31,0,0,1-29.21,3.31c-9-5.61-13.88-17-12.43-29C1526.89,617.72,1537,608,1551.05,608.08Z" transform="translate(-176.82 -322.43)"/><path class="cls-22" d="M876.06,636.35c0,8.08-.15,16.16.07,24.23.11,3.64-1.7,3.52-3.76,3.26s-4.82,1.52-4.79-3.12q.15-24.47,0-49c0-4.6,2.93-2.79,4.86-3.1,2.24-.36,3.75,0,3.67,3.45C875.93,620.19,876.06,628.27,876.06,636.35Z" transform="translate(-176.82 -322.43)"/><path class="cls-18" d="M1134.73,636c0-7.9.15-15.81-.07-23.71-.11-3.71,1.6-3.88,4-3.68,2.12.18,4.64-.9,4.6,3.5q-.23,24.2,0,48.4c0,4.51-2.62,3.12-4.65,3.35-2.35.26-4,0-3.9-3.66C1134.91,652.16,1134.74,644.08,1134.73,636Z" transform="translate(-176.82 -322.43)"/><path class="cls-23" d="M783.89,636.49h52.52c.85,0,1.71,0,2.56.06s1.68.54,1.77,2c.1,1.64-.55,2.49-1.74,2.6-.85.08-1.7.11-2.55.11-34.45,0-68.89,0-103.33-.14-1.76,0-5.15,2-5.15-2.26s3.38-2.18,5.11-2.2C750,636.41,767,636.49,783.89,636.49Z" transform="translate(-176.82 -322.43)"/><path class="cls-24" d="M1656.12,636.52h51.24c.86,0,1.71,0,2.57,0,1.27,0,2.22.28,2.14,2.49-.08,1.88-.92,2.12-2,2.13s-2.27,0-3.41,0l-102.92,0c-.85,0-1.7,0-2.56,0-1.08,0-2-.41-2-2.22s.68-2.38,1.83-2.43c.86,0,1.71,0,2.57,0Z" transform="translate(-176.82 -322.43)"/><path class="cls-18" d="M1246.64,646.49c-1.55-2.33-1.27-3.18,1-4.58,7-4.36,9.57-10.71,8.15-19.34-1.2-7.3-5.91-12.26-13.36-13.43-7.91-1.25-15.91-.24-23.86-.48-2-.06-2.27,1.26-2.27,3.12,0,16.31.06,32.62,0,48.93,0,2.67.92,3.17,3,3.23,5.57.14,5.57.25,5.55-6.15,0-1.29,0-2.58,0-3.88,0-9.36,0-9.28,8.23-8.9a4.28,4.28,0,0,1,3.85,2.39c1.92,3.2,4.37,6.07,5.88,9.49,3,6.77,7.62,8.41,14.36,6.35C1253.52,657.43,1250.2,651.86,1246.64,646.49Zm-5.77-11c-4.61,1.15-9.32.5-14,.59-1.4,0-2.05-.82-2-2.39,0-2.09,0-4.18,0-6.27,0-9.72,0-9.72,8.35-9.51a54.9,54.9,0,0,1,6.79.05c4.37.57,6.88,3.56,7.11,8C1247.33,630.75,1245.08,634.44,1240.87,635.49Z" transform="translate(-176.82 -322.43)"/><path class="cls-18" d="M1297.05,608.06c-14.63-.15-25.59,11.87-25.78,28.27-.18,16,10.72,28.47,25,28.59,14.52.12,25.66-12.16,25.75-28.4S1311.58,608.21,1297.05,608.06Zm-.46,47.87c-9.12-.1-16.43-9-16.2-19.74.24-11.17,7.34-19.44,16.57-19.29,9,.15,15.94,8.93,15.85,20C1312.72,647.85,1305.73,656,1296.59,655.93Z" transform="translate(-176.82 -322.43)"/><path class="cls-20" d="M1514.2,662.44c-6.59-17.33-13.24-34.62-19.77-52-1.13-3-3.22-2-5.06-2.1s-3.84-.54-4.95,2.39c-6.32,16.75-12.81,33.42-19.23,50.12-.32.84-.93,1.76-.19,2.66,1.27,1.55,8.2-.17,8.91-2.21,4.73-13.54,1-10.36,14.41-10.49h3c11.63.13,7.89-2,13.12,9.67.72,1.6.94,3.5,3,3.36,2.24-.16,4.52.43,6.71-.4A2.89,2.89,0,0,0,1514.2,662.44Zm-18.94-20.35c-3.82,0-7.64,0-11.47,0-2.07,0-2.43-1-1.65-3,2.25-5.86,4.45-11.74,7.13-18.86,2.78,7.24,5.16,13.39,7.51,19.56C1497.44,641.54,1496.78,642.1,1495.26,642.09Z" transform="translate(-176.82 -322.43)"/><path class="cls-1" d="M1373.72,550.52c0,5.19,1.14,6.45,5,6.3,9.49-.37,19-.09,28.49-.21,1.31,0,3,1.14,4-1.21.09-16.77.24-33.53.24-50.3,0-18.86-.17-37.73-.27-56.59.06-1.25.11-2.49.16-3.74l-37.55,0Q1373.79,497.66,1373.72,550.52Z" transform="translate(-176.82 -322.43)"/><path class="cls-1" d="M1526.12,444.68l-37.53,0v18.71c0,2.17.74,4.61-.79,6.53h0l-12.59-21.46-2-3.77-45.24,0c1.24,1.95,2.48,3.91,3.69,5.89,8.75,14.89,17.45,29.83,26.26,44.67q17.51,29.52,35.15,58.91h0c.5,3,2.39,2.34,3.93,2.35,8.46,0,16.92-.17,25.37.09,3.27.1,3.93-1.5,3.93-5.33Q1526.15,498,1526.12,444.68Z" transform="translate(-176.82 -322.43)"/><path class="cls-25" d="M1526.11,340.71c0-4.18-1.14-5.12-4.13-5.06-9.65.2-19.3.31-28.94,0-3.8-.14-4.61,1.47-4.59,6.13q.22,51.48.14,103l37.53,0Q1526.07,392.7,1526.11,340.71Z" transform="translate(-176.82 -322.43)"/><path class="cls-26" d="M1463.57,429.18c-.84-1.31-1.73-2.57-2.5-3.95-16.65-30-34.37-59-51.84-88.17-.9-1.91-2.38-1.23-3.63-1.24-9.35,0-18.7.17-28-.07-3.23-.09-4,1.4-4,5.29.16,13.58.08,27.17.09,40.75l.06,63,37.55,0a147.41,147.41,0,0,0-.17-15.73c.12-3.34.25-6.67.4-10.73,3.72,3.62,5.18,8.7,8.19,12a124.82,124.82,0,0,0,8.21,14.47l45.24,0A118.28,118.28,0,0,0,1463.57,429.18Z" transform="translate(-176.82 -322.43)"/><text class="cls-27" transform="translate(969.33 439.28)">2022</text><rect class="cls-23" x="912.7" y="415.65" width="43.38" height="5"/><rect class="cls-23" x="1130.32" y="415.65" width="43.38" height="5"/></svg>