<svg id="Capa_1" data-name="Capa 1" xmlns="http://www.w3.org/2000/svg" viewBox="0 0 705.89 533"><defs><style>.cls-1{fill:#fff;}</style></defs><title>Ubiquiti Networks</title><path class="cls-1" d="M769,94.52c.06,13.66.17,27.32.18,41,0,28-.74,56,.27,84,.69,18.78-3.24,36.23-9.62,53.48-8.59,23.23-21.67,43-43.33,56.14-9.91,6-20.67,9.81-31.9,12.43-3,.69-4.27.37-3.49-3.2,1.87-8.51,1.95-17.18,1.95-25.85q0-79,0-157.95a107.89,107.89,0,0,1,1.2-17.43c2.73-16.71,12.46-27.87,27.81-34.44,11-4.71,22.61-6.62,34.36-8,1.19-.14,2.75.63,3.49-1.07h4C758.86,95,764,93.25,769,94.52Z" transform="translate(-287.89 -93.59)"/><path class="cls-1" d="M941.89,626.59c-3.88-1.87-8-3.5-9.07-8.36-.25-1.19-1.93-3.12.59-3.6,1.7-.33,3.74-1.08,5.07,1.56,2.49,4.92,6.08,6.47,10.91,5.19,2.34-.62,4.3-1.77,4.55-4.6s-1.68-4.18-4-4.9c-3.33-1-6.75-1.74-10.06-2.8-3.81-1.22-6.2-3.7-6.32-8s1.92-7.28,5.74-9.07c7-3.26,16.1-.81,18.82,5.07.65,1.42,2,3.51-.1,4.21-1.49.51-4.08,1.67-5.34-1.56-1.74-4.46-5.65-4.65-9.64-3.71a3.93,3.93,0,0,0-3.36,3.81,3.88,3.88,0,0,0,2.91,4.14c2.83.94,5.69,1.82,8.59,2.49,4.79,1.1,8.35,3.32,8.8,8.7.43,5.2-1.8,8.13-7.87,10.59a6.73,6.73,0,0,0-1.21.81Z" transform="translate(-287.89 -93.59)"/><path class="cls-1" d="M511.89,93.59c-.89,4.43-.35,8.91-.36,13.37,0,2.6-.51,3.77-3.53,3.87-13.91.48-13.91.58-14-13.27,0-1.33-.09-2.65-.14-4Z" transform="translate(-287.89 -93.59)"/><path class="cls-1" d="M287.89,437.59l1.06.13c1.78,1.91,1.54,4.32,1.55,6.62q.06,33.72,0,67.42c0,2.44.39,5.07-1.76,7l-.45,0-.39-.22Z" transform="translate(-287.89 -93.59)"/><path class="cls-1" d="M382.89,626.59l0-1.05c1.62-1.47,3.66-1.63,5.64-1.49,6.39.47,12.95-1.43,19.18,1.33l.15,1.21Z" transform="translate(-287.89 -93.59)"/><path class="cls-1" d="M769,94.52c-3.75,0-7.5.17-11.24.12-1.33,0-3,.81-3.87-1h15a3.46,3.46,0,0,1,.25.6C769.16,94.28,769.05,94.41,769,94.52Z" transform="translate(-287.89 -93.59)"/><path class="cls-1" d="M630.17,403.09c-27.86-.31-54.32-5.31-78.38-19.36-34.78-20.32-53.55-51-56.95-90.91-2-24.1-.57-48.3-.75-72.46-.19-24.82,0-49.66-.13-74.49,0-3.92.61-5.49,5-5.39,12.46.28,12.46.06,12.46,12.48,0,25.5.1,51-.1,76.49,0,4.25,1.25,5.25,5.33,5.17,11.95-.24,12.21-.06,11.86-11.87-.14-4.61,1.33-5.47,5.57-5.38,11.75.27,11.76.08,11.76,12,0,7.34.17,14.68-.08,22-.12,3.41,1.11,4.1,4.26,4.11,12.9,0,12.9.15,12.9-12.92,0-15.33.09-30.66-.08-46,0-3.5.53-5,4.54-4.9,12.74.13,12.74-.06,12.74,12.68,0,35.33.35,70.66-.09,106-.48,38.58,16.27,67.76,47,89.81C628.13,400.91,629.56,401.23,630.17,403.09Z" transform="translate(-287.89 -93.59)"/><path class="cls-1" d="M775.88,480.86c-.6,11.65,1.06,26-.9,40.27-2.81,20.44-17.12,33.83-37.69,35.57-8.89.75-17.66.58-26.18-2.2-16.55-5.41-24.88-17.49-27.25-34.22-1.58-11.1-.68-22.29-.78-33.44-.14-15,.12-30-.14-45-.07-4.18,1.54-4.74,5-4.18,8.27,1.36,12.27,5.81,12.3,14.2.06,18.83,0,37.65.06,56.48a66.14,66.14,0,0,0,.89,11.94c2.67,14.16,13.52,22.21,29,21.86s25.59-8.71,27.81-23.26c1.43-9.29.57-18.63.68-27.94.16-13,0-26,.06-39,0-8.75,4.49-13.44,13.2-14.4,3-.33,4,.39,4,3.64C775.76,453.55,775.88,465.88,775.88,480.86Z" transform="translate(-287.89 -93.59)"/><path class="cls-1" d="M288.73,518.77q.11-40.53.22-81c11.41-.32,16.7,4.7,16.65,16q-.12,27.5-.43,55a53.73,53.73,0,0,0,1.1,12.42c3.1,13.87,14.08,21.71,29.2,21,15.85-.7,25.51-8.9,27.5-23.6,1.53-11.27.56-22.63.77-33.94s.07-22.33.15-33.5c.07-8.21,6.37-13.86,14.6-13.61,3.61.11,2.42,2.53,2.42,4.18,0,23.33,0,46.66-.16,70a61.26,61.26,0,0,1-1.34,12.38c-3.77,17.61-14.51,28.36-32.26,31.86a63.78,63.78,0,0,1-28.73-.7C301,550.68,290.18,537.19,288.73,518.77Z" transform="translate(-287.89 -93.59)"/><path class="cls-1" d="M873.87,504.21c0-15.49-.16-31,.11-46.46.08-4.31-1.27-5.26-5.31-5.11-8.65.3-17.32-.05-26,.16-3.12.07-3.89-.9-3.9-3.94-.08-11.27-.2-11.27,11-11.27,23.64,0,47.29.07,70.94-.08,3.49,0,4.47.9,4.44,4.41-.09,10.81.07,10.81-10.8,10.81-6.16,0-12.33.25-18.48-.09-3.91-.21-4.68,1.27-4.67,4.85.12,30.64.07,61.29.07,91.93,0,6.94,0,6.94-6.82,7-10.56,0-10.56,0-10.56-10.69Z" transform="translate(-287.89 -93.59)"/><path class="cls-1" d="M664.71,351.49c8.62-1.51,17.36-2.21,25.89-4.35,12.65-3.18,24.17-8.79,35.15-15.68,2.45-.14,3.29,1.63,3.38,3.47a330.73,330.73,0,0,1,0,34.78,5,5,0,0,1-1.29,2.66c-17.53,14.45-37.62,23.25-60,27.1-1.87-2.06-1.52-4.63-1.53-7.08q-.08-15.87,0-31.74A20.37,20.37,0,0,0,664.71,351.49Z" transform="translate(-287.89 -93.59)"/><path class="cls-1" d="M664.71,351.49c3.57-.07,3.19,2.44,3.19,4.8q0,21.58,0,43.18c-6.59,1.85-13.41,2.24-20.16,3a6.18,6.18,0,0,1-3.86-.63c-7.38-4.11-15-7.82-21.1-13.93-1.15-9.6-.19-19.23-.41-28.85-.08-3.25-.73-6.71,1.56-9.62A252,252,0,0,0,664.71,351.49Z" transform="translate(-287.89 -93.59)"/><path class="cls-1" d="M534.23,496.51c0,18.16-.13,36.31.1,54.46,0,4.44-1.32,5.69-5.69,5.6-11.59-.22-11.6,0-11.6-11.75q0-46.22,0-92.43c0-8.55,3.73-12.93,12-14.6,3.61-.73,5.35-.22,5.29,4.27C534.08,460.2,534.23,478.36,534.23,496.51Z" transform="translate(-287.89 -93.59)"/><path class="cls-1" d="M958,496.09c0,18.31-.08,36.63.06,54.95,0,3.57-.85,5-4.69,5-12.44.06-12.44.21-12.44-12.36q0-46,0-91.92c0-8.41,4.09-13,12.23-14.23,3.49-.54,5,0,4.93,4.13C957.82,459.78,958,477.94,958,496.09Z" transform="translate(-287.89 -93.59)"/><path class="cls-1" d="M822,496.7c0,18.15-.1,36.31.07,54.47,0,3.75-1.15,4.83-4.84,4.84-12.34,0-12.34.16-12.34-12q0-46,0-91.95c0-8.28,3.54-12.48,11.68-14.26,3.76-.82,5.6-.35,5.53,4.38C821.83,460.38,822,478.54,822,496.7Z" transform="translate(-287.89 -93.59)"/><path class="cls-1" d="M727.82,372.37q0-17.91.08-35.81c0-2,.13-4.06-2.15-5.1,20-15,33.3-34.89,41.34-58.43a24.15,24.15,0,0,1,1-2.28c0-.1.29-.09.62-.18,2.56,39.73-8.93,73.9-39.19,100.8A10.45,10.45,0,0,1,727.82,372.37Z" transform="translate(-287.89 -93.59)"/><path class="cls-1" d="M623.9,349.49c0,10.74,0,21.49,0,32.23,0,2.17,0,4.3-1.16,6.24-13.29-10.07-22.55-23.22-29-38.44-1.66-3.93-2.81-8.07-4.64-13.41C601,342.42,612,347.2,623.9,349.49Z" transform="translate(-287.89 -93.59)"/><path class="cls-1" d="M555,592c4.59-1.6,6.45,0,7.24,4.48a110.43,110.43,0,0,0,5.4,19.36L573,595.26c.55-2.08.9-4,4-3.86,2.81.09,3.59,1.2,4.17,3.67a150.11,150.11,0,0,0,6.25,20.68c1.56-6.43,3.27-12.82,4.61-19.29.86-4.15,2.56-6.27,7.31-4.34-2.84,10.35-5.76,20.71-8.5,31.13-.64,2.45-2.19,2.38-4.11,2.55-2.41.21-3.19-1.09-3.69-3-1.8-7.08-3.64-14.14-5.69-22.08-2.5,4.84-2.9,9.58-4.36,14a80.62,80.62,0,0,0-2.23,8.68c-.52,2.45-2.22,2.42-4.15,2.48s-3.09-.54-3.6-2.53C560.41,612.83,557.68,602.42,555,592Z" transform="translate(-287.89 -93.59)"/><path class="cls-1" d="M312.62,615.21c0-7,0-13.46,0-19.93,0-2.11-.16-3.92,3-3.83,2.93.09,2.57,1.89,2.58,3.7,0,8.83,0,17.66-.05,26.49,0,1.43,1,3.71-1.58,4-2.22.25-4.52.65-6.09-2-3.77-6.47-7.81-12.77-11.76-19.13-.51-.81-1.13-1.54-2.58-3.5,0,7.71,0,14.08,0,20.46,0,2,.82,4.48-2.88,4.38-3.34-.1-2.63-2.32-2.64-4.17,0-8.66-.06-17.32,0-26,0-1.43-1-3.71,1.56-4,2.21-.26,4.5-.72,6.08,2,3.59,6.18,7.47,12.2,11.28,18.25C310.19,613,310.55,614.37,312.62,615.21Z" transform="translate(-287.89 -93.59)"/><path class="cls-1" d="M407.74,625.38l-24.82.16c-.06-10.32-.07-20.64-.23-30.95,0-2.42.82-3.16,3.17-3.11,6.16.12,12.32.08,18.48,0,1.9,0,3.17.23,3.17,2.63s-1.46,2.56-3.27,2.54c-4.16,0-8.33.14-12.48-.06s-2.83,2.74-2.94,4.78-.76,4.49,2.91,4.26,7.33,0,11-.06c1.7,0,3.26-.2,3.29,2.41s-1.23,2.64-3.11,2.6c-3.66-.06-7.33.17-11-.06-4.49-.28-3.05,3-3.07,5.07s-1.33,5.32,3.12,5c3.65-.24,7.35.22,11-.12C406.85,620.16,408.51,621.42,407.74,625.38Z" transform="translate(-287.89 -93.59)"/><path class="cls-1" d="M873.82,591.65c-4.29,4.2-7.57,7.68-11.15,10.81-2.22,1.95-2.33,3.4-.55,5.74,4.1,5.4,7.91,11,11.91,16.63-6.16,1.69-6.44,1.6-9.57-2.94-1.88-2.74-3.63-5.58-5.68-8.18-1-1.25-1.38-4.25-3.51-3.2s-4.32,2.66-4.27,5.65c0,2.16-.12,4.33,0,6.48.17,2.37-.72,3.16-3.11,3.17s-3-1.1-3-3.31c.08-9.31.1-18.62,0-27.93,0-2.43.84-3.08,3.17-3.12,2.6-.05,3,1.15,2.95,3.32-.11,3.62,0,7.25,0,11.12C859.13,602.32,861.34,590.44,873.82,591.65Z" transform="translate(-287.89 -93.59)"/><path class="cls-1" d="M478.54,611.06c0-3.49-.17-7,0-10.47.18-3-.71-4.38-3.87-4-1.31.18-2.66,0-4,0-1.95.12-3.08-.3-3.07-2.67,0-2.53,1.48-2.5,3.25-2.5q10.71,0,21.44,0c1.81,0,3.23.08,3.24,2.55s-1.31,2.54-3.17,2.64c-7.81.45-7.8.5-7.8,8.38,0,5.82-.07,11.64,0,17.46,0,2.27-.62,3.27-3.09,3.28s-3.13-1-3.06-3.28C478.63,618.71,478.54,614.88,478.54,611.06Z" transform="translate(-287.89 -93.59)"/><path class="cls-1" d="M545.9,127.6c0-4.31.08-8.63-.13-12.92-.14-2.85.49-4,3.75-4.08,14-.23,14-.36,13.5,13.73-.09,2.46-.56,3.61-3.3,3.46-4.63-.25-9.27-.2-13.9-.28Z" transform="translate(-287.89 -93.59)"/><path class="cls-1" d="M571.29,153.57c-8.39,0-8.39,0-8.39-8.25,0-8.8,0-8.8,8.83-8.8,8.44,0,8.44,0,8.44,8.25C580.17,153.57,580.17,153.57,571.29,153.57Z" transform="translate(-287.89 -93.59)"/><path class="cls-1" d="M545.89,165.77c0-8,0-8,8.21-8,8.81,0,8.81,0,8.81,8.88,0,8.19,0,8.19-8,8.19C545.89,174.86,545.89,174.86,545.89,165.77Z" transform="translate(-287.89 -93.59)"/><path class="cls-1" d="M545.82,191.93c0,8.59,0,8.59-8.61,8.59s-8.48,0-8.48-8.72c0-8.33,0-8.33,8.36-8.33h.5C545.82,183.47,545.82,183.47,545.82,191.93Z" transform="translate(-287.89 -93.59)"/><path class="cls-1" d="M545.82,127.51c0,4.66-.14,9.33,0,14,.08,2.57-.76,3.61-3.4,3.49-3.49-.17-7-.14-10.48,0-2.28.08-3.12-.61-3.29-3.06-.95-14-1-14,12.78-14.07,1.49,0,3-.16,4.46-.24Z" transform="translate(-287.89 -93.59)"/><path class="cls-1" d="M690.87,606c-.85-8.45-7.12-14.79-15.13-15.3-8.29-.52-15,4.64-17,13.07-2.32,9.92,1,16.79,11.1,22.87h9C688.41,621.57,691.85,615.65,690.87,606Zm-7.65,10.35a9.6,9.6,0,0,1-11.32,5.05c-4.77-1.28-8-6.77-7.72-13.17.28-6.83,3.53-11.51,8.65-12.46,6.87-1.27,12,4.25,12,12.89A14.54,14.54,0,0,1,683.22,616.3Z" transform="translate(-287.89 -93.59)"/><path class="cls-1" d="M990.15,441.21a11.08,11.08,0,0,0-19.22,8.65,11.38,11.38,0,0,0,9,9.55c5.08,1,9.46-1.6,13-7.82,1.11-2.59,1.22-4.18.11-6.59C992.09,443.87,991.12,442.28,990.15,441.21Zm-7.76,16.43a9.1,9.1,0,1,1,8.45-9.32A9,9,0,0,1,982.39,457.64Z" transform="translate(-287.89 -93.59)"/><path class="cls-1" d="M471.62,494.14c7.67-3.82,12.8-9.25,15.23-17,5.88-18.65-6.52-36.31-27.22-38.54-15.6-1.69-31.27-.39-46.9-.8-2.6-.07-3,1.2-3,3.36q0,55.68,0,111.37c0,2.61.83,3.44,3.42,3.41,16.15-.18,32.3,0,48.44-.42,9.62-.27,17.35-4.91,23.56-12.31C496.61,529.6,492.69,501.71,471.62,494.14Zm-44.75-9.87c.05-9.32.09-18.65,0-28,0-2.53.65-3.63,3.35-3.49,3.66.19,7.33.05,11,0,5.15.1,10.31-.23,15.45.67,9.34,1.63,13.56,7,13.41,17.26-.15,9.82-4.2,14.55-13.59,15.93-8.95,1.32-18,.34-26.93.68C427.12,487.48,426.86,486.18,426.87,484.27Zm29,56.5c-8,.27-16,0-23.93.14-3,.07-4.13-.77-4-3.9.24-5.14.07-10.3.07-15.46s.12-10.3-.05-15.45c-.1-2.73.65-3.85,3.58-3.77,8.14.19,16.3-.12,24.43.21,11.77.47,19,8.07,18.84,19.43C474.69,533,467.45,540.38,455.85,540.77Z" transform="translate(-287.89 -93.59)"/><path class="cls-1" d="M661.86,540.49c-6-.06-11.94,0-19,0,17.31-19.32,19.16-41.06,13.82-64-5.65-24.27-23.12-38.57-46.58-39-26-.49-43.32,12.29-50.4,37.29-3.51,12.39-3.72,24.94-1.83,37.6,4.6,30.86,27.19,48.18,57.94,44a162.84,162.84,0,0,1,23.84-1.66c10.16.1,20.33.05,30.48,0,1.45,0,3.46.79,3.48-2.12C673.71,545.61,668.92,540.56,661.86,540.49Zm-20.61-42.82c0,9.24-1.19,18.24-5.11,26.73-5.55,12-15.18,17.76-28.2,17.73-13.21,0-23.38-5.63-28.37-18.17-7.12-17.93-7.05-36.2.55-54,5.34-12.49,15.62-18,29.2-17.57,13,.38,22,6.63,27.25,18.38C640.35,479.35,641.34,488.43,641.25,497.67Z" transform="translate(-287.89 -93.59)"/><path class="cls-1" d="M781.81,624.39c-1.88-5,1.17-11.43-5-15.07,4.52-3.31,5.81-7.58,3.87-12.39s-6.29-5.42-10.82-5.4c-4.32,0-8.64,0-13,0-1.46,0-3.12-.29-3.12,2.05q0,15,0,29.91c0,2.72,1.91,2.08,3.46,2.22,1.88.16,2.79-.54,2.65-2.53-.1-1.49,0-3,0-4.49,0-7.12,0-7.12,7.13-7h1.49c4.22,0,6.44,2.12,6.66,6.37a49.38,49.38,0,0,0,.62,6c.43,2.52,2.53,1.54,4,1.65C780.66,625.71,782.33,625.77,781.81,624.39Zm-11.43-17.51c-2.3.23-4.65,0-7,.16-2.9.27-3.6-1-3.62-3.7,0-6.83-.18-6.83,7.18-6.82,2.64.31,6.24-1.06,7.9,2.87C776.45,603.09,774.45,606.47,770.38,606.88Z" transform="translate(-287.89 -93.59)"/><path class="cls-1" d="M986.64,447c1.29-1.17,0-4.74-2.64-5-2.22-.24-6-1.36-6,1.77,0,4.23,0,7.23,0,12.23h2c1,0-.78-5.77.68-6.22s2.15.92,2.52,2C984,454,984,455,987,455,985.41,452.37,983.61,449.78,986.64,447Zm-4.74.63c-1.43.1-2.14-.47-2.1-2s.76-2.08,3.17-1.82a1.82,1.82,0,0,1,1.84,2C984.79,447.73,983.21,447.57,981.9,447.66Z" transform="translate(-287.89 -93.59)"/></svg>