<svg id="Layer_1" data-name="Layer 1" xmlns="http://www.w3.org/2000/svg" viewBox="0 0 284.69 128.15"><defs><style>.cls-1{fill:#fff;}</style></defs><title>Nexxt Solutions</title><polygon class="cls-1" points="38.08 22.67 38.08 53.48 18.83 22.67 0.08 22.67 0.08 84.67 15.58 84.67 15.58 48.17 38.08 84.67 53.58 84.67 53.58 22.67 38.08 22.67"/><polygon class="cls-1" points="105.96 37.13 105.96 22.67 59.33 22.67 59.33 84.67 105.96 84.67 105.96 70.21 76.96 70.21 76.96 60.1 100.86 60.1 100.86 45.65 76.96 45.65 76.96 37.13 105.96 37.13"/><polygon class="cls-1" points="284.69 22.67 240.44 22.67 240.44 37 253.04 37 253.04 84.67 272.1 84.67 272.1 37 284.69 37 284.69 22.67"/><polygon class="cls-1" points="152.71 21.75 175.46 21.75 154.83 53.67 175.46 84.67 152.71 84.67 132.58 53.21 152.71 21.75"/><polygon class="cls-1" points="215.71 21.75 238.46 21.75 217.83 53.67 238.46 84.67 215.71 84.67 195.58 53.21 215.71 21.75"/><polygon class="cls-1" points="98.71 0 121.33 0 155.13 53.21 121.33 106.25 98.71 106.25 132.58 53.21 98.71 0"/><polygon class="cls-1" points="117.21 2.63 103.96 2.63 136.33 53.13 132.58 53.21 98.71 0 121.33 0 117.21 2.63"/><polyline class="cls-1" points="155.13 53.21 151.33 53.21 119.46 103.5 103.21 103.5 101.08 106.25 121.33 106.25 155.13 53.67"/><polygon class="cls-1" points="176.25 21.75 198.25 21.75 217.83 53.67 198.42 84.67 176.25 84 195.58 53.21 176.25 21.75"/><polygon class="cls-1" points="198.25 21.75 195.58 24.58 181.25 24.58 199.92 53.21 195.58 53.21 175.92 21.75 198.25 21.75"/><polygon class="cls-1" points="214.17 53.67 217.83 53.67 198.42 84.67 175.92 84.25 177.69 81.71 197.04 82 214.17 53.67"/><path class="cls-1" d="M64.6,173.37H58.36v2H64.3a2.76,2.76,0,0,1,1.89.47,2.51,2.51,0,0,1,.49,1.78V179a2.5,2.5,0,0,1-.49,1.77,2.76,2.76,0,0,1-1.89.48H58.41a2.76,2.76,0,0,1-1.89-.48A2.45,2.45,0,0,1,56,179v-.27l2-.4v1.13h6.73v-2.18H58.78a2.74,2.74,0,0,1-1.87-.47,2.48,2.48,0,0,1-.49-1.78V174a2.45,2.45,0,0,1,.49-1.77,2.68,2.68,0,0,1,1.87-.48h5.41a2.77,2.77,0,0,1,1.85.46,2.13,2.13,0,0,1,.51,1.63v.2l-2,.46Z" transform="translate(-56.03 -53.08)"/><path class="cls-1" d="M91.39,174a2.5,2.5,0,0,1,.48-1.77,2.73,2.73,0,0,1,1.88-.48h7a2.73,2.73,0,0,1,1.88.48,2.5,2.5,0,0,1,.49,1.77v5a2.51,2.51,0,0,1-.49,1.78,2.79,2.79,0,0,1-1.88.47h-7a2.79,2.79,0,0,1-1.88-.47,2.51,2.51,0,0,1-.48-1.78Zm2.22,5.49h7.31v-6H93.61Z" transform="translate(-56.03 -53.08)"/><path class="cls-1" d="M128.11,181.23V171.7h2.21v7.74h7.15v1.79Z" transform="translate(-56.03 -53.08)"/><path class="cls-1" d="M162.92,171.7v7.74h6.32V171.7h2.21V179a2.46,2.46,0,0,1-.49,1.78,2.76,2.76,0,0,1-1.87.47h-6a2.81,2.81,0,0,1-1.88-.47,2.51,2.51,0,0,1-.49-1.78V171.7Z" transform="translate(-56.03 -53.08)"/><path class="cls-1" d="M201.07,173.4v7.83h-2.22V173.4h-4.37v-1.7h11v1.7Z" transform="translate(-56.03 -53.08)"/><path class="cls-1" d="M228.49,181.23V171.7h2.21v9.53Z" transform="translate(-56.03 -53.08)"/><path class="cls-1" d="M255.68,174a2.5,2.5,0,0,1,.49-1.77,2.73,2.73,0,0,1,1.88-.48h7a2.73,2.73,0,0,1,1.88.48,2.5,2.5,0,0,1,.48,1.77v5a2.51,2.51,0,0,1-.48,1.78,2.79,2.79,0,0,1-1.88.47h-7a2.79,2.79,0,0,1-1.88-.47,2.51,2.51,0,0,1-.49-1.78Zm2.22,5.49h7.31v-6H257.9Z" transform="translate(-56.03 -53.08)"/><path class="cls-1" d="M292.38,181.23V171.7h1.52l6.71,5.62c.22.18.43.36.6.52s.33.34.48.51c0-.53-.06-.91-.07-1.13s0-.4,0-.52v-5h2v9.53h-1.51l-7-5.89c-.17-.15-.32-.28-.44-.4a4,4,0,0,1-.35-.37c0,.29,0,.57.06.83s0,.49,0,.68v5.15Z" transform="translate(-56.03 -53.08)"/><path class="cls-1" d="M337,173.37h-6.24v2h5.94a2.76,2.76,0,0,1,1.89.47,2.46,2.46,0,0,1,.49,1.78V179a2.45,2.45,0,0,1-.49,1.77,2.76,2.76,0,0,1-1.89.48h-5.89a2.76,2.76,0,0,1-1.89-.48,2.5,2.5,0,0,1-.49-1.77v-.27l2-.4v1.13h6.73v-2.18H331.2a2.76,2.76,0,0,1-1.87-.47,2.48,2.48,0,0,1-.49-1.78V174a2.45,2.45,0,0,1,.49-1.77,2.7,2.7,0,0,1,1.87-.48h5.41a2.75,2.75,0,0,1,1.85.46,2.13,2.13,0,0,1,.51,1.63v.2l-2,.46Z" transform="translate(-56.03 -53.08)"/></svg>