<svg xmlns="http://www.w3.org/2000/svg" viewBox="0 0 101 70">
    <g id="logosvg">
        <g transform="translate(-247 -3271)">
            <path id="crfda" fill="#fff" d="M288.85 3288.81l7.74 18.19H281.1l-3.5-9.37-7.34 9.35h-15.13l17.69-19.45-8.29-16.53h16.03l2.39 7.9 6.07-7.9h15.29zm.04 21.34l-1.06 5h-5.67l-3 13.97h-7.73l3.08-14.14h-5.59l1.26-4.83zm8.61 5l-.42 2.4h7.1l-.92 4.25h-7.18l-.5 2.5h8.93l-.75 4.82h-16.62l4.18-18.97 16.18-.17-1.04 5.16zm50.5-4.75l-3.72 18.88h-6.92l1.41-7.48h-5.91l-1.5 7.48h-6.99l3.75-19.05 7.11.08-1.28 7h5.92l1.38-6.93zm-34.3 9.48c0 6.49 9.51 4.16 9.51 4.16l-1.52 5.44s-15.35 2.26-15.35-8.58c0-10.83 9.56-12.09 19.7-10.23l-.93 5.22s-11.41-2.49-11.41 4zm-49.14-36.93a4.25 4.25 0 1 1 0 8.5 4.25 4.25 0 0 1 0-8.5zm41.47 45.67v.13a.3.3 0 0 1 0 .08v.08a16.87 16.87 0 0 1-3.3 5.03 26.09 26.09 0 0 1-4.89 4.1 17.78 17.78 0 0 1-6.04 2.32c-1.05.23-2.11.4-3.19.51-.53.04-1.07.09-1.6.09l-.81.04h-.8c-4.3-.07-8.57-.88-12.6-2.4a40.25 40.25 0 0 1-11.08-6.4c-.8-.7-1.64-1.33-2.42-2.1a59.82 59.82 0 0 1-2.24-2.32 44.7 44.7 0 0 1-3.96-5.02 36.99 36.99 0 0 1-5.3-11.61 26.31 26.31 0 0 1-.8-6.38c.01-2.18.38-4.34 1.1-6.4a17.42 17.42 0 0 1 8.1-9.31h.1c.11 0 .2.05.26.13l.03.05v.12c0 .1-.05.2-.13.26a19.09 19.09 0 0 0-4.26 3.93 16.1 16.1 0 0 0-2.73 5.3 18.1 18.1 0 0 0-.72 5.9c.08 2 .4 3.99.96 5.92a36.52 36.52 0 0 0 5.23 10.87 43.41 43.41 0 0 0 8.22 8.9 39.77 39.77 0 0 0 10.43 6.13 36.98 36.98 0 0 0 11.86 2.52l.76.03h.76l1.52-.03c1-.07 2-.2 3-.37.98-.17 1.95-.4 2.9-.7l1.4-.54c.46-.19.88-.44 1.32-.66 3.4-1.98 6.55-4.7 8.38-8.24a.38.38 0 0 1 .1-.1.14.14 0 0 1 .06-.03h.1l.12.03h.07l.1.09z"></path>
        </g>
    </g>
</svg>