<svg id="Capa_1" data-name="Capa 1" xmlns="http://www.w3.org/2000/svg" viewBox="0 0 953.43 359.39"><defs><style>.cls-1{fill:#fff;}</style></defs><title>tp-link</title><path class="cls-1" d="M382.27,374.47c0-11.39.11-22.78-.08-34.16-.05-3,.91-3.6,3.71-3.62,10.72-.1,21.47.74,32.16-.43a55.89,55.89,0,0,0,49.61-48.83c1.78-13.49.17-26.48-6.34-38.52C452.74,233,439,224.32,421.31,222c-20.23-2.69-37.93,3-52.37,17.6-10.83,10.93-15.81,24.46-16.11,39.73-.16,8.32-.09,16.65,0,25,0,2.35-.52,3.24-3.07,3.23-23.1-.1-46.21-.07-69.31-.05-1.72,0-2.93-.11-2.87-2.39.35-14.11-.85-28.26.85-42.33a129.11,129.11,0,0,1,28.88-67.53,131.89,131.89,0,0,1,54.52-39.8,136.26,136.26,0,0,1,83.76-5.72c41.55,10.09,71.14,34.92,87.83,74.43,8.47,20.05,11.38,41.17,10,62.92a130.49,130.49,0,0,1-21.76,65.2c-19.5,29.36-46.61,48.15-80.78,56.61-11.4,2.83-23.09,3.61-34.84,3.52-6.79-.06-13.58-.12-20.36,0-2.67.06-3.57-.62-3.53-3.44C382.36,397.47,382.27,386,382.27,374.47Z" transform="translate(-184.95 -145.61)"/><path class="cls-1" d="M355.38,419.73c0,27.27,0,54.53.06,81.8,0,2.74-.71,3.49-3.45,3.47-19.06-.12-38.11,0-57.17-.08-11.15,0-19.52-8.36-19.54-19.46,0-22.56-.09-45.12,0-67.67,0-2.64-.51-3.54-3.39-3.52-22.66.13-45.33.09-68,.06-10.85,0-18.89-8.1-18.89-18.87,0-19.38.06-38.77-.05-58.15,0-2.45.6-3.17,3.09-3.16q82.14.09,164.27,0c2.86,0,3.11,1.14,3.11,3.47Q355.33,378.66,355.38,419.73Z" transform="translate(-184.95 -145.61)"/><path class="cls-1" d="M664.26,392.2q0-26.59,0-53.2a6.44,6.44,0,0,1,1.14-4.29c17.37-22.5,56.05-33,81.61-11.16,17.19,14.69,21.87,33.95,15.93,55.3-5.67,20.41-20.26,31.49-40.87,34.88-7.6,1.25-15.3.33-22.95.59-1.38,0-2-.34-1.93-1.82.07-5.14.11-10.29,0-15.43,0-1.83.89-1.87,2.22-1.86,4.38,0,8.76,0,13.14,0,18.12.3,31.57-14.65,30.15-33.75-1.15-15.57-10-26-23.68-28.31-11.33-1.91-21.47.85-29.83,9.11a8.32,8.32,0,0,0-2.57,6.4c.08,33.39,0,66.78.13,100.16,0,2.85-.57,3.82-3.54,3.6-4-.29-8.09-.06-12.14-.07-5,0-6.79-1.81-6.79-7Z" transform="translate(-184.95 -145.61)"/><path class="cls-1" d="M1069.56,267.74v89c1.13.07,1.43-.85,1.91-1.41q16.89-19.91,33.75-39.83c.83-1,1.48-2.06,3.11-2,8.08.07,16.16,0,25,0-3.39,3.9-6.35,7.31-9.34,10.71l-29.27,33.27c-3.29,3.74-3.28,3.74.13,7.58l43.58,49.24h-6.16c-6.24,0-12.49-.09-18.73,0a4.91,4.91,0,0,1-4.38-2.08c-12.93-15.72-25.93-31.38-39.06-47.22-.82,1.15-.48,2.36-.48,3.45,0,14-.14,28,.08,42.05,0,3.31-1,4-4,3.83-4.26-.27-8.54,0-12.81-.09-3.46,0-5.46-2-5.71-5.41,0-.65,0-1.31,0-2q0-62.42-.05-124.84c0-2.21.5-3.5,2.68-4.51C1056.28,274.53,1062.65,271.2,1069.56,267.74Z" transform="translate(-184.95 -145.61)"/><path class="cls-1" d="M931.62,371.86c0-11.93,0-23.87,0-35.8a7.54,7.54,0,0,1,1.81-5c18.09-22.73,54-27.3,75.62-9.44,11.42,9.45,16.79,22,17,36.57.29,17.84,0,35.7.13,53.54,0,2.28-.77,2.7-2.82,2.65-5.47-.12-11-.2-16.42,0-2.64.12-3-.87-2.95-3.17q.13-25.95,0-51.89c0-12.9-7.47-23.54-18.87-26.64s-21.14-.07-29.55,8a5.83,5.83,0,0,0-1.67,4.7c.05,21.79,0,43.58.12,65.36,0,3.18-1,3.8-3.83,3.64-3.93-.23-7.88-.05-11.82-.06-5,0-6.74-1.75-6.75-6.63Q931.61,389.76,931.62,371.86Z" transform="translate(-184.95 -145.61)"/><path class="cls-1" d="M613.81,282.87c0,9.37.1,18.13-.07,26.87,0,2.86.5,4,3.69,3.86,7.44-.27,14.89,0,22.34-.13,2,0,2.88.36,2.78,2.65-.2,4.81-.22,9.64,0,14.45.1,2.45-.81,2.85-3,2.82-7.67-.13-15.33,0-23-.1-2.11,0-2.81.48-2.8,2.71.1,15.33,0,30.66.09,46,.07,9.45,4.08,13.22,13.62,13.24,7,0,14,0,21,0,1.84,0,2.73.18,2.64,2.41-.19,4.81-.15,9.63,0,14.45.06,2-.67,2.31-2.44,2.29-10-.08-19.93.09-29.89-.09-16.32-.32-27.25-11.08-27.36-27.41-.2-30.22,0-60.44-.06-90.66,0-1.1-.11-2.12,1.18-2.75C599.49,290,606.4,286.55,613.81,282.87Z" transform="translate(-184.95 -145.61)"/><path class="cls-1" d="M864.1,267.85v3.59q0,69.65.08,139.29c0,3.1-.9,3.82-3.78,3.63-3.93-.24-7.88,0-11.82-.06-4.93,0-6.75-1.81-6.75-6.69q0-25.78,0-51.58c0-24.63,0-49.27-.06-73.91,0-2.47.81-3.64,3-4.65C851.13,274.46,857.41,271.19,864.1,267.85Z" transform="translate(-184.95 -145.61)"/><path class="cls-1" d="M909,364.12c0,15.64,0,31.29.05,46.93,0,2.42-.37,3.5-3.15,3.33-4.36-.27-8.74-.05-13.12-.08-4,0-6-1.87-6-5.7q-.06-46.44-.06-92.88c0-1.71.46-2.27,2.2-2.24,5.91.1,11.82.17,17.72,0,2.64-.09,2.41,1.36,2.41,3.07Q909,340.33,909,364.12Z" transform="translate(-184.95 -145.61)"/><path class="cls-1" d="M781.13,352.5c11.11,0,21.7,0,32.29,0,2.82,0,6.49-1.22,8.22.5s.46,5.39.52,8.2c.08,3.83-.06,7.67.05,11.49,0,1.69-.43,2.26-2.19,2.24-8.75-.08-17.51,0-26.26,0-.83,0-1.7.21-2.21-.88C788.17,367,784.74,360,781.13,352.5Z" transform="translate(-184.95 -145.61)"/><path class="cls-1" d="M897.5,290.19c-2.85,0-5.7-.12-8.54,0a4.05,4.05,0,0,1-4-2.09c-3.81-5.78-2.61-13.85,2.88-18.73a15.6,15.6,0,0,1,20.18,0,14.49,14.49,0,0,1,2.74,18.75,3.86,3.86,0,0,1-3.72,2C903.86,290.08,900.68,290.19,897.5,290.19Z" transform="translate(-184.95 -145.61)"/></svg>