<svg id="Capa_1" data-name="Capa 1" xmlns="http://www.w3.org/2000/svg" xmlns:xlink="http://www.w3.org/1999/xlink" viewBox="0 0 477.45 487.81"><defs><style>.cls-1{fill:none;}.cls-2{fill:#fff;}.cls-3{clip-path:url(#clip-path);}</style><clipPath id="clip-path" transform="translate(-182.53 -53.53)"><rect class="cls-1" width="841.89" height="595.28"/></clipPath></defs><title>Huawei Vertical Black</title><polygon class="cls-2" points="53.81 438.75 17.05 438.75 17.05 406.38 0.78 406.38 0.78 486.62 17.05 486.62 17.05 454.02 53.81 454.02 53.81 486.62 70.09 486.62 70.09 406.38 53.81 406.38 53.81 438.75"/><g class="cls-3"><path class="cls-2" d="M328,505.83c0,13.05-6.47,20-18.24,20s-18.33-7.17-18.33-20.57V460H275.18v45.86c0,22.57,12.55,35.51,34.41,35.51,22.07,0,34.74-13.18,34.74-36.17V459.92H328Z" transform="translate(-182.53 -53.53)"/><polygon class="cls-2" points="333.63 461.55 315.42 406.37 302.13 406.37 283.91 461.55 266.19 406.42 248.87 406.42 276.83 486.61 290.31 486.61 308.55 433.93 326.8 486.61 340.39 486.61 368.28 406.42 351.4 406.42 333.63 461.55"/><polygon class="cls-2" points="397.46 452.08 427.06 452.08 427.06 437.46 397.46 437.46 397.46 421.05 440.44 421.05 440.44 406.44 381.4 406.44 381.4 486.56 441.98 486.56 441.98 471.94 397.46 471.94 397.46 452.08"/><rect class="cls-2" x="461.39" y="406.38" width="16.07" height="80.13"/><path class="cls-2" d="M413.2,523.4l7.21,16.7h17.07l-35.21-80.19H387.92L352.57,540.1h16.61l7.31-16.7Zm-18.39-43.18,12.34,28.71h-24.6Z" transform="translate(-182.53 -53.53)"/><path class="cls-2" d="M625.47,196c2.65-41.08-38.69-79.09-38.69-79.09S510.11,209.73,454.24,331.7a1.77,1.77,0,0,0,2.41,2.48c20.93-10.39,108-55.23,144.68-90.21,0,0,22.94-18.43,24.14-48m-97.72-92.68s-9.6-35.78-48.49-45.24c0,0-11.2-2.84-23.1-4.52,0,0-43.47,56-22.34,267.13A1.66,1.66,0,0,0,435,322.3a1.86,1.86,0,0,0,2.06-.82c13.94-20.14,77.5-114.36,90.4-171.66,0,0,7-27.74.25-46.53M468.14,364a1.83,1.83,0,0,0,.46,2.24c14,10.06,56.6,39.83,77.11,45.61,0,0,37.92,12.93,70.86-43.67L469.7,363.09a1.84,1.84,0,0,0-1.56.93M655.62,238.5s-124.7,67-189.17,110.4a1.78,1.78,0,0,0-.75,2.11,1.62,1.62,0,0,0,1.52,1.16c23.08,0,110.47.14,112.66-.27a87.8,87.8,0,0,0,25.26-5.81s31.08-9.88,47.23-45.18c0,0,14.4-28.79,3.25-62.41M375.93,348.9c-64.46-43.44-189.17-110.4-189.17-110.4-11.14,33.62,3.26,62.41,3.26,62.41,16.15,35.3,47.23,45.18,47.23,45.18a87.74,87.74,0,0,0,25.24,5.81c2.21.41,89.59.3,112.66.27a1.64,1.64,0,0,0,1.54-1.16,1.78,1.78,0,0,0-.76-2.11m-3.25,14.19L225.81,368.2c32.94,56.6,70.86,43.67,70.86,43.67,20.51-5.78,63.08-35.55,77.12-45.61a1.83,1.83,0,0,0,.45-2.24,1.86,1.86,0,0,0-1.56-.93m-9.56-305c-38.89,9.46-48.48,45.24-48.48,45.24-6.77,18.79.24,46.53.24,46.53,12.9,57.3,76.46,151.52,90.39,171.66a1.88,1.88,0,0,0,2.07.82,1.65,1.65,0,0,0,1.22-1.64c21.13-211.17-22.33-267.13-22.33-267.13-11.91,1.68-23.11,4.52-23.11,4.52M255.61,116.88s-41.35,38-38.7,79.09c1.21,29.57,24.14,48,24.14,48,36.68,35,123.74,79.82,144.69,90.21a1.94,1.94,0,0,0,2.14-.22,2,2,0,0,0,.27-2.26c-55.88-122-132.54-214.82-132.54-214.82" transform="translate(-182.53 -53.53)"/></g></svg>