<svg id="katman_1" data-name="katman 1" xmlns="http://www.w3.org/2000/svg" viewBox="0 0 420 221.36"><defs><style>.cls-1{fill:#fff;}</style></defs><title>Cisco Systems</title><path class="cls-1" d="M277,237.41a78.51,78.51,0,0,0-18-2.32c-17,0-27.19,9.16-27.19,22.81,0,12.09,8.55,18.11,18.81,21.35,1.14.38,2.81.91,3.93,1.27,4.57,1.44,8.21,3.58,8.21,7.27,0,4.14-4.21,6.82-13.37,6.82a69,69,0,0,1-17.39-2.71v16.79a110.19,110.19,0,0,0,19.87,2c14.09,0,30.22-6.16,30.22-24.49,0-8.89-5.45-17.08-17.4-20.87l-5.08-1.62c-3-1-8.44-2.51-8.44-6.95,0-3.51,4-6,11.39-6A63.53,63.53,0,0,1,277,253Zm155.64,35.48a19,19,0,1,1-19.05-19.19,18.87,18.87,0,0,1,19.05,19.19m-19.05-37.78c-22.44,0-38.54,16.93-38.54,37.78s16.1,37.79,38.54,37.79,38.57-16.92,38.57-37.79-16.12-37.78-38.57-37.78M207.2,309.38H188.78v-73H207.2" transform="translate(-70 -89.32)"/><path class="cls-1" d="M163.47,237.73a55.76,55.76,0,0,0-16.79-2.62c-22.41,0-38.87,16-38.87,37.78,0,23.51,18.17,37.79,38.87,37.79a58.88,58.88,0,0,0,16.79-2.59v-19.6A32.24,32.24,0,0,1,148,292.37c-12.27,0-20.19-8.64-20.19-19.48,0-11.18,8.26-19.47,20.19-19.47a31.9,31.9,0,0,1,15.47,3.9" transform="translate(-70 -89.32)"/><path class="cls-1" d="M355.7,237.73a55.76,55.76,0,0,0-16.79-2.62c-22.42,0-38.87,16-38.87,37.78,0,23.51,18.16,37.79,38.87,37.79a58.88,58.88,0,0,0,16.79-2.59v-19.6a32.24,32.24,0,0,1-15.47,3.88c-12.27,0-20.19-8.64-20.19-19.48,0-11.18,8.26-19.47,20.19-19.47a31.94,31.94,0,0,1,15.47,3.9" transform="translate(-70 -89.32)"/><path class="cls-1" d="M188.73,98.43a9.15,9.15,0,0,0-18.29,0v96.91a9.15,9.15,0,0,0,18.29,0Zm-50.22,34.4a9.15,9.15,0,0,0-18.29,0v44.3a9.15,9.15,0,0,0,18.29,0ZM88.29,158A9.15,9.15,0,0,0,70,158v19.16a9.15,9.15,0,0,0,18.29,0" transform="translate(-70 -89.32)"/><path class="cls-1" d="M170.44,98.43a9.15,9.15,0,0,1,18.29,0v96.91a9.15,9.15,0,0,1-18.29,0Zm50.23,34.4a9.14,9.14,0,0,1,18.28,0v44.3a9.14,9.14,0,1,1-18.28,0ZM270.89,158a9.14,9.14,0,0,1,18.28,0v19.16a9.14,9.14,0,0,1-18.28,0" transform="translate(-70 -89.32)"/><path class="cls-1" d="M371.27,98.43a9.15,9.15,0,0,1,18.29,0v96.91a9.15,9.15,0,0,1-18.29,0Zm50.22,34.4a9.15,9.15,0,0,1,18.29,0v44.3a9.15,9.15,0,0,1-18.29,0ZM471.71,158A9.15,9.15,0,0,1,490,158v19.16a9.15,9.15,0,0,1-18.29,0" transform="translate(-70 -89.32)"/><path class="cls-1" d="M389.56,98.43a9.15,9.15,0,0,0-18.29,0v96.91a9.15,9.15,0,0,0,18.29,0Zm-50.23,34.4a9.14,9.14,0,0,0-18.28,0v44.3a9.14,9.14,0,0,0,18.28,0ZM289.11,158a9.14,9.14,0,0,0-18.28,0v19.16a9.14,9.14,0,1,0,18.28,0" transform="translate(-70 -89.32)"/></svg>