<svg id="Capa_1" data-name="Capa 1" xmlns="http://www.w3.org/2000/svg" xmlns:xlink="http://www.w3.org/1999/xlink" viewBox="0 0 507.65 507.72"><defs><style>.cls-1{fill:#008980;}.cls-2{fill:url(#Degradado_sin_nombre_21);}.cls-3{fill:#fff;}</style><linearGradient id="Degradado_sin_nombre_21" x1="215.05" y1="214.18" x2="473.7" y2="472.82" gradientUnits="userSpaceOnUse"><stop offset="0.14" stop-color="#004540"/><stop offset="0.44" stop-color="#024641"/><stop offset="0.56" stop-color="#094c47"/><stop offset="0.64" stop-color="#155450"/><stop offset="0.71" stop-color="#26615d"/><stop offset="0.77" stop-color="#3d716e"/><stop offset="0.82" stop-color="#598682"/><stop offset="0.87" stop-color="#7a9e9b"/><stop offset="0.92" stop-color="#a0bab8"/><stop offset="0.96" stop-color="#cbd9d8"/><stop offset="1" stop-color="#fafbfb"/><stop offset="1" stop-color="#fff"/></linearGradient></defs><title>logo-sin-banco</title><path class="cls-1" d="M324.37,523.57c-17.38,4.5-35.13,5.34-52.94,5.11-120.1-1.55-223.35-88.32-245.64-206.33C-.07,185.38,89.72,52.47,226.17,25.77,365-1.39,499.68,90.3,524.9,228.91c5.83,32,5.24,63.9-.48,95.81-.06.35-.47.63-.71.95a279.22,279.22,0,0,0-31.32-27.09c-2.5-1.89-4.09-4.53-6.52-6.38Q456.61,267,427.2,241.87C408,225.56,389.26,208.82,369.71,193c-11-9-23.8-15.17-35.76-22.64-15.79-9.86-32-19-47.77-29-13.63-8.57-26.23-8.8-40.08-.07-24.76,15.59-50.11,30.25-75.17,45.36-2.49,1.5-6.88,2.71-6,6s5.28,1.93,8.2,2.1c3.68.21,7.37.05,11.05.11,4.22.06,6.49,2,6.52,6.33,0,1.64.06,3.28.06,4.91q0,67.25,0,134.47c0,1.84,0,3.68-.13,5.52-.21,3.35-1.82,5.29-5.27,5.61-4.81.45-9.69,1.08-11.27,6.69-1.65,5.88,0,10.9,5,14.61,4.72,5.61,10.25,10.45,15.24,15.83,20,21.63,41.56,41.81,62.11,62.94,11.42,11.73,22.38,23.9,34.18,35.27,9.88,10.1,20,20,29.9,30.05C322.26,518.92,325,520.31,324.37,523.57Z" transform="translate(-21.35 -21)"/><path class="cls-2" d="M521.24,320.34q-17.34-14.54-34.62-29.17c-11.94-10.43-23.82-20.94-35.85-31.27-19.12-16.44-38.23-32.88-57.57-49.06-7.28-6.09-13.75-13.19-22.06-18-6.23,1.21-12.53,2.65-18.86,1.9-32.35-3.84-82.55-3.35-148.67-2.39-4.34,85.42,4.83,169.88-24.42,182.28,7.75,8.37,15.36,16.87,23.27,25.08,20.55,21.3,42.13,41.59,62.36,63.23,8,8.6,16,17.41,25.09,25h0c1.77,2,3.46,4,5.3,5.9q14.55,14.93,29.16,29.78a49.13,49.13,0,0,0,5.43-.69Q435,498.39,492.15,406.72c15.55-25,26.42-51.94,31.55-81.05A6.58,6.58,0,0,0,521.24,320.34Z" transform="translate(-21.35 -21)"/><path class="cls-3" d="M362.09,196.25c3.33-.27,7.15.65,9.05-3.43a13.2,13.2,0,0,0-4.57-4.85c-28.37-17.05-56.63-34.26-85.13-51.09-10.53-6.22-21.45-5.75-32,.63-11.72,7.06-23.48,14.06-35.21,21.11-16.29,9.77-32.59,19.52-48.81,29.41-2,1.2-5,2.72-4.13,5.47.75,2.54,3.8,2.74,6.32,2.75,5.51,0,11,.26,16.53,0,3.73-.18,4.86,1,4.85,4.81q-.18,72.18,0,144.36c0,3.29-.64,4.74-4.34,4.7-5.59-.06-10.82,1.46-12.56,7.67-2.17,7.71,0,12.48,7.14,16.83,7.56.17,15.11.47,22.66.48q74.76.09,149.52,0c10.73,0,14.71-3.66,14.69-12.73,0-8.64-4.13-12.43-14.4-12.23-4.4.08-5.36-1.24-5.34-5.46.16-44.22.06-88.44.14-132.66,0-5.06-2.2-11.62.89-14.78S357.05,196.66,362.09,196.25ZM251.3,346.09c0,3.39-1.24,4.09-4.29,4-6.76-.19-13.53-.33-20.27,0-4.4.24-5.45-1.26-5.42-5.51.2-23.75.1-47.5.1-71.26s.1-47.5-.09-71.26c0-4.33.68-6.31,5.61-6,6.52.46,13.1.25,19.64.06,3.24-.1,4.73.53,4.73,4.29Q251.13,273.3,251.3,346.09Zm56.89,4c-6.53-.36-13.1-.23-19.64,0-3.23.09-4.71-.52-4.7-4.29q.18-72.74,0-145.49c0-3.32,1.17-4.18,4.26-4.11,6.95.17,13.93.32,20.87,0,4.05-.21,4.63,1.38,4.61,4.92-.14,24.14-.07,48.29-.07,72.44,0,23.73-.11,47.47.1,71.21C313.67,349.06,312.48,350.37,308.19,350.13Z" transform="translate(-21.35 -21)"/></svg>