<svg id="Capa_1" data-name="Capa 1" xmlns="http://www.w3.org/2000/svg" viewBox="0 0 500 500"><defs><style>.cls-1{fill:#fff;}.cls-2{fill:#ea740b;}.cls-3{fill:#00498b;}</style></defs><title>icono-bcp</title><rect class="cls-1" width="500" height="500"/><path class="cls-2" d="M277.6,110.68c20.78,9.4,38.86,23,56.64,36.95a364.09,364.09,0,0,1,65.63,67.54c23.25,30.79,24,71.08,2.49,103.62-17.93,27.09-41.45,48.87-66.5,69.13-26.23,21.21-53.54,40.79-83.34,56.85-44,23.72-87.62,13.61-116.87-29.46-9.83-14.48-9.66-13.61,5.58-21.23,52.93-26.49,100-60.15,132.29-111.27,5.35-8.47,10.37-17.16,13.18-26.9-.47-6.1,2.75-11.25,4.43-16.77,8.15-26.78,10.79-53.91,5.94-81.61-2.55-14.59-7.42-28.2-16.86-39.89C278.59,115.65,276.83,113.61,277.6,110.68Z" transform="translate(-22 -24.5)"/><path class="cls-3" d="M277.6,110.68c16.79,17.74,21.62,39.4,23.78,63.17,2.48,27.44-2.87,52.86-12.17,78.05a23,23,0,0,1-2.51,4c-30.37-31.18-64.88-56.54-104.38-75.07-11.32-5.31-11-5.76-5.15-16.82,13.11-24.71,30.34-45.46,56.25-57.47C248.72,99.46,263.81,99.28,277.6,110.68Z" transform="translate(-22 -24.5)"/></svg>