<svg id="Capa_1" data-name="Capa 1" xmlns="http://www.w3.org/2000/svg" xmlns:xlink="http://www.w3.org/1999/xlink" viewBox="0 0 503.26 495.67"><defs><style>.cls-1{fill:none;}.cls-2{fill:#e30016;fill-rule:evenodd;}.cls-3{clip-path:url(#clip-path);}</style><clipPath id="clip-path" transform="translate(-22 -26.59)"><rect id="SVGID" class="cls-1" x="213.79" y="169.15" width="315.21" height="353.13"/></clipPath></defs><title>icono-banco-nacion</title><path class="cls-2" d="M101.46,53.44C198-.18,315.79,32,329,101.75c15.63,82.46-84.91,201.89-307,275.46,60-39.58,101.86-76.12,130.52-109.29C223,186.29,263.7,50.87,101.46,53.44Z" transform="translate(-22 -26.59)"/><g class="cls-3"><path class="cls-2" d="M296.13,198.45c96.52-53.64,214.35-21.47,227.55,48.3,15.63,82.48-84.88,201.9-307,275.5,60-39.61,101.84-76.14,130.52-109.33C417.72,331.3,458.37,195.88,296.13,198.45Z" transform="translate(-22 -26.59)"/></g></svg>