<svg id="Capa_1" data-name="Capa 1" xmlns="http://www.w3.org/2000/svg" viewBox="0 0 493 486.92"><defs><style>.cls-1{fill:#069d32;}.cls-2{fill:#0038a6;}</style></defs><title>icono-interbank</title><path class="cls-1" d="M522,43.53c0-10.51-.74-12.62-4.42-12.62q-242.07.51-484.15,0C29.76,30.91,29,33,29,43.53q.23,229.94,0,459.87c0,12.07.83,14.46,5,14.43,80.49-.46,161-.34,241.46-.34,80.69,0,161.38-.09,242.08.29,3.67,0,4.42-2.11,4.41-12.62Q521.78,274.34,522,43.53Z" transform="translate(-29 -30.91)"/><text x="-29" y="-30.91"/><path class="cls-2" d="M391.79,129.15c-68.42.82-136.85.3-205.28.35-39.35,0-51,10.31-51.53,49.8-.85,69.2.12,138.42-.56,207.63-.15,15.32,6.09,18.26,19.65,18,37-.72,73.93-.25,110.9-.25,34.6,0,69.21.08,103.82,0,33.57-.11,46.92-13.2,47.06-47.22.27-68.43-.68-136.87.56-205.28C416.77,132.28,409.23,128.94,391.79,129.15ZM350.29,200c-.74,37-.47,73.94-.09,110.9.11,10.71-1.66,17.34-14.36,19.43-39.47,6.5-78.74,14.21-118.06,21.65-13.68,2.59-18.26-2.9-17.67-16.38.83-18.84.21-37.75.21-56.63,0-18.09.88-36.24-.3-54.25-.91-13.88,4.54-20,17.65-22.19q56.88-9.54,113.59-20C346.16,179.76,350.58,185.5,350.29,200Z" transform="translate(-29 -30.91)"/></svg>