<svg id="Capa_1" data-name="Capa 1" xmlns="http://www.w3.org/2000/svg" viewBox="0 0 504 504.04"><defs><style>.cls-1{fill:#00549e;}.cls-2{fill:#fefefe;}.cls-3{fill:#fcfdfd;}</style></defs><title>icono-caja-piura</title><path class="cls-1" d="M526.41,277.9q0,123.72.09,247.42c0,3.33-.59,4.06-4,4.06q-247.92-.17-495.83,0c-3.83,0-4.15-1.13-4.15-4.4q.12-247.67,0-495.33c0-3.49.64-4.31,4.25-4.31q247.67.18,495.33,0c3.92,0,4.41,1.13,4.41,4.63Q526.34,154,526.41,277.9Z" transform="translate(-22.5 -25.36)"/><path class="cls-2" d="M269.65,196.35a42.33,42.33,0,0,1-43-42,42.81,42.81,0,0,1,42.76-43.45c23.21.06,42.66,19.53,42.7,42.74A42.81,42.81,0,0,1,269.65,196.35Z" transform="translate(-22.5 -25.36)"/><path class="cls-3" d="M269.53,407.08q62.94,0,125.88-.05c5.06,0,8.85-.34,8.76,7.07-.08,7-3.22,7.35-8.65,7.34q-124.86-.17-249.73,0c-5.63,0-9.44-.08-9.39-7.76.06-7.86,4.67-6.59,9.28-6.59Z" transform="translate(-22.5 -25.36)"/><path class="cls-2" d="M416.08,259.43c-.16-32.84-24.34-58.36-57.16-58.68-60.56-.59-121.13-.49-181.69,0-27,.21-51.5,20.63-53.64,46.25a607.44,607.44,0,0,0,0,105.42c2.66,29.17,34.13,49.67,56.46,45.08-13.31-17.76-8.39-38.27-9.22-57.91-.22-5.23,3.87-4.6,7.17-4.6q91.35,0,182.71-.08c4.41,0,7.1.82,6.8,6.06-1.1,19.27,4.06,39.42-9.2,57,29.6,2.55,56.81-22.13,57.51-52.24C416.54,317,416.22,288.19,416.08,259.43ZM357.8,292.81c-29.4-.34-58.81-.15-88.22-.14-30.08,0-60.16-.17-90.24.12-6.5.07-8.68-1.6-8.71-8.46-.15-30.6,16.52-48.08,47.09-48.2q51.19-.19,102.41,0c31.28.09,47.28,16.54,47.62,47.45C367.83,291.74,364.85,292.88,357.8,292.81Z" transform="translate(-22.5 -25.36)"/></svg>