<svg id="Capa_1" data-name="Capa 1" xmlns="http://www.w3.org/2000/svg" xmlns:xlink="http://www.w3.org/1999/xlink" viewBox="0 0 484 484"><defs><style>.cls-1,.cls-2{isolation:isolate;}.cls-1{fill:url(#Degradado_sin_nombre_12);}.cls-2{fill:url(#Degradado_sin_nombre_16);}.cls-3{fill:#fffffe;fill-rule:evenodd;}</style><radialGradient id="Degradado_sin_nombre_12" cx="293.02" cy="173.67" fx="432.2475694006179" fy="110.63240633430102" r="239.23" gradientUnits="userSpaceOnUse"><stop offset="0.07" stop-color="#50b5bc"/><stop offset="0.16" stop-color="#41a0b1"/><stop offset="0.37" stop-color="#25799c"/><stop offset="0.56" stop-color="#115c8d"/><stop offset="0.72" stop-color="#044a84"/><stop offset="0.84" stop-color="#004481"/></radialGradient><linearGradient id="Degradado_sin_nombre_16" x1="314.31" y1="377.42" x2="516.16" y2="207.86" gradientUnits="userSpaceOnUse"><stop offset="0.07" stop-color="#1368ac"/><stop offset="0.45" stop-color="#085494"/><stop offset="0.84" stop-color="#004481"/></linearGradient></defs><title>logo-bbva</title><path class="cls-1" d="M465.47,45.42A103,103,0,0,0,422.4,15.55c-18-5.7-35.19-7.47-60-8H137.32c-24.82.56-42,2.33-60,8a102.94,102.94,0,0,0-61.53,61.5c-5.38,17-7.27,33.25-7.93,55.87V366.13C8.51,388.75,10.4,405,15.78,422a102.89,102.89,0,0,0,61.53,61.5c18,5.71,35.19,7.48,60,8h90.9Z" transform="translate(-7.85 -7.52)"/><path class="cls-2" d="M483.93,77.05a102.72,102.72,0,0,0-18.46-31.63L228.23,491.52H362.37c24.83-.55,42-2.32,60-8A102.89,102.89,0,0,0,483.93,422c5.38-17,7.26-33.24,7.92-55.86V132.92C491.19,110.3,489.31,94.06,483.93,77.05Z" transform="translate(-7.85 -7.52)"/><g id="MARCA"><path id="Fill-4" class="cls-3" d="M337.13,203.6l-33.4,63.57a2,2,0,0,1-3.52,0l-33.42-63.58a2,2,0,0,0-1.72-1H248.92a1.45,1.45,0,0,0-1.28,2.14l52.62,98.48a1.93,1.93,0,0,0,3.41,0L356.3,204.7a1.45,1.45,0,0,0-1.28-2.14H338.84a1.92,1.92,0,0,0-1.71,1" transform="translate(-7.85 -7.52)"/><path id="Fill-5" class="cls-3" d="M356.09,288.43l33.4-63.57a2,2,0,0,1,3.51,0l33.43,63.58a1.93,1.93,0,0,0,1.71,1H444.3a1.46,1.46,0,0,0,1.28-2.14L393,188.85a1.94,1.94,0,0,0-3.41,0l-52.63,98.48a1.45,1.45,0,0,0,1.28,2.14h16.19a2,2,0,0,0,1.71-1" transform="translate(-7.85 -7.52)"/><path id="Fill-6" class="cls-3" d="M106.23,289.47H76.12a1.94,1.94,0,0,1-1.94-1.94v-27a1.94,1.94,0,0,1,1.94-1.94h30.11c14.35,0,20.76,4.07,20.76,15.43S120.72,289.47,106.23,289.47ZM76.14,217.26h29.69c11,0,16.52,4.68,16.52,13.31s-5.55,13.31-16.52,13.31H76.14a1.94,1.94,0,0,1-1.94-1.94V219.19A1.93,1.93,0,0,1,76.14,217.26Zm51.69,32.2c7-3.48,11.33-11,11.33-20.33,0-15.82-12.34-26.57-29.77-26.57H59.32a1.93,1.93,0,0,0-1.93,1.94v97.77a1.93,1.93,0,0,0,1.93,1.94H107.2c24,0,36.59-10.32,36.59-30.5,0-19.7-16-24.25-16-24.25Z" transform="translate(-7.85 -7.52)"/><path id="Fill-7" class="cls-3" d="M208.94,289.47H178.83a1.94,1.94,0,0,1-1.94-1.94v-27a1.94,1.94,0,0,1,1.94-1.94h30.11c14.36,0,20.77,4.07,20.77,15.43S223.44,289.47,208.94,289.47Zm-30.09-72.21h29.69c11,0,16.52,4.68,16.52,13.31s-5.55,13.31-16.52,13.31H178.85a1.94,1.94,0,0,1-1.94-1.94V219.19A1.93,1.93,0,0,1,178.85,217.26Zm51.7,32.2c7-3.48,11.32-11,11.32-20.33,0-15.82-12.34-26.57-29.77-26.57H162a1.94,1.94,0,0,0-1.93,1.94v97.77a1.94,1.94,0,0,0,1.93,1.94h47.88c24,0,36.59-10.32,36.59-30.5,0-19.7-15.95-24.25-15.95-24.25Z" transform="translate(-7.85 -7.52)"/></g></svg>