<svg id="Capa_1" data-name="Capa 1" xmlns="http://www.w3.org/2000/svg" xmlns:xlink="http://www.w3.org/1999/xlink" viewBox="0 0 390 390"><defs><style>.cls-1{fill:#fff;}.cls-2{fill:url(#Degradado_sin_nombre_145);}.cls-3{fill:url(#Degradado_sin_nombre_145-2);}.cls-4{fill:url(#Degradado_sin_nombre_145-3);}.cls-5{fill:url(#Degradado_sin_nombre_145-4);}.cls-6{fill:url(#Degradado_sin_nombre_145-5);}.cls-7{fill:url(#Degradado_sin_nombre_145-6);}.cls-8{fill:url(#Degradado_sin_nombre_145-7);}.cls-9{fill:url(#Degradado_sin_nombre_145-8);}.cls-10{fill:url(#Degradado_sin_nombre_145-9);}.cls-11{fill:url(#Degradado_sin_nombre_145-10);}.cls-12{fill:url(#Degradado_sin_nombre_145-11);}.cls-13{fill:url(#Degradado_sin_nombre_145-12);}.cls-14{fill:url(#Degradado_sin_nombre_145-13);}.cls-15{fill:url(#Degradado_sin_nombre_145-14);}.cls-16{fill:url(#Degradado_sin_nombre_145-15);}.cls-17{fill:url(#Degradado_sin_nombre_145-16);}.cls-18{fill:url(#Degradado_sin_nombre_145-17);}.cls-19{fill:url(#Degradado_sin_nombre_145-18);}.cls-20{fill:url(#Degradado_sin_nombre_145-19);}.cls-21{fill:url(#Degradado_sin_nombre_145-20);}.cls-22{fill:url(#Degradado_sin_nombre_145-21);}.cls-23{fill:url(#Degradado_sin_nombre_145-22);}.cls-24{fill:url(#Degradado_sin_nombre_145-23);}.cls-25{fill:url(#Degradado_sin_nombre_145-24);}.cls-26{fill:url(#Degradado_sin_nombre_145-25);}.cls-27{fill:url(#Degradado_sin_nombre_145-26);}.cls-28{fill:url(#Degradado_sin_nombre_145-27);}.cls-29{fill:url(#Degradado_sin_nombre_145-28);}.cls-30{fill:url(#Degradado_sin_nombre_145-29);}.cls-31{fill:url(#Degradado_sin_nombre_145-30);}.cls-32{fill:url(#Degradado_sin_nombre_145-31);}.cls-33{fill:#be0811;}.cls-34{fill:#001d7e;}</style><linearGradient id="Degradado_sin_nombre_145" x1="300.7" y1="579.31" x2="305.09" y2="194.21" gradientUnits="userSpaceOnUse"><stop offset="0.07" stop-color="#be0811"/><stop offset="0.08" stop-color="#c31a22"/><stop offset="0.11" stop-color="#cf494f"/><stop offset="0.14" stop-color="#e39498"/><stop offset="0.18" stop-color="#fefafa"/><stop offset="0.18" stop-color="#fff"/><stop offset="0.21" stop-color="#eebec1"/><stop offset="0.26" stop-color="#d45d63"/><stop offset="0.3" stop-color="#c42028"/><stop offset="0.32" stop-color="#be0811"/><stop offset="0.36" stop-color="#ce444b"/><stop offset="0.42" stop-color="#e39497"/><stop offset="0.47" stop-color="#f2cecf"/><stop offset="0.51" stop-color="#fbf1f2"/><stop offset="0.53" stop-color="#fff"/><stop offset="0.54" stop-color="#f9e9ea"/><stop offset="0.56" stop-color="#ecb5b8"/><stop offset="0.59" stop-color="#df878b"/><stop offset="0.61" stop-color="#d56066"/><stop offset="0.64" stop-color="#cd4047"/><stop offset="0.67" stop-color="#c6272f"/><stop offset="0.7" stop-color="#c2161e"/><stop offset="0.73" stop-color="#bf0b14"/><stop offset="0.76" stop-color="#be0811"/></linearGradient><linearGradient id="Degradado_sin_nombre_145-2" x1="305.97" y1="579.37" x2="310.36" y2="194.27" xlink:href="#Degradado_sin_nombre_145"/><linearGradient id="Degradado_sin_nombre_145-3" x1="291.7" y1="579.21" x2="296.08" y2="194.1" xlink:href="#Degradado_sin_nombre_145"/><linearGradient id="Degradado_sin_nombre_145-4" x1="292.81" y1="579.22" x2="297.2" y2="194.12" xlink:href="#Degradado_sin_nombre_145"/><linearGradient id="Degradado_sin_nombre_145-5" x1="288.31" y1="579.17" x2="292.7" y2="194.07" xlink:href="#Degradado_sin_nombre_145"/><linearGradient id="Degradado_sin_nombre_145-6" x1="373.94" y1="580.15" x2="378.33" y2="195.04" xlink:href="#Degradado_sin_nombre_145"/><linearGradient id="Degradado_sin_nombre_145-7" x1="340.75" y1="579.77" x2="345.14" y2="194.66" xlink:href="#Degradado_sin_nombre_145"/><linearGradient id="Degradado_sin_nombre_145-8" x1="318.12" y1="579.51" x2="322.51" y2="194.41" xlink:href="#Degradado_sin_nombre_145"/><linearGradient id="Degradado_sin_nombre_145-9" x1="363.3" y1="580.02" x2="367.69" y2="194.92" xlink:href="#Degradado_sin_nombre_145"/><linearGradient id="Degradado_sin_nombre_145-10" x1="363.4" y1="580.03" x2="367.79" y2="194.92" xlink:href="#Degradado_sin_nombre_145"/><linearGradient id="Degradado_sin_nombre_145-11" x1="378.71" y1="580.2" x2="383.1" y2="195.1" xlink:href="#Degradado_sin_nombre_145"/><linearGradient id="Degradado_sin_nombre_145-12" x1="181.86" y1="415.01" x2="186.25" y2="29.9" xlink:href="#Degradado_sin_nombre_145"/><linearGradient id="Degradado_sin_nombre_145-13" x1="196.85" y1="415.18" x2="201.24" y2="30.08" xlink:href="#Degradado_sin_nombre_145"/><linearGradient id="Degradado_sin_nombre_145-14" x1="344.4" y1="579.81" x2="348.79" y2="194.7" xlink:href="#Degradado_sin_nombre_145"/><linearGradient id="Degradado_sin_nombre_145-15" x1="394.22" y1="580.38" x2="398.61" y2="195.27" xlink:href="#Degradado_sin_nombre_145"/><linearGradient id="Degradado_sin_nombre_145-16" x1="344.42" y1="579.81" x2="348.81" y2="194.71" xlink:href="#Degradado_sin_nombre_145"/><linearGradient id="Degradado_sin_nombre_145-17" x1="377.14" y1="580.18" x2="381.53" y2="195.08" xlink:href="#Degradado_sin_nombre_145"/><linearGradient id="Degradado_sin_nombre_145-18" x1="323.13" y1="579.57" x2="327.52" y2="194.46" xlink:href="#Degradado_sin_nombre_145"/><linearGradient id="Degradado_sin_nombre_145-19" x1="371.98" y1="580.12" x2="376.37" y2="195.02" xlink:href="#Degradado_sin_nombre_145"/><linearGradient id="Degradado_sin_nombre_145-20" x1="177.2" y1="414.96" x2="181.58" y2="29.85" xlink:href="#Degradado_sin_nombre_145"/><linearGradient id="Degradado_sin_nombre_145-21" x1="322.64" y1="579.56" x2="327.03" y2="194.46" xlink:href="#Degradado_sin_nombre_145"/><linearGradient id="Degradado_sin_nombre_145-22" x1="200.75" y1="415.22" x2="205.13" y2="30.12" xlink:href="#Degradado_sin_nombre_145"/><linearGradient id="Degradado_sin_nombre_145-23" x1="185.29" y1="415.05" x2="189.68" y2="29.94" xlink:href="#Degradado_sin_nombre_145"/><linearGradient id="Degradado_sin_nombre_145-24" x1="329.07" y1="579.63" x2="333.46" y2="194.53" xlink:href="#Degradado_sin_nombre_145"/><linearGradient id="Degradado_sin_nombre_145-25" x1="346.15" y1="579.83" x2="350.54" y2="194.72" xlink:href="#Degradado_sin_nombre_145"/><linearGradient id="Degradado_sin_nombre_145-26" x1="334.44" y1="579.7" x2="338.83" y2="194.59" xlink:href="#Degradado_sin_nombre_145"/><linearGradient id="Degradado_sin_nombre_145-27" x1="383.53" y1="580.26" x2="387.92" y2="195.15" xlink:href="#Degradado_sin_nombre_145"/><linearGradient id="Degradado_sin_nombre_145-28" x1="350.37" y1="579.88" x2="354.76" y2="194.77" xlink:href="#Degradado_sin_nombre_145"/><linearGradient id="Degradado_sin_nombre_145-29" x1="191.78" y1="415.12" x2="196.17" y2="30.02" xlink:href="#Degradado_sin_nombre_145"/><linearGradient id="Degradado_sin_nombre_145-30" x1="191.1" y1="415.11" x2="195.49" y2="30.01" xlink:href="#Degradado_sin_nombre_145"/><linearGradient id="Degradado_sin_nombre_145-31" x1="191.4" y1="415.12" x2="195.79" y2="30.01" xlink:href="#Degradado_sin_nombre_145"/></defs><title>ico-brartnet</title><rect class="cls-1" width="390" height="390" rx="33.11"/><path class="cls-2" d="M301.81,470.42l.26-.79A4.56,4.56,0,0,0,301.81,470.42Z" transform="translate(-172.75 -164.92)"/><path class="cls-3" d="M304.25,475l4.05,1.63L312.78,463l-8.89,4.65a4,4,0,0,0-1.82,2l-.26.79a3.94,3.94,0,0,0-.09,1A4,4,0,0,0,304.25,475Z" transform="translate(-172.75 -164.92)"/><path class="cls-4" d="M289.65,531.16a4.26,4.26,0,0,1-1.51.29,4,4,0,0,1-1.52-7.8l7.16-2.88,14.52-44.19L304.25,475a4,4,0,0,1-2.53-3.56,3.94,3.94,0,0,1,.09-1l-25,76a4,4,0,0,0,2.58,5.1,3.85,3.85,0,0,0,1.29.19q3.8-9.75,9-20.63Z" transform="translate(-172.75 -164.92)"/><path class="cls-5" d="M291.67,527.2c.73-1.48,1.44-2.94,2.21-4.45.44-.86.9-1.71,1.35-2.57l-1.45.59Z" transform="translate(-172.75 -164.92)"/><path class="cls-6" d="M293.78,520.77l-7.16,2.88a4,4,0,0,0,1.52,7.8,4.26,4.26,0,0,0,1.51-.29l.08,0c.62-1.29,1.28-2.61,1.94-3.92Z" transform="translate(-172.75 -164.92)"/><path class="cls-7" d="M355.05,324.58l2.65,1.73,8.95-27.24,9,27.21,2.6-1.7a4,4,0,1,1,4.42,6.78l-4.41,2.87,2.28,6.95,9.58,6.24a4,4,0,0,1-.16,6.88l-4.28,2.51,5.29,16.09,9.24,5.43a4,4,0,0,1-.33,7.15l-1.35.63h5.3l-30.08-91.5a10.88,10.88,0,0,1-14.09,0l-10.4,31.61c.08-.15.15-.31.24-.46A4,4,0,0,1,355.05,324.58Z" transform="translate(-172.75 -164.92)"/><path class="cls-8" d="M333.09,378.33l9.31-5.47,5.26-16-4.32-2.54a4,4,0,0,1-.16-6.88l9.65-6.29,2.26-6.87-4.46-2.9a4,4,0,0,1-1.78-4l-17.36,52.82A4,4,0,0,1,333.09,378.33Z" transform="translate(-172.75 -164.92)"/><path class="cls-9" d="M303.89,467.61l8.89-4.65L326,422.72l-4.23-2.21a4.05,4.05,0,0,1,.15-7.25l8.51-4,7.16-21.8-4.18-2a3.91,3.91,0,0,1-2.23-4.41l-29.12,88.56A4,4,0,0,1,303.89,467.61Z" transform="translate(-172.75 -164.92)"/><path class="cls-10" d="M366.65,282.08a4.05,4.05,0,0,1,3.85,2.78l3.2,9.75a11.09,11.09,0,1,0-14.09,0l3.2-9.75A4.05,4.05,0,0,1,366.65,282.08Z" transform="translate(-172.75 -164.92)"/><path class="cls-11" d="M373.7,294.61l-3.2-9.75a4,4,0,0,0-7.69,0l-3.2,9.75a10.88,10.88,0,0,0,14.09,0Z" transform="translate(-172.75 -164.92)"/><path class="cls-12" d="M366.63,368l22.83,13.43-22.83,10.77,9.48,4.47,16.56-7.8c.93-.78,1.84-1.54,2.75-2.27l-4.5-13.69-16.32-9.6Z" transform="translate(-172.75 -164.92)"/><polygon class="cls-13" points="193.87 193.69 180.31 185.72 193.87 176.87 186.47 172.04 180.08 176.21 174.91 191.93 185.89 198.38 193.87 193.69"/><polygon class="cls-14" points="201.28 172.04 205.46 169.32 202.84 161.36 193.87 167.21 201.28 172.04"/><path class="cls-15" d="M353.79,430.33c.43-.53.85-1,1.27-1.56l-22.31-11.66,33.88-16-9.49-4.47-26.7,12.59L326,422.72l23.93,12.51C351.23,433.58,352.51,431.93,353.79,430.33Z" transform="translate(-172.75 -164.92)"/><path class="cls-16" d="M402.15,382a4,4,0,0,0-2-3.67l-9.24-5.43,4.5,13.69.6-.48h2.46l1.35-.63A4.05,4.05,0,0,0,402.15,382Z" transform="translate(-172.75 -164.92)"/><path class="cls-17" d="M343.18,347.42a4,4,0,0,0,.16,6.88l4.32,2.54,5.17-15.71Z" transform="translate(-172.75 -164.92)"/><path class="cls-18" d="M382.62,331.36a4,4,0,1,0-4.42-6.78l-2.6,1.7,2.61,8Z" transform="translate(-172.75 -164.92)"/><path class="cls-19" d="M321.93,413.26a4.05,4.05,0,0,0-.15,7.25l4.23,2.21,4.43-13.47Z" transform="translate(-172.75 -164.92)"/><path class="cls-20" d="M366.63,401.13l8.84,4.18a3.07,3.07,0,0,1,.25-.26c1.94-2.06,3.85-4,5.72-5.87l-5.33-2.52Z" transform="translate(-172.75 -164.92)"/><polygon class="cls-21" points="193.87 227.27 171.04 216.51 193.87 203.08 185.89 198.38 169.65 207.94 164.85 222.53 184.39 231.75 193.87 227.27"/><path class="cls-22" d="M339.63,448.93l-26.85,14-4.48,13.62,9.87,4c1.46-2.31,2.95-4.62,4.45-6.92l-7.22-2.92,14.09-7.36,2.38-3.51C334.45,456.12,337,452.5,339.63,448.93Z" transform="translate(-172.75 -164.92)"/><polygon class="cls-23" points="193.87 176.87 207.43 185.72 193.87 193.69 201.85 198.38 212.88 191.9 207.74 176.26 201.28 172.04 193.87 176.87"/><polygon class="cls-24" points="193.87 167.21 184.95 161.39 182.33 169.35 186.47 172.04 193.87 167.21"/><path class="cls-25" d="M331.19,381.07l.3-.93A3.75,3.75,0,0,0,331.19,381.07Z" transform="translate(-172.75 -164.92)"/><path class="cls-26" d="M348.85,327.32l.36-1.1A4.05,4.05,0,0,0,348.85,327.32Z" transform="translate(-172.75 -164.92)"/><path class="cls-27" d="M333.42,385.48l4.18,2,4.8-14.59-9.31,5.47a4,4,0,0,0-1.6,1.81l-.3.93a3.91,3.91,0,0,0,2.23,4.41Z" transform="translate(-172.75 -164.92)"/><path class="cls-28" d="M389.91,354.3a4,4,0,0,0,.16-6.88l-9.58-6.24,5.14,15.63Z" transform="translate(-172.75 -164.92)"/><path class="cls-29" d="M350.63,331.36l4.46,2.9,2.61-7.95-2.65-1.73a4,4,0,0,0-5.6,1.18c-.09.15-.16.31-.24.46l-.36,1.1A4,4,0,0,0,350.63,331.36Z" transform="translate(-172.75 -164.92)"/><polygon class="cls-30" points="184.39 231.75 193.87 236.22 203.36 231.75 193.87 227.27 184.39 231.75"/><polygon class="cls-31" points="193.87 167.21 186.47 172.04 193.87 176.87 201.28 172.04 193.87 167.21"/><polygon class="cls-32" points="193.87 193.69 185.89 198.38 193.87 203.08 201.85 198.38 193.87 193.69"/><path class="cls-33" d="M438.62,472.91a379.94,379.94,0,0,0-4.11-43.72,258.57,258.57,0,0,0-10.34-43.1H396l-.59.49c-.91.72-1.83,1.48-2.76,2.26q-5.4,4.55-11.22,10.32c-1.88,1.86-3.79,3.81-5.73,5.87l-.24.26q-10.1,10.69-20.41,23.47c-.42.52-.85,1-1.27,1.55-1.29,1.61-2.57,3.25-3.85,4.9q-5.19,6.65-10.31,13.7c-2.6,3.57-5.19,7.19-7.76,10.92-.81,1.17-1.59,2.34-2.39,3.51q-3.5,5.13-6.86,10.28c-1.51,2.3-3,4.61-4.46,6.92-2.28,3.6-4.53,7.2-6.72,10.8q-8.81,14.52-16.22,28.82c-.44.86-.9,1.72-1.34,2.57-.77,1.51-1.48,3-2.22,4.45-.65,1.31-1.31,2.63-1.94,3.92q-5.24,10.88-9,20.63v0l30.39.25q4.23-9.72,8.59-17.81t10.59-18.31l23.42.25A37.45,37.45,0,0,0,364,514.88a26.94,26.94,0,0,0,8.35-4.11,47,47,0,0,0,6.49-5.75c.58-.6,1.15-1.2,1.73-1.85,1.21-1.34,2.54-2.9,4-4.58,1.9-2.25,4-4.77,6.25-7.62h-1.57l-21.91.11H366l-21.36.11h-1.9l.4-.62q2-3.15,4.38-7c1.18-1.92,2.4-3.94,3.69-6.12q4.74-8,10.47-16.94c3-4.71,6.23-9.45,9.65-14.21.92-1.28,1.85-2.57,2.8-3.85.69-.93,1.39-1.82,2.08-2.73.37-.47.73-1,1.1-1.43a163.9,163.9,0,0,1,11-12.66q.69,3.06,1.3,6.22,1.51,7.79,2.57,16.23c.4,3.16.75,6.38,1.05,9.68q1,10.67,1.32,22.28c0,1.25.09,2.49.11,3.76,0,1.63,0,3.26.05,4.9q.06,6.9-.1,13.88-.11,4.29-.28,8.61-.81,19.68-3.28,40l44.09.5c.75-7.27,1.42-15,2-23.21.21-2.78.41-5.6.6-8.48.09-1.3.18-2.59.26-3.9,0-.52.07-1,.1-1.53.44-7.13.68-14.41.75-21.8Q439,483,438.62,472.91Z" transform="translate(-172.75 -164.92)"/><path class="cls-34" d="M405.18,330.06a47.31,47.31,0,1,0-74.86,0l5.58-17a33.61,33.61,0,0,1-2.18-11.86,34,34,0,1,1,65.89,11.86Z" transform="translate(-172.75 -164.92)"/><path class="cls-34" d="M443.09,301.23a75.34,75.34,0,1,0-122.57,58.64L325,346.14a62.06,62.06,0,1,1,85.44,0L415,359.87A75.21,75.21,0,0,0,443.09,301.23Z" transform="translate(-172.75 -164.92)"/><path class="cls-34" d="M302.73,414,307,401.11a117,117,0,1,1,121.58,0L432.78,414A130.28,130.28,0,0,0,498,301.23C498,229.42,439.56,171,367.75,171a130.19,130.19,0,0,0-65,243Z" transform="translate(-172.75 -164.92)"/><path class="cls-34" d="M471.32,301.23a103.57,103.57,0,1,0-160,86.76l4.31-13.13a90.29,90.29,0,1,1,104.32,0L424.23,388A103.57,103.57,0,0,0,471.32,301.23Z" transform="translate(-172.75 -164.92)"/></svg>