<svg id="Capa_1" data-name="Capa 1" xmlns="http://www.w3.org/2000/svg" viewBox="0 0 570.64 725.8"><defs><style>.cls-1{fill:#fafcf9;}.cls-2{fill:#fefefe;}.cls-3{fill:#85c456;}.cls-4{fill:#14abe3;}.cls-5{fill:#84c455;}</style></defs><path class="cls-1" d="M572.24,18c-6.16,6.48-19.2,6.48-27,0Z" transform="translate(-112.36 -18)"/><path class="cls-2" d="M621.19,323.61c2.6,1.3,5.18,3.15,5.8,6.06s-2.14,3.68-4.34,3.48c-3.38-.31-5.33-2.47-5-6C617.83,325.3,618.71,323.63,621.19,323.61Z" transform="translate(-112.36 -18)"/><path class="cls-3" d="M680.31,342.68c-1.31-7.68-17.39-28.4-33.07-37.2A70.25,70.25,0,0,0,632,299c-3,3-6.24,5.54-10,9-3,3,.59,4.57,3,6.62,3.12,2.68,6.65,4.88,9.79,7.58,19.47,16.71,22.41,33.44,9.75,55.79-14.58,25.74-36.82,43.94-60,61.22-19,14.15-40.11,24.87-60.61,36.54-1.16.86-2.34,1.69-3.52,2.49C516,481,506.72,485.74,505,486c-19.36,10-40.55,15.53-60.68,23.7-31.37,12.74-63.71,22.12-96.69,29.52-44.37,10-89,16.43-134.65,12.09-17.06-1.62-33.4-4.93-48.33-13.56-9.88-5.71-16-13.87-18.7-25.39C137,474,160.51,438.5,177,428c1.49,4.09,0,25.63,0,29.69.08,18,0,36,.07,54.06,0,7,1.05,13.9,8.4,17,8.67,3.68,17.78,6,27.33,5.82,6.74-.12,10.64-3.46,10.75-10.32.44-28.52.62-57-.11-85.56-.17-6.53-4.05-10.19-10.5-11.24-9.27-1.49-18.44-3.5-27.58-5.63a17,17,0,0,0-14.88,3.24c-22.56,17.34-42.33,36.93-52.91,64.27-14.45,37.36,2.68,69.47,32.8,87.59,16.62,10,35.14,16.3,54.11,20.79,31.09,5.69,62.5,5.11,93.92,4.77,39.74-4.59,79.2-10.57,117.35-23.2,2.65-1.17,5.31-2.28,8-3.35a69.59,69.59,0,0,0,24.74-8.39c2.14-.61,4.28-1.21,6.43-1.78,6.32-2.16,12.36-5.07,18.82-6.8s12.4-5.14,18.45-8c32.72-15.43,64.83-32,94.28-53.2,6.58-7.41,16.37-11.24,22-19.73C619.88,467.44,631.5,457,642,445.34,668.21,416.07,691,377,680.31,342.68Z" transform="translate(-112.36 -18)"/><path class="cls-3" d="M540.52,400.75h-.06c0,11.24.07,22.48,0,33.71-.07,7.08,2.32,9.09,8.57,4.77,9.2-6.37,18.5-12.61,27.74-18.92,3.68-2.51,5.26-5.91,5.24-10.48q-.13-32.59.15-65.17c.06-6.74-2.2-6.9-7.22-3.67-7.21,4.65-14.45,9.38-22.16,13.07-9.61,4.6-13.84,11.05-12.43,22C541.36,384.16,540.52,392.51,540.52,400.75Z" transform="translate(-112.36 -18)"/><path class="cls-1" d="M644.35,362.77V342.49C652,349.25,649.91,356,644.35,362.77Z" transform="translate(-112.36 -18)"/><path class="cls-1" d="M630.82,387.56c-.63-7.57.44-8.43,11.28-9C640.47,384.22,632.45,381.89,630.82,387.56Z" transform="translate(-112.36 -18)"/><path class="cls-4" d="M680.29,162.24h0C679.47,151.33,677,145,668,134h0c-3-3-5.59-6-8.94-8.42C647,117,635,111,610,106c-4.53-.91-14-2-25-3-1.92-2.16-2.59-8.42-3.18-16.13-1.93-25.49-16.24-39.49-35.47-39.46q-165.33.23-330.66,0c-6.83,0-13.5.72-18.41,6.38h0c-13.58,8.35-17.33,21.51-17.35,36.25q-.13,72,0,143.91h0c-1.3.31-9.4,6.72-12.41,9.27-9.86,8.36-15.52,14.77-27.46,27.2h0c-17.48,20.09-27.81,42.56-23.07,70,2.7,15.56,12.42,27,22.67,38,16.93,16.65,39,24,60.89,28.51,19.81,4.06,40.16,5.17,61,6.51C333,418,465,379,529.42,342.56c4.74-2.95,9.46-5.93,14.22-8.85,22.47-13.8,45.55-26.74,64.67-45.31a125.36,125.36,0,0,0,36.24-35.87.19.19,0,0,0,0,.08c10.74-8.3,17.39-19.54,22.72-31.72h0C679.13,203,683.33,183.42,680.29,162.24ZM339.07,90.14q21.32,0,42.63,0V90.1c13.84,0,27.68,0,41.52,0,3.8,0,8.27.09,8.35,5.19.07,4.76-4.17,5.92-8,5.93q-42.65.12-85.28-.12c-3.47,0-7.33-1-7.26-5.27C331.11,91.1,335,90.13,339.07,90.14ZM651.37,178c-14.07,29.67-36.69,51.68-62.92,70.51-44.19,31.72-92.52,55.41-143.31,74.39-1.7.55-3.39,1.14-5.07,1.74C397,345,292.88,364.8,291.21,365.26q-16,1-31.92,2.08c-25.45,1.73-50.55-.49-75.42-5.44-1.64-.59-3.28-1.2-4.9-1.83-11.26-8.76-25.25-14.15-33.24-26.94-2.46-6.49-4.67-13-4.73-19.13.79-10.59,2-14,5-25,1-4,6.74-16.05,9-19,8-15,18.17-29.48,25-34,0,4-3,27.07-3,30.67.06,18.4-.07,36.79.06,55.18s17.17,28.56,34.24,20.63c.14,0,.27.09.41.12C220,339,223.84,330.52,223.84,326c0-55-.12-109.93.12-164.89.06-12.48,1.51-24.8,14-32.12,5.78-3.12,12-3.89,18.49-3.89q125.45,0,250.89.07c15.06,0,24.43,7.69,28.17,22.28,1.79,7,1.7,14.12,1.72,21.24.09,24.38-.46,48.76.27,73.13.37,12.57,6.06,15.63,16.7,9.53a231.1,231.1,0,0,0,21.7-14.07c5.11-3.76,8.51-8.58,8.57-15.07.32-36.46,1.1-80.79.56-117.25a168.32,168.32,0,0,1,22,5c22.88,8,30.3,12.69,43,35,.87.89,4,10,4,16C654.57,166.66,652.56,176.65,651.37,178Z" transform="translate(-112.36 -18)"/><path class="cls-5" d="M584,583.64c-.2-15.93-.35-31.85-.66-47.78-.06-3.19,1.38-10.19-2.36-9.05-4,1.19-8,4.19-13,7.19-7.48,4.19-10.91,6.31-18.6,10.08-7,3.45-9.22,8.45-9,16.21.49,23.27.1,46.55.23,69.83a62.88,62.88,0,0,1-3,19.91c-4.19,12.84-12.26,19.2-25.85,19.23-86.35.15-172.7,0-259,.22-14.28,0-23.15-6.76-28.2-19.57A39,39,0,0,1,222.09,629c.91-6-1.76-9.31-8.05-10.84-9-2.2-17-3.2-26.48-4.94-5.26-1-7.91,0-7.87,5.8.19,30-.58,60.1.75,90.08.88,20,16,34.54,33.44,34.56q167.27.21,334.52,0c10.23,0,18.8-3.74,24.19-13h0c10.4-8.23,10.24-20.25,10.57-31.64.68-24.21.59-48.45.81-72.67A317.65,317.65,0,0,1,584,583.64ZM380.5,731A23.5,23.5,0,1,1,404,707.5,23.5,23.5,0,0,1,380.5,731Z" transform="translate(-112.36 -18)"/></svg>