<svg id="Capa_1" data-name="Capa 1" xmlns="http://www.w3.org/2000/svg" xmlns:xlink="http://www.w3.org/1999/xlink" viewBox="0 0 1479.75 918.64"><defs><style>.cls-1,.cls-10,.cls-48,.cls-64{fill:none;}.cls-2{opacity:0.12;fill:url(#Degradado_sin_nombre_2);}.cls-10,.cls-2,.cls-20,.cls-23,.cls-28,.cls-31,.cls-35,.cls-36,.cls-41,.cls-52,.cls-57{isolation:isolate;}.cls-3{fill:url(#Degradado_sin_nombre_4);}.cls-4{fill:url(#Degradado_sin_nombre_4-2);}.cls-5{fill:url(#Degradado_sin_nombre_4-3);}.cls-20,.cls-23,.cls-31,.cls-52,.cls-6{opacity:0.2;}.cls-7{fill:#8ca4d4;}.cls-8{fill:#123584;}.cls-9{fill:url(#Degradado_sin_nombre_5);}.cls-10{stroke:#8ca4d4;stroke-width:5px;stroke-dasharray:5 20;}.cls-10,.cls-47,.cls-64{stroke-linecap:round;}.cls-10,.cls-35,.cls-47,.cls-48,.cls-57{stroke-miterlimit:10;}.cls-10,.cls-41,.cls-57{opacity:0.5;}.cls-11{fill:url(#Degradado_sin_nombre_6);}.cls-12{fill:#e1a846;}.cls-13{fill:#e6b052;}.cls-14{fill:url(#Degradado_sin_nombre_7);}.cls-15{fill:url(#Degradado_sin_nombre_8);}.cls-16{fill:url(#Degradado_sin_nombre_9);}.cls-17{fill:#94b0d7;}.cls-18{fill:url(#Degradado_sin_nombre_10);}.cls-19{clip-path:url(#clip-path);}.cls-20{fill:#3d82f0;}.cls-21{fill:url(#Degradado_sin_nombre_11);}.cls-22{clip-path:url(#clip-path-2);}.cls-23{fill:#617fc8;}.cls-24{fill:url(#Degradado_sin_nombre_23);}.cls-25{fill:url(#Degradado_sin_nombre_13);}.cls-26{fill:url(#Degradado_sin_nombre_14);}.cls-27{clip-path:url(#clip-path-3);}.cls-28,.cls-36{opacity:0.3;}.cls-28{fill:url(#Degradado_sin_nombre_15);}.cls-29{fill:url(#Degradado_sin_nombre_16);}.cls-30{clip-path:url(#clip-path-4);}.cls-31{fill:#7890cb;}.cls-32{fill:#fff;}.cls-33{fill:url(#Degradado_sin_nombre_17);}.cls-34{clip-path:url(#clip-path-5);}.cls-35{stroke:#d9e8ff;}.cls-35,.cls-48{stroke-width:4px;}.cls-35,.cls-62{opacity:0.6;}.cls-36,.cls-43{fill:#ccdffd;}.cls-37{fill:url(#Degradado_sin_nombre_18);}.cls-38{fill:url(#Degradado_sin_nombre_19);}.cls-39{fill:url(#Degradado_sin_nombre_20);}.cls-40{clip-path:url(#clip-path-6);}.cls-41{fill:#6b84c2;}.cls-42{fill:url(#Degradado_sin_nombre_21);}.cls-44{fill:url(#Degradado_sin_nombre_22);}.cls-45{fill:url(#Degradado_sin_nombre_23-2);}.cls-46{fill:#143b8c;}.cls-47,.cls-48{stroke:#143b8c;}.cls-47,.cls-57{stroke-width:3px;}.cls-49{clip-path:url(#clip-path-7);}.cls-50{fill:#eef5ff;}.cls-51{fill:url(#Degradado_sin_nombre_24);}.cls-52{fill:#bbcff2;}.cls-53{fill:url(#Degradado_sin_nombre_25);}.cls-54{fill:url(#Degradado_sin_nombre_26);}.cls-55{fill:url(#Degradado_sin_nombre_29);}.cls-56{clip-path:url(#clip-path-8);}.cls-57{stroke:#489c71;}.cls-58{fill:url(#Degradado_sin_nombre_29-2);}.cls-59{clip-path:url(#clip-path-9);}.cls-60{fill:url(#Degradado_sin_nombre_29-3);}.cls-61{clip-path:url(#clip-path-10);}.cls-63{fill:url(#Degradado_sin_nombre_30);}.cls-64{stroke:#fff;stroke-linejoin:round;stroke-width:6px;}.cls-65{fill:#4f4f51;}.cls-66{fill:#fefdfe;}.cls-67{fill:#fefefe;}.cls-68{fill:#adacb3;}.cls-69{fill:#aeadb2;}</style><linearGradient id="Degradado_sin_nombre_2" x1="453.71" y1="489.63" x2="453.97" y2="488.55" gradientTransform="translate(-641583.99 -422681.31) scale(1416.05 865.16)" gradientUnits="userSpaceOnUse"><stop offset="0" stop-color="#ecf2fc"/><stop offset="1" stop-color="#b9cff7"/></linearGradient><linearGradient id="Degradado_sin_nombre_4" x1="450.87" y1="485.76" x2="451.41" y2="486.66" gradientTransform="translate(-44470.39 -47753.15) scale(102 99)" gradientUnits="userSpaceOnUse"><stop offset="0" stop-color="#acd6ff" stop-opacity="0.15"/><stop offset="1" stop-color="#96accb" stop-opacity="0.46"/></linearGradient><linearGradient id="Degradado_sin_nombre_4-2" x1="451.56" y1="486.55" x2="452.1" y2="487.45" gradientTransform="translate(-58896.3 -62877.44) scale(134 130)" xlink:href="#Degradado_sin_nombre_4"/><linearGradient id="Degradado_sin_nombre_4-3" x1="451.56" y1="486.55" x2="452.1" y2="487.45" gradientTransform="translate(-58977.3 -62790.44) scale(134 130)" xlink:href="#Degradado_sin_nombre_4"/><linearGradient id="Degradado_sin_nombre_5" x1="-938.03" y1="919.8" x2="-938.6" y2="919.11" gradientTransform="translate(188402.33 -133618.1) scale(199 146)" gradientUnits="userSpaceOnUse"><stop offset="0" stop-color="#367ed7"/><stop offset="1" stop-color="#153d8e"/></linearGradient><linearGradient id="Degradado_sin_nombre_6" x1="-745.84" y1="877.68" x2="-744.78" y2="877.53" gradientTransform="translate(94576.54 -96872.65) scale(124.99 111)" gradientUnits="userSpaceOnUse"><stop offset="0" stop-color="#fdae6b"/><stop offset="1" stop-color="#fae539"/></linearGradient><radialGradient id="Degradado_sin_nombre_7" cx="279.32" cy="681.22" r="0.85" gradientTransform="translate(-114626.79 -55622.48) scale(413 83)" gradientUnits="userSpaceOnUse"><stop offset="0"/><stop offset="1" stop-color="#2062e7"/></radialGradient><radialGradient id="Degradado_sin_nombre_8" cx="279.44" cy="684.89" r="0.41" gradientTransform="translate(-161377.05 -372238.52) scale(579.87 544.46)" gradientUnits="userSpaceOnUse"><stop offset="0" stop-color="#62abfb"/><stop offset="1" stop-color="#1440c0"/></radialGradient><radialGradient id="Degradado_sin_nombre_9" cx="279.49" cy="684.57" r="0.53" gradientTransform="translate(-144734.04 -297871.68) scale(520.54 435.89)" gradientUnits="userSpaceOnUse"><stop offset="0" stop-color="#f4f8ff"/><stop offset="1" stop-color="#89b1e9"/></radialGradient><linearGradient id="Degradado_sin_nombre_10" x1="-468.85" y1="1304.34" x2="-469.13" y2="1305.32" gradientTransform="translate(70449.63 -86706.48) scale(147.76 67.19)" gradientUnits="userSpaceOnUse"><stop offset="0" stop-color="#9abfff"/><stop offset="1" stop-color="#5b87d2"/></linearGradient><clipPath id="clip-path" transform="translate(-278.56 -90.44)"><path id="SVGID" class="cls-1" d="M1086.36,958.51c-2-9-5-15.7-2-27.9s37.2-19,41.5-15.2,3.6,6,20.7,15.1,66.2,19.7,76.6,31.4,12.5,19.6-9.4,19.6h-67.5c-12.1-4.4-16.2-6.8-23-10.8a18.71,18.71,0,0,0,0,9.4h-29.1C1094.36,980.21,1088.26,967.51,1086.36,958.51Z"/></clipPath><linearGradient id="Degradado_sin_nombre_11" x1="-510.1" y1="1028.34" x2="-510.27" y2="1029.34" gradientTransform="translate(70037.01 -90602.39) scale(134.95 88.73)" gradientUnits="userSpaceOnUse"><stop offset="0" stop-color="#91baff"/><stop offset="1" stop-color="#5b87d2"/></linearGradient><clipPath id="clip-path-2" transform="translate(-278.56 -90.44)"><path id="SVGID-2" data-name="SVGID" class="cls-1" d="M1143.26,713.61c-6.4-6.1-12.4-9.8-16.6-21s19.2-35.2,24.8-34.4,6.1,2.8,24.6.8,51.5-24.6,66.2-20.9,27.9,3.8,10.6,15.5c-8.2,5.5-39.7,39.2-49.5,45.8-12,3-16.5,3.4-24.1,3.8a17.64,17.64,0,0,0,5.1,7.5l-23.1,15.7S1149.66,719.61,1143.26,713.61Z"/></clipPath><linearGradient id="Degradado_sin_nombre_23" x1="277.6" y1="683.38" x2="277.3" y2="684.02" gradientTransform="translate(-30831.92 -130723.66) scale(113.94 191.85)" gradientUnits="userSpaceOnUse"><stop offset="0" stop-color="#f5f8ff"/><stop offset="1" stop-color="#fff"/></linearGradient><linearGradient id="Degradado_sin_nombre_13" x1="277.23" y1="681.8" x2="277.85" y2="680.8" gradientTransform="translate(-33619.72 -51936.28) scale(123.85 76.84)" gradientUnits="userSpaceOnUse"><stop offset="0" stop-color="#6b86c0"/><stop offset="1" stop-color="#a1b8e3"/></linearGradient><linearGradient id="Degradado_sin_nombre_14" x1="-104.69" y1="1030.48" x2="-104.33" y2="1030.21" gradientTransform="translate(43043.99 -296600.13) scale(402.27 288.62)" gradientUnits="userSpaceOnUse"><stop offset="0" stop-color="#002383"/><stop offset="1" stop-color="#316eea"/></linearGradient><clipPath id="clip-path-3" transform="translate(-278.56 -90.44)"><path id="SVGID-3" data-name="SVGID" class="cls-1" d="M731.36,727.41c13.1-17.7,45.1-54.5,114.1-67.9s132.3-25.9,248.6,8.6c9.6,112.3,20.5,225.3,31.5,248.2-8.4,10.2-38.7,18-56.5,18-6.5-25.3-26.7-86.2-37-116.3s-13.9-67.5-11.9-80.7c-35,10-106.8,40.2-132,49.2s-111.5,37.4-140.1,14.5S718.26,745,731.36,727.41Z"/></clipPath><linearGradient id="Degradado_sin_nombre_15" x1="-107" y1="1029.43" x2="-106.5" y2="1028.82" gradientTransform="translate(12208.82 -139729.21) scale(105.27 136.47)" gradientUnits="userSpaceOnUse"><stop offset="0" stop-color="#002343"/><stop offset="1" stop-color="#1a72ff" stop-opacity="0.44"/></linearGradient><linearGradient id="Degradado_sin_nombre_16" x1="-21.61" y1="834.71" x2="-21.61" y2="835.31" gradientTransform="translate(2421.89 -109722.67) scale(80.88 132.01)" gradientUnits="userSpaceOnUse"><stop offset="0" stop-color="#6081c1"/><stop offset="1" stop-color="#90aadb"/></linearGradient><clipPath id="clip-path-4" transform="translate(-278.56 -90.44)"><path id="SVGID-4" data-name="SVGID" class="cls-1" d="M645.06,500.51c-3.5-17.4-10.2-47.9-11.5-54.4s63.4,16,63.4,16l8.1,42.7,9.3,72.2C714.36,576.91,648.46,517.91,645.06,500.51Z"/></clipPath><linearGradient id="Degradado_sin_nombre_17" x1="34.02" y1="882.54" x2="33.93" y2="882.3" gradientTransform="translate(-7850.02 -206369.95) scale(252.98 234.63)" gradientUnits="userSpaceOnUse"><stop offset="0" stop-color="#b1c2e4"/><stop offset="1" stop-color="#fff" stop-opacity="0"/></linearGradient><clipPath id="clip-path-5" transform="translate(-278.56 -90.44)"><path id="SVGID-5" data-name="SVGID" class="cls-1" d="M709.36,700.71c-9-26.7-82.6-93.5-94.5-102.9s-7.3-18.5-10.3-47.3c-2.1-20.5-13.7-38.2-13.7-46.7,0-3.5,1.9-5.5,7.2-5.5,14.4,5.4,28.4-5.6,34.7-5.6,23.1,5.7,28.3,28.4,37.9,23.7s15.7-4.8,15.7-4.8c2.2,4.5,3,12.3,5.2,16.8s11.6,13.6,15.7,22l-7.4-24.4,2-14.7-.4-25.6s24.6,4,26.3,7.1c16,11.6,31.4,46.2,37.9,64.1s19.2,36.4,30.5,50.8,16.8,17.3,31.7,28c10.1,7.2,15.9,13.4,15.9,19.2,0,2.7-1.3,5.3-4,7.8-8.4,7.9-56.9,4.8-91.4,48-14,5.7-21.5,9.8-26.4,9.8C716.36,720.31,714.16,714.91,709.36,700.71Z"/></clipPath><linearGradient id="Degradado_sin_nombre_18" x1="279.09" y1="683.8" x2="279.26" y2="684.18" gradientTransform="translate(-112275.48 -164529.29) scale(405.41 241.45)" gradientUnits="userSpaceOnUse"><stop offset="0" stop-color="#3d9bf8"/><stop offset="1" stop-color="#3b80f0"/></linearGradient><linearGradient id="Degradado_sin_nombre_19" x1="277.94" y1="682.3" x2="277.22" y2="682.68" gradientTransform="translate(-29262.49 -75027.46) scale(107.93 110.55)" gradientUnits="userSpaceOnUse"><stop offset="0" stop-color="#fff"/><stop offset="0.7" stop-color="#b8cbeb"/><stop offset="1" stop-color="#a1b8e3"/></linearGradient><linearGradient id="Degradado_sin_nombre_20" x1="144.05" y1="818.46" x2="144.17" y2="817.46" gradientTransform="translate(-21704.03 -40641.55) scale(154.42 50.24)" gradientUnits="userSpaceOnUse"><stop offset="0" stop-color="#7992c7"/><stop offset="1" stop-color="#a1b8e3"/></linearGradient><clipPath id="clip-path-6" transform="translate(-278.56 -90.44)"><path id="SVGID-6" data-name="SVGID" class="cls-1" d="M530.56,478c17.5,7.1,74.2-21.1,92.2-18.6,16.5,2.3-4.4-23.6-10.7-28.1s-130.4-2.5-136.9,7S516.06,472.11,530.56,478Z"/></clipPath><linearGradient id="Degradado_sin_nombre_21" x1="278.34" y1="683.55" x2="277.38" y2="683.86" gradientTransform="translate(-34581.13 -124898.91) scale(126.9 183.24)" gradientUnits="userSpaceOnUse"><stop offset="0" stop-color="#2669e1"/><stop offset="1" stop-color="#143b8c"/></linearGradient><linearGradient id="Degradado_sin_nombre_22" x1="274.3" y1="681.47" x2="274.56" y2="681.23" gradientTransform="translate(-13970.64 -52910.18) scale(53.3 78.41)" gradientUnits="userSpaceOnUse"><stop offset="0" stop-color="#eef5ff"/><stop offset="1" stop-color="#adc8f2"/></linearGradient><linearGradient id="Degradado_sin_nombre_23-2" x1="278.32" y1="683.06" x2="278.02" y2="683.7" gradientTransform="translate(-42520.13 -108891.98) scale(154.85 160.07)" xlink:href="#Degradado_sin_nombre_23"/><clipPath id="clip-path-7" transform="translate(-278.56 -90.44)"><path id="SVGID-7" data-name="SVGID" class="cls-1" d="M665.86,770.51c135.3,84.6,275.1,93.8,322.1,18.6,56.4-109.7-137.1-62.2-272.4-146.8s-132-155.2-225.4-188.8C443.16,528.71,530.46,685.91,665.86,770.51Z"/></clipPath><linearGradient id="Degradado_sin_nombre_24" x1="273.67" y1="677.28" x2="273.42" y2="678.28" gradientTransform="translate(-11665.77 -28321.75) scale(45.38 42.62)" gradientUnits="userSpaceOnUse"><stop offset="0" stop-color="#eef5ff"/><stop offset="1" stop-color="#d9e8ff"/></linearGradient><linearGradient id="Degradado_sin_nombre_25" x1="231.61" y1="1291.12" x2="230.89" y2="1290.62" gradientTransform="translate(-32808.59 -112648.69) scale(144 88)" gradientUnits="userSpaceOnUse"><stop offset="0" stop-color="#cee0fb"/><stop offset="1" stop-color="#e4edfb"/></linearGradient><linearGradient id="Degradado_sin_nombre_26" x1="224.78" y1="1272.41" x2="224.78" y2="1273.41" gradientTransform="translate(-28992.72 -38559.33) scale(131 31)" gradientUnits="userSpaceOnUse"><stop offset="0" stop-color="#99bae9"/><stop offset="1" stop-color="#bcd0f2"/></linearGradient><linearGradient id="Degradado_sin_nombre_29" x1="225.08" y1="1100.27" x2="225.53" y2="1101.22" gradientTransform="translate(-16905 -200639.63) scale(76.95 183)" gradientUnits="userSpaceOnUse"><stop offset="0" stop-color="#b1ffbe"/><stop offset="0.44" stop-color="#5cdb8e"/><stop offset="1" stop-color="#149654"/></linearGradient><clipPath id="clip-path-8" transform="translate(-278.56 -90.44)"><path id="SVGID-8" data-name="SVGID" class="cls-1" d="M448.06,887.41c-3.6-24.8-13.4-60.5-43-99-17.4-22.7-17.5-78-20-84,13.7,4.7,38.2,16.8,63,51C474.06,791.21,457.56,864.21,448.06,887.41Z"/></clipPath><linearGradient id="Degradado_sin_nombre_29-2" x1="273.28" y1="1188.21" x2="273.39" y2="1189.2" gradientTransform="translate(-29562.41 -140207.42) scale(109.59 118.66)" xlink:href="#Degradado_sin_nombre_29"/><clipPath id="clip-path-9" transform="translate(-278.56 -90.44)"><path id="SVGID-9" data-name="SVGID" class="cls-1" d="M448.16,912.81c-11.1-17.7-30.6-41.6-66.1-61.1-20.9-11.4-39.5-53.5-43.5-57.3,12-1,34.8,0,65.2,17.7C435.66,830.71,447.66,892,448.16,912.81Z"/></clipPath><linearGradient id="Degradado_sin_nombre_29-3" x1="157.71" y1="1177.61" x2="158.15" y2="1178.56" gradientTransform="translate(-14386.92 -154669.23) scale(94.29 132.01)" xlink:href="#Degradado_sin_nombre_29"/><clipPath id="clip-path-10" transform="translate(-278.56 -90.44)"><path id="SVGID-10" data-name="SVGID" class="cls-1" d="M456.16,915.21c8.7-19,25.1-45.4,57.9-69.3,19.3-14.1,32.4-58.4,35.9-62.7-12.1.5-34.7,4.5-62.7,26.1C458,831.91,454,894.41,456.16,915.21Z"/></clipPath><linearGradient id="Degradado_sin_nombre_30" x1="241.73" y1="558.73" x2="241.44" y2="559.31" gradientTransform="translate(-29532.02 -69076.18) scale(124)" gradientUnits="userSpaceOnUse"><stop offset="0" stop-color="#cbdaf1"/><stop offset="1" stop-color="#9cb3df"/></linearGradient></defs><title>relaxing-man</title><path id="background" class="cls-2" d="M864,860.61c-246.6,31.2-463.2-59.9-511.8-228.9-56.6-196.9,136-425.1,430.3-509.7,236.4-67.9,466.5-22.5,577.2,100.1,190.3.7,348.4,86,388.9,226.9,53.8,187.2-120.4,401.5-389.2,478.8-65.7,18.9-130.9,27.8-192.8,27.8C1045.46,955.61,937.36,921.41,864,860.61Z" transform="translate(-278.56 -90.44)"/><path id="_3" data-name=" 3" class="cls-3" d="M1525.56,332.41h63.9a7.6,7.6,0,0,1,7.6,7.6l-22.8,83.8a7.6,7.6,0,0,1-7.6,7.6h-63.9a7.6,7.6,0,0,1-7.6-7.6L1518,340A7.6,7.6,0,0,1,1525.56,332.41Z" transform="translate(-278.56 -90.44)"/><path id="_2" data-name=" 2" class="cls-4" d="M1622.06,368.41h84a10,10,0,0,1,10,10l-30,110a10,10,0,0,1-10,10h-84a10,10,0,0,1-10-10l30-110A10,10,0,0,1,1622.06,368.41Z" transform="translate(-278.56 -90.44)"/><path id="_1" data-name=" 1" class="cls-5" d="M1541.06,455.41h84a10,10,0,0,1,10,10l-30,110a10,10,0,0,1-10,10h-84a10,10,0,0,1-10-10l30-110A10,10,0,0,1,1541.06,455.41Z" transform="translate(-278.56 -90.44)"/><g id="table" class="cls-6"><path id="Rectangle_3-2" data-name="Rectangle 3-2" class="cls-7" d="M1587.06,690.31h21v272.1h-21Z" transform="translate(-278.56 -90.44)"/><path id="Rectangle_2_copy-2" data-name="Rectangle 2 copy-2" class="cls-7" d="M1517.06,962.41h161v21h-161Z" transform="translate(-278.56 -90.44)"/><path id="Rectangle_2-2" data-name="Rectangle 2-2" class="cls-7" d="M1458.06,669.41h280v21h-280Z" transform="translate(-278.56 -90.44)"/></g><path id="front" class="cls-8" d="M1541.06,669.41l29.4-145,169.6,3-29,142Z" transform="translate(-278.56 -90.44)"/><path id="bottom" class="cls-8" d="M1458.06,661.21h264v9.2h-256Z" transform="translate(-278.56 -90.44)"/><path id="Shape_9-2" data-name="Shape 9-2" class="cls-9" d="M1551.06,670l29.4-146,169.6,3-28,143Z" transform="translate(-278.56 -90.44)"/><g id="message"><path id="line" class="cls-10" d="M363.06,273.41C118.56,530.31,478,893.61,696,620.71c367.3-459.9,680.1-114.3,680.1-114.3" transform="translate(-278.56 -90.44)"/><g id="rocket"><path id="Shape_5" data-name="Shape 5" class="cls-11" d="M1357.06,550.41l20.8-27.2,67.6,42.2-51.7-59.4,25.1-23.6,63.2,111Z" transform="translate(-278.56 -90.44)"/><path id="Shape_6" data-name="Shape 6" class="cls-12" d="M1377.26,523.91l15.8-2.1,55.3,45.8Z" transform="translate(-278.56 -90.44)"/><path id="Shape_7" data-name="Shape 7" class="cls-13" d="M1392.26,521.71l2.2-15.8,52.4,60.2Z" transform="translate(-278.56 -90.44)"/></g></g><g id="Person"><path id="chair_shadow" data-name="chair shadow" class="cls-14" d="M730.56,989.41c114,0,206.5-18.6,206.5-41.5s-92.5-41.5-206.5-41.5-206.5,18.5-206.5,41.5S616.56,989.41,730.56,989.41Z" transform="translate(-278.56 -90.44)"/><path id="chair" class="cls-15" d="M587.66,922.11c126.5,60.7,312.4,52.7,395.7-112.1,55.1-106-62.4-232.9-191.5-321.2-115.8-79.2-218.8-97.2-279.3-52.6-6.9,5.1-19.2,4.1-24.7,11C334.46,622.51,461.16,861.41,587.66,922.11Z" transform="translate(-278.56 -90.44)"/><path id="cushion" class="cls-16" d="M665.86,770.51c135.3,84.6,275.1,93.8,322.1,18.6,43.6-81.3-62.2-228.2-197.5-312.8s-253.2-98-300.2-22.8S530.46,685.91,665.86,770.51Z" transform="translate(-278.56 -90.44)"/><path id="shadow" class="cls-17" d="M696.46,711.11c60.7,37.9,123.3,42.1,144.4,8.3,19.6-36.5-27.9-102.4-88.6-140.3s-113.5-44-134.6-10.2S635.76,673.21,696.46,711.11Z" transform="translate(-278.56 -90.44)"/><g id="shoe"><path id="Path_17-2" data-name="Path 17-2" class="cls-18" d="M1086.36,958.51c-2-9-5-15.7-2-27.9s37.2-19,41.5-15.2,3.6,6,20.7,15.1,66.2,19.7,76.6,31.4,12.5,19.6-9.4,19.6h-67.5c-12.1-4.4-16.2-6.8-23-10.8a18.71,18.71,0,0,0,0,9.4h-29.1C1094.36,980.21,1088.26,967.51,1086.36,958.51Z" transform="translate(-278.56 -90.44)"/><g class="cls-19"><g id="shoe-2"><path id="Path_21" data-name="Path 21" class="cls-20" d="M1086.36,973.31c6.3-16.1,30.7-46.2,37.7-56s-46.8,11.5-46.8,11.5S1080.16,989.51,1086.36,973.31Z" transform="translate(-278.56 -90.44)"/></g></g></g><g id="shoe-3"><path id="Path_17_Copy-2" data-name="Path 17 Copy-2" class="cls-21" d="M1143.26,713.61c-6.4-6.1-12.4-9.8-16.6-21s19.2-35.2,24.8-34.4,6.1,2.8,24.6.8,51.5-24.6,66.2-20.9,27.9,3.8,10.6,15.5c-8.2,5.5-39.7,39.2-49.5,45.8-12,3-16.5,3.4-24.1,3.8a17.64,17.64,0,0,0,5.1,7.5l-23.1,15.7S1149.66,719.61,1143.26,713.61Z" transform="translate(-278.56 -90.44)"/><g class="cls-22"><g id="shoe-4"><path id="Path_19" data-name="Path 19" class="cls-23" d="M1152.76,724c-9.7-20.1.3-65.4-4.1-69.4s-26,32.4-26,32.4-10.3,10.2,6.2,25.4S1162.46,744.11,1152.76,724Z" transform="translate(-278.56 -90.44)"/></g></g></g><path id="sleeve" class="cls-24" d="M724.26,490.91c44.9-23.9,70.6-93.8,89.1-113.4s26.8,17.9,23.7,29-25.7,85.4-72.9,145.5C764.16,591.21,718.46,522.41,724.26,490.91Z" transform="translate(-278.56 -90.44)"/><path id="arm" class="cls-25" d="M705.06,411.61s106.5-42.1,120.9-39.3-28.6,51.9-37.4,55.8-20.8,13.6-34,14-43.7,6.9-43.7,6.9Z" transform="translate(-278.56 -90.44)"/><g id="leg"><path id="Path_7-2" data-name="Path 7-2" class="cls-26" d="M731.36,727.41c13.1-17.7,45.1-54.5,114.1-67.9s132.3-25.9,248.6,8.6c9.6,112.3,20.5,225.3,31.5,248.2-8.4,10.2-38.7,18-56.5,18-6.5-25.3-26.7-86.2-37-116.3s-13.9-67.5-11.9-80.7c-35,10-106.8,40.2-132,49.2s-111.5,37.4-140.1,14.5S718.26,745,731.36,727.41Z" transform="translate(-278.56 -90.44)"/><g class="cls-27"><g id="leg-2"><path id="Path" class="cls-28" d="M969.16,757.81c0-15.6,39.6-98.2,50.2-107.1s-20.9-7.5-20.9-7.5-71.8,74.6-81.2,114.6S969.16,773.51,969.16,757.81Z" transform="translate(-278.56 -90.44)"/></g></g></g><g id="neck"><path id="Path_4-2" data-name="Path 4-2" class="cls-29" d="M645.06,500.51c-3.5-17.4-10.2-47.9-11.5-54.4s63.4,16,63.4,16l8.1,42.7,9.3,72.2C714.36,576.91,648.46,517.91,645.06,500.51Z" transform="translate(-278.56 -90.44)"/><g class="cls-30"><g id="neck-2"><path id="Path_22" data-name="Path 22" class="cls-31" d="M637.06,447.91c0,6.6,24.6,34.6,37.8,42.2s37.2,7,37.2,7l-3.6-37.7-71.4-18Z" transform="translate(-278.56 -90.44)"/></g></g></g><g id="shirt"><g id="Path_9" data-name="Path 9"><path id="Path_9-2" data-name="Path 9-2" class="cls-32" d="M701.46,485.71s24.6,4,26.3,7.1c16,11.6,31.4,46.2,37.9,64.1s19.2,36.4,30.5,50.8,16.8,17.3,31.7,28,20.3,19.1,11.9,27-56.9,4.8-91.4,48c-30.1,12.4-30.1,16.9-39.1-9.8s-82.6-93.5-94.5-102.9-7.3-18.5-10.3-47.3-24.7-52.2-6.5-52.2c14.4,5.4,28.4-5.6,34.7-5.6,23.1,5.7,28.3,28.4,37.9,23.7s15.7-4.8,15.7-4.8c2.2,4.5,3,12.3,5.2,16.8s11.6,13.6,15.7,22l-7.3-24.6,2-14.7Z" transform="translate(-278.56 -90.44)"/><path id="Path_9-3" data-name="Path 9-3" class="cls-33" d="M701.46,485.71s24.6,4,26.3,7.1c16,11.6,31.4,46.2,37.9,64.1s19.2,36.4,30.5,50.8,16.8,17.3,31.7,28,20.3,19.1,11.9,27-56.9,4.8-91.4,48c-30.1,12.4-30.1,16.9-39.1-9.8s-82.6-93.5-94.5-102.9-7.3-18.5-10.3-47.3-24.7-52.2-6.5-52.2c14.4,5.4,28.4-5.6,34.7-5.6,23.1,5.7,28.3,28.4,37.9,23.7s15.7-4.8,15.7-4.8c2.2,4.5,3,12.3,5.2,16.8s11.6,13.6,15.7,22l-7.3-24.6,2-14.7Z" transform="translate(-278.56 -90.44)"/></g><g class="cls-34"><g id="shirt-2"><path id="Shape_1" data-name="Shape 1" class="cls-35" d="M703.06,550.41c2.2,4.4,25.9,46,31,52s21.6,22.7,28,29,45.5,31.2,46,39" transform="translate(-278.56 -90.44)"/><path id="Path_23" data-name="Path 23" class="cls-36" d="M673,542.51s10.9-19.8,17.3-19.8-2.2-19.3-2.2-19.3l-19.8,15Z" transform="translate(-278.56 -90.44)"/></g></g></g><path id="leg-3" class="cls-37" d="M837.06,651.61c36.2-33.3,139.9-97.6,199-107.4,33.9,5.6,122,101.2,122,101.2-4,4.2-14.5,41.3-31,53-41.7-34.6-85.1-50.8-96.8-68.6-14.6,8.9-52,34.7-73.5,72.7s-35.8,81.3-60.3,82.4-59.1,3.9-91-16.6c-18.5-11.9-71.8-38.4-45.9-55.8C774.46,702.51,821.86,665.61,837.06,651.61Z" transform="translate(-278.56 -90.44)"/><path id="face" class="cls-38" d="M695.86,374.11c2.5,6.2,15.9,33.4,17.2,40.1s14.1,52,6.5,58.9-30.5,10.5-36.9,8.3-20.1-3.7-25.5-13.1c-4.1-7.2-17.2-24-20.6-23-1.3,2.6-5.6,5.3-7.8,3.6-9.4-7.6-17.6-15.9-13.7-34.6s17.3-28,31.8-34.1C661.16,374.11,693.36,367.91,695.86,374.11Z" transform="translate(-278.56 -90.44)"/><g id="arm-2"><path id="Path_13-2" data-name="Path 13-2" class="cls-39" d="M530.56,478c17.5,7.1,74.2-21.1,92.2-18.6,16.5,2.3-4.4-23.6-10.7-28.1s-130.4-2.5-136.9,7S516.06,472.11,530.56,478Z" transform="translate(-278.56 -90.44)"/><g class="cls-40"><g id="arm-3"><path id="Path_24" data-name="Path 24" class="cls-41" d="M496.06,439.21c3.7,1.3,78.4,33.9,96.8,29.4s-46,17-46,17S492.46,437.91,496.06,439.21Z" transform="translate(-278.56 -90.44)"/></g></g></g><path id="hair" class="cls-42" d="M644.06,414.31s-8.5-12.8-1.9-25.6,41,4.3,69-27.1,3.1-73.8-25.6-65.5-21.7,23.1-16.5,34.1-21.6,15.2-40.7,23-34.8,28.7-31.4,61.2,33.5,59.1,43.1,64c-2.8-19.2-2.9-28-2.9-33.4-11,5.1-23.8-20.1-16.4-26.7,14.2-12.7,21.4,16.2,21.4,16.2a35.87,35.87,0,0,1,5.3-8A71,71,0,0,0,644.06,414.31Z" transform="translate(-278.56 -90.44)"/><path id="colar" class="cls-43" d="M702.06,510.71c8.7,3.1,10.4,19.3,11.9,23.8s-6.3-35.7-6.3-35.7c-2.7,3.8-8.6-21.9-7.5-18.2C703.16,490.81,700.66,502.21,702.06,510.71Z" transform="translate(-278.56 -90.44)"/><path id="colar-2" class="cls-44" d="M673.56,551.41c0-14.3,5.7-33.1,12.7-39.8-10.2.6-40.1-17.3-43.3-27.2s-3.8-11.4-3.8-11.4-6.2,11.9-6.2,19.5C637.36,508.91,656.76,537.41,673.56,551.41Z" transform="translate(-278.56 -90.44)"/><path id="sleeve-2" class="cls-45" d="M586,494.41c-29.6-16.3-88.7-62.5-104.2-58.7s-11.5,10.8-11.5,26.9,81.2,70.4,93.7,97.2c5.3,11.5,19.1,39.9,43.6,35.3s17.1-29,11.8-48.7C613.16,523.31,604.26,504.41,586,494.41Z" transform="translate(-278.56 -90.44)"/><path class="cls-46" d="M713.16,436.71c-1.1-.2-1.6.8-2.3,1.7-2.2,3.1-6.9,6.5-9.7,7.1a.76.76,0,0,0-.4.1h-.1c-2.3,1.7-8.1,2.9-11.9,2.4-1.1-.1-2.2-.4-2.8.5s.5,2.2,1.5,2.6c5,1.9,12.3,3.3,16,.6,4.5-.9,8.5-7.2,10.6-12.2C714.46,438.51,714.26,436.81,713.16,436.71Z" transform="translate(-278.56 -90.44)"/><g id="glasses"><path id="Path_18" data-name="Path 18" class="cls-47" d="M665.56,414.91c5.2,1.4,11.6.4,15.1-3.4" transform="translate(-278.56 -90.44)"/><path id="Path_18_Copy" data-name="Path 18 Copy" class="cls-47" d="M707.06,403.91c4.5,1.4,10.1.4,13-3.4" transform="translate(-278.56 -90.44)"/><path id="Path_14" data-name="Path 14" class="cls-48" d="M654.06,406.81l5.6,24.6,31-7.4-4.7-25.6Z" transform="translate(-278.56 -90.44)"/><path id="Path_14_Copy" data-name="Path 14 Copy" class="cls-48" d="M699.36,394.31l5,25.1,23.2-6.7-4.2-25.1Z" transform="translate(-278.56 -90.44)"/><path id="Path_15" data-name="Path 15" class="cls-46" d="M653.46,409.91l-18.3,5,3.1,6.1,19.7,4.7Z" transform="translate(-278.56 -90.44)"/><path id="Path_16" data-name="Path 16" class="cls-46" d="M687,406.11l13.9-4.3,1.5,7.4-14.5,4Z" transform="translate(-278.56 -90.44)"/></g><g id="Oval_3_Oval_3_Copy_Oval_3_Copy_2_Oval_3_Copy_4_Oval_3_Copy_3_Mask" data-name="Oval 3 Oval 3 Copy Oval 3 Copy 2 Oval 3 Copy 4 Oval 3 Copy 3 Mask"><path id="Mask-2" class="cls-1" d="M665.86,770.51c135.3,84.6,275.1,93.8,322.1,18.6,56.4-109.7-137.1-62.2-272.4-146.8s-132-155.2-225.4-188.8C443.16,528.71,530.46,685.91,665.86,770.51Z" transform="translate(-278.56 -90.44)"/><g class="cls-49"><g id="Oval_3_Oval_3_Copy_Oval_3_Copy_2_Oval_3_Copy_4_Oval_3_Copy_3_Mask-2" data-name="Oval 3 Oval 3 Copy Oval 3 Copy 2 Oval 3 Copy 4 Oval 3 Copy 3 Mask-2"><path id="Oval_3" data-name="Oval 3" class="cls-50" d="M423.76,663.71c70.6,45.9,151.6,46.6,180.7,1.7s-4.4-118.5-75.1-164.4-151.6-46.6-180.7-1.7S353.16,617.81,423.76,663.71Z" transform="translate(-278.56 -90.44)"/><path id="Oval_3_Copy" data-name="Oval 3 Copy" class="cls-50" d="M671.56,846.51c52.1-24.3,68.2-99.7,36.1-168.6s-100.3-104.9-152.4-80.7-68.2,99.7-36.1,168.6S619.46,870.81,671.56,846.51Z" transform="translate(-278.56 -90.44)"/><path id="Oval_3_Copy_2" data-name="Oval 3 Copy 2" class="cls-50" d="M806.56,962.51c52.1-24.3,68.2-99.7,36.1-168.6s-100.3-104.9-152.4-80.7-68.2,99.7-36.1,168.6S754.46,986.81,806.56,962.51Z" transform="translate(-278.56 -90.44)"/><path id="Oval_3_Copy_4" data-name="Oval 3 Copy 4" class="cls-50" d="M1058.56,1001.51c52.1-24.3,68.2-99.7,36.1-168.6s-100.3-104.9-152.4-80.7-68.2,99.7-36.1,168.6S1006.46,1025.81,1058.56,1001.51Z" transform="translate(-278.56 -90.44)"/><path id="Oval_3_Copy_3" data-name="Oval 3 Copy 3" class="cls-50" d="M880.26,925.31c57,7,107.6-22.7,112.9-66.2s-36.5-84.6-93.5-91.6-107.6,22.7-112.9,66.2S823.26,918.31,880.26,925.31Z" transform="translate(-278.56 -90.44)"/></g></g></g><path id="pocket" class="cls-51" d="M723.36,555.91s23.7-4.5,26.5-7.7,18.9,33.6,18.9,33.6l-7.8,8.8h-18.6Z" transform="translate(-278.56 -90.44)"/></g><g id="Plant"><g id="Pot"><path id="shadow-2" class="cls-52" d="M451.06,959.41c39.8,0,72,6.9,72,15.5s-32.2,15.5-72,15.5-72-6.9-72-15.5S411.36,959.41,451.06,959.41Z" transform="translate(-278.56 -90.44)"/><g id="Ellipse_2-2" data-name="Ellipse 2-2"><path id="Ellipse_2-3" data-name="Ellipse 2-3" class="cls-53" d="M518.06,898.71a52.09,52.09,0,0,1,7,26.1c0,33.4-32.2,60.5-72,60.5s-72-27.1-72-60.5a51.69,51.69,0,0,1,7.9-27.5C420.86,902.41,484.36,902.11,518.06,898.71Z" transform="translate(-278.56 -90.44)"/></g><g id="Ellipse_1-2" data-name="Ellipse 1-2"><path id="Ellipse_1-3" data-name="Ellipse 1-3" class="cls-54" d="M453.56,885.41c36.2,0,65.5,6.9,65.5,15.5s-29.3,15.5-65.5,15.5-65.5-6.9-65.5-15.5S417.46,885.41,453.56,885.41Z" transform="translate(-278.56 -90.44)"/></g></g><g id="leaves"><g id="leaves-2"><g id="leaf"><g id="Shape_2-4" data-name="Shape 2-4"><path id="Shape_2-5" data-name="Shape 2-5" class="cls-55" d="M448.06,887.41c-3.6-24.8-13.4-60.5-43-99-17.4-22.7-17.5-78-20-84,13.7,4.7,38.2,16.8,63,51C474.06,791.21,457.56,864.21,448.06,887.41Z" transform="translate(-278.56 -90.44)"/><g class="cls-56"><g id="Shape_2-6" data-name="Shape 2-6"><path id="Shape_3" data-name="Shape 3" class="cls-57" d="M447.06,887.41c2.7-60.2-4.8-98.1-28.3-134" transform="translate(-278.56 -90.44)"/></g></g></g></g><g id="leaf-2"><g id="Shape_2-7" data-name="Shape 2-7"><path id="Shape_2-8" data-name="Shape 2-8" class="cls-58" d="M448.16,912.81c-11.1-17.7-30.6-41.6-66.1-61.1-20.9-11.4-39.5-53.5-43.5-57.3,12-1,34.8,0,65.2,17.7C435.66,830.71,447.66,892,448.16,912.81Z" transform="translate(-278.56 -90.44)"/><g class="cls-59"><g id="Shape_2-9" data-name="Shape 2-9"><path id="Shape_3-2" data-name="Shape 3-2" class="cls-57" d="M447.46,913.11c-18.2-46.8-36.7-73.2-66.7-92.7" transform="translate(-278.56 -90.44)"/></g></g></g></g><g id="leaf-3"><g id="Shape_2-10" data-name="Shape 2-10"><path id="Shape_2-11" data-name="Shape 2-11" class="cls-60" d="M456.16,915.21c8.7-19,25.1-45.4,57.9-69.3,19.3-14.1,32.4-58.4,35.9-62.7-12.1.5-34.7,4.5-62.7,26.1C458,831.91,454,894.41,456.16,915.21Z" transform="translate(-278.56 -90.44)"/><g class="cls-61"><g id="Shape_2-12" data-name="Shape 2-12"><path id="Shape_3-3" data-name="Shape 3-3" class="cls-57" d="M453.56,915.11c12-48.9,27-77.7,54.4-100.9" transform="translate(-278.56 -90.44)"/></g></g></g></g></g></g></g><g id="Clock" class="cls-62"><g id="Ellipse_4-2" data-name="Ellipse 4-2"><path id="Ellipse_4-3" data-name="Ellipse 4-3" class="cls-63" d="M433.06,163.41a62,62,0,1,1-62,62A62.05,62.05,0,0,1,433.06,163.41Z" transform="translate(-278.56 -90.44)"/></g><path id="Shape_8" data-name="Shape 8" class="cls-64" d="M433.86,183v44.6l20.4,20.4" transform="translate(-278.56 -90.44)"/></g><path class="cls-32" d="M1717.15,617.36c-.24-.13-.49-.25-.74-.36-2.83-1.22-5.8-2.33-9.08-3.39a140.28,140.28,0,0,0-14.28-3.79c0-1.21,0-2.41,0-3.59a10.89,10.89,0,0,0-7.13-10.4l-1.51-.58q-4.1-1.59-8.21-3.15l.06-2.77c0-2.07.08-4.13.14-6.19a5.12,5.12,0,0,0-1.39-3.85,5.06,5.06,0,0,0-3.76-1.49h0l-2.91,0v-.89a11.15,11.15,0,0,0-2.2-6.83,12.29,12.29,0,0,0-5.9-4.06q-9.22-3.53-18.42-7.07l-8.54-3.29a4.69,4.69,0,0,0-6.82,4.64l-.1,5.1q-.2,9.63-.37,19.25l-4.42,1.5-5.12,1.73a11,11,0,0,0-7.85,10.67l-.05,2.74c0,2.31-.1,4.62-.13,6.92a132.41,132.41,0,0,0-20,4.93,50,50,0,0,0-4.72,1.79l-12.07,5.41,12.92,2.82a5.84,5.84,0,0,0,3-.14,147.91,147.91,0,0,1,15.47-2.91c6-.85,12.41-1.48,19.75-2,6.45-.41,13.26-.61,20.82-.61h.18c5.23,0,10.07.11,14.78.34l.65,0c4.12.19,8.39.4,12.54.75,7.65.64,14,1.37,20,2.28a180.67,180.67,0,0,1,18.89,3.81l8.26,2.19,1-8.11Z" transform="translate(-278.56 -90.44)"/><path class="cls-65" d="M1716.93,622l-3.47-.92a184.42,184.42,0,0,0-19.34-3.9c-6.73-1-13.5-1.75-20.28-2.32-4.44-.38-8.9-.58-13.35-.8-5-.24-10.11-.34-15.17-.34-7,0-14.07.18-21.1.62-6.71.43-13.41,1-20.08,2a156.6,156.6,0,0,0-15.92,3,1.76,1.76,0,0,1-1,.11,45.54,45.54,0,0,1,4.32-1.64,132.1,132.1,0,0,1,22-5.2c.59-.09.86-.26.87-1,0-4.16.13-8.32.21-12.47a6.65,6.65,0,0,1,4.88-6.62c3.94-1.33,7.86-2.69,11.8-4a.84.84,0,0,0,.67-1q.24-13.33.51-26.67c0-1,0-1,.91-.66q13.48,5.19,27,10.36a8.15,8.15,0,0,1,3.95,2.59,6.81,6.81,0,0,1,1.35,4.21c0,1.5,0,3-.09,4.5,0,.53.14.69.66.7,2.23,0,4.46.1,6.69.1.68,0,.81.22.8.86-.11,3.78-.16,7.56-.25,11.34a.84.84,0,0,0,.64,1c4,1.49,7.95,3,11.92,4.56a6.61,6.61,0,0,1,4.34,6.33q0,3.23-.13,6.46c0,.54.15.72.66.82a135.43,135.43,0,0,1,16.71,4.25c3,.95,5.87,2,8.72,3.25a6.54,6.54,0,0,1,.59.3Z" transform="translate(-278.56 -90.44)"/><path class="cls-66" d="M1669.9,586.5c0,2.08-.05,4.15-.09,6.23-.11,5.84-.23,11.67-.32,17.5,0,.66-.21.78-.81.73-3.76-.32-7.54-.57-11.31-.68-.61,0-.74-.2-.73-.78.13-5.74.23-11.47.34-17.2,0-.27.1-.56-.09-.8a10.66,10.66,0,0,0-2.46-.11c-.57,0-.77-.24-.77-.75,0-1.28,0-2.55.08-3.83,0-.46.19-.71.74-.7,5,.11,10,.2,15.07.3A.49.49,0,0,1,1669.9,586.5Z" transform="translate(-278.56 -90.44)"/><path class="cls-67" d="M1642,567.6l14.29,5.48c1.19.45,2.37.93,3.57,1.37a2.85,2.85,0,0,1,2,2.24c.07,1.81,0,3.61-.06,5.41,0,.28-.11.41-.4.39h-.52l-15.4-.3c-.82,0-.82,0-.83.79-.05,2.51-.12,5-.14,7.51,0,.57-.16.75-.73.7-.74-.06-1.5-.06-2.25,0a.55.55,0,0,1-.63-.57c0-.25,0-.5,0-.75q.21-10.48.41-20.95a4.49,4.49,0,0,1,.07-.9C1641.45,567.61,1641.64,567.43,1642,567.6Z" transform="translate(-278.56 -90.44)"/><path class="cls-68" d="M1642,567.6c-.43-.06-.47.21-.48.55,0,1.45,0,2.9-.08,4.35q-.17,8.82-.36,17.64c0,.69.11,1,.88.94s1.79.37,2.31-.13.15-1.47.17-2.24c.06-1.88.08-3.76.12-5.63,0-1,0-1,1-1,5.11.1,10.21.18,15.31.31.69,0,.9-.15.9-.85,0-1.62.06-3.25.1-4.88a5,5,0,0,1,.08,1.93c0,1-.07,2.1,0,3.15,0,.69-.24.82-.88.8-5.13-.12-10.26-.19-15.39-.32-.71,0-.93.13-.93.87,0,2.46-.1,4.91-.11,7.36,0,.61-.16.84-.8.8-1.28-.08-2.56-.06-3.83-.14-.65,0-.8.21-.81.81-.1,5.76-.22,11.52-.33,17.27,0,1,0,1-1,1l-2,.08c-.35,0-.51-.12-.48-.48a4.64,4.64,0,0,0,0-.53l.84-43c0-1,0-1,.93-.61C1638.72,566.33,1640.37,567,1642,567.6Z" transform="translate(-278.56 -90.44)"/><path class="cls-67" d="M1622.55,595.52c3-1,5.9-2,8.85-3.06.6-.2.48.18.48.49,0,2.25-.09,4.51-.13,6.76-.07,3.37-.15,6.75-.19,10.13,0,.62-.19.78-.8.82-2.59.18-5.18.43-7.77.64-.86.09-1,0-1-.84.06-4.7.16-9.4.26-14.11A1.07,1.07,0,0,1,1622.55,595.52Z" transform="translate(-278.56 -90.44)"/><path class="cls-67" d="M1646.9,595.07l5.77.08c.39,0,.52.13.51.52q-.15,6.95-.27,13.89c0,.38-.1.54-.5.51s-1.06,0-1.58,0c-1,.09-2.08,0-3.12,0a2.51,2.51,0,0,0-.82,0h-.12c-.37-.17-.39-.5-.38-.83q.09-6.71.25-13.41A1.05,1.05,0,0,1,1646.9,595.07Z" transform="translate(-278.56 -90.44)"/><path class="cls-67" d="M1677.91,601.36c2.2.84,4.4,1.69,6.61,2.52a2.9,2.9,0,0,1,2.11,3.08c0,1.87-.08,3.75-.1,5.62,0,.45,0,.64-.61.55-2.83-.46-5.67-.85-8.51-1.27a1.25,1.25,0,0,1-.25-1c0-2.86.1-5.71.18-8.56C1677.35,602,1677.15,601.34,1677.91,601.36Z" transform="translate(-278.56 -90.44)"/><path class="cls-68" d="M1622.55,595.52c-.1,5-.19,10.08-.32,15.12,0,.67.33.65.76.66l-4.37.52c-.39,0-.47-.15-.45-.48s0-.7,0-1.05c.07-3.72.14-7.45.22-11.17a2.82,2.82,0,0,1,2.22-3A12.94,12.94,0,0,1,1622.55,595.52Z" transform="translate(-278.56 -90.44)"/><path class="cls-68" d="M1646.9,595.07q-.15,7.18-.29,14.37a.75.75,0,0,0,.16.63c-1.23,0-2.45,0-3.68,0-.35,0-.52-.11-.51-.46,0-.13,0-.25,0-.38.08-4.48.19-9,.24-13.44,0-.71.23-.91.91-.86C1644.79,595.05,1645.85,595,1646.9,595.07Z" transform="translate(-278.56 -90.44)"/><path class="cls-68" d="M1677.91,601.36c-.36,0-.33.31-.33.56-.06,3.31-.11,6.63-.17,9.94-1.22-.12-2.43-.26-3.65-.37-.41,0-.58-.17-.57-.59q.12-5.37.21-10.74c0-.45.16-.5.54-.35C1675.26,600.34,1676.58,600.84,1677.91,601.36Z" transform="translate(-278.56 -90.44)"/><path class="cls-69" d="M1669.9,586.5l-15.35-.32c-.42,0-.57.12-.58.54,0,1.35,0,2.7-.08,4,0,.45.18.52.57.56a7.63,7.63,0,0,1,2.43.17c-2.7-.06-5.4-.13-8.1-.17-.47,0-.6-.2-.58-.64,0-1.3.09-2.6.06-3.9,0-.66.19-.85.86-.84,6.68.14,13.35.25,20,.37C1669.41,586.33,1669.71,586.19,1669.9,586.5Z" transform="translate(-278.56 -90.44)"/><path class="cls-68" d="M1646.89,610.07a19.22,19.22,0,0,1,3.94,0A24.67,24.67,0,0,1,1646.89,610.07Z" transform="translate(-278.56 -90.44)"/></svg>