<svg id="Capa_1" data-name="Capa 1" xmlns="http://www.w3.org/2000/svg" xmlns:xlink="http://www.w3.org/1999/xlink" viewBox="0 0 530.36 530.36"><defs><style>.cls-1{fill:url(#Degradado_sin_nombre_14);}.cls-2{fill:url(#Degradado_sin_nombre_6);}.cls-3{fill:#002d81;stroke:#fff;stroke-miterlimit:10;stroke-width:2px;}.cls-4{fill:#211915;}.cls-5{fill:url(#Degradado_sin_nombre_145);}.cls-6{fill:url(#Degradado_sin_nombre_145-2);}.cls-7{fill:url(#Degradado_sin_nombre_145-3);}.cls-8{fill:url(#Degradado_sin_nombre_145-4);}.cls-9{fill:url(#Degradado_sin_nombre_145-5);}.cls-10{fill:url(#Degradado_sin_nombre_145-6);}.cls-11{fill:url(#Degradado_sin_nombre_145-7);}.cls-12{fill:url(#Degradado_sin_nombre_145-8);}.cls-13{fill:url(#Degradado_sin_nombre_145-9);}.cls-14{fill:url(#Degradado_sin_nombre_145-10);}.cls-15{fill:url(#Degradado_sin_nombre_145-11);}.cls-16{fill:url(#Degradado_sin_nombre_145-12);}.cls-17{fill:url(#Degradado_sin_nombre_145-13);}.cls-18{fill:url(#Degradado_sin_nombre_145-14);}.cls-19{fill:url(#Degradado_sin_nombre_145-15);}.cls-20{fill:url(#Degradado_sin_nombre_145-16);}.cls-21{fill:url(#Degradado_sin_nombre_145-17);}.cls-22{fill:url(#Degradado_sin_nombre_145-18);}.cls-23{fill:url(#Degradado_sin_nombre_145-19);}.cls-24{fill:url(#Degradado_sin_nombre_145-20);}.cls-25{fill:url(#Degradado_sin_nombre_145-21);}.cls-26{fill:url(#Degradado_sin_nombre_145-22);}.cls-27{fill:url(#Degradado_sin_nombre_145-23);}.cls-28{fill:url(#Degradado_sin_nombre_145-24);}.cls-29{fill:url(#Degradado_sin_nombre_145-25);}.cls-30{fill:url(#Degradado_sin_nombre_145-26);}.cls-31{fill:url(#Degradado_sin_nombre_145-27);}.cls-32{fill:url(#Degradado_sin_nombre_145-28);}.cls-33{fill:url(#Degradado_sin_nombre_145-29);}.cls-34{fill:url(#Degradado_sin_nombre_145-30);}.cls-35{fill:url(#Degradado_sin_nombre_145-31);}.cls-36{fill:#be0811;}.cls-37{fill:#001d7e;}</style><radialGradient id="Degradado_sin_nombre_14" cx="265.18" cy="265.18" r="265.18" gradientUnits="userSpaceOnUse"><stop offset="0" stop-color="#fff"/><stop offset="1" stop-color="#b3b3b3"/></radialGradient><linearGradient id="Degradado_sin_nombre_6" x1="251.66" y1="248.09" x2="523.94" y2="248.09" gradientUnits="userSpaceOnUse"><stop offset="0" stop-color="#f7e02c"/><stop offset="0.46" stop-color="#fff"/><stop offset="1" stop-color="#f7e02c"/></linearGradient><linearGradient id="Degradado_sin_nombre_145" x1="268.98" y1="463.04" x2="271.97" y2="201.27" gradientUnits="userSpaceOnUse"><stop offset="0.07" stop-color="#be0811"/><stop offset="0.08" stop-color="#c31a22"/><stop offset="0.11" stop-color="#cf494f"/><stop offset="0.14" stop-color="#e39498"/><stop offset="0.18" stop-color="#fefafa"/><stop offset="0.18" stop-color="#fff"/><stop offset="0.21" stop-color="#eebec1"/><stop offset="0.26" stop-color="#d45d63"/><stop offset="0.3" stop-color="#c42028"/><stop offset="0.32" stop-color="#be0811"/><stop offset="0.36" stop-color="#ce444b"/><stop offset="0.42" stop-color="#e39497"/><stop offset="0.47" stop-color="#f2cecf"/><stop offset="0.51" stop-color="#fbf1f2"/><stop offset="0.53" stop-color="#fff"/><stop offset="0.54" stop-color="#f9e9ea"/><stop offset="0.56" stop-color="#ecb5b8"/><stop offset="0.59" stop-color="#df878b"/><stop offset="0.61" stop-color="#d56066"/><stop offset="0.64" stop-color="#cd4047"/><stop offset="0.67" stop-color="#c6272f"/><stop offset="0.7" stop-color="#c2161e"/><stop offset="0.73" stop-color="#bf0b14"/><stop offset="0.76" stop-color="#be0811"/></linearGradient><linearGradient id="Degradado_sin_nombre_145-2" x1="272.57" y1="463.08" x2="275.55" y2="201.31" xlink:href="#Degradado_sin_nombre_145"/><linearGradient id="Degradado_sin_nombre_145-3" x1="262.86" y1="462.97" x2="265.85" y2="201.2" xlink:href="#Degradado_sin_nombre_145"/><linearGradient id="Degradado_sin_nombre_145-4" x1="263.62" y1="462.97" x2="266.61" y2="201.2" xlink:href="#Degradado_sin_nombre_145"/><linearGradient id="Degradado_sin_nombre_145-5" x1="260.56" y1="462.94" x2="263.54" y2="201.17" xlink:href="#Degradado_sin_nombre_145"/><linearGradient id="Degradado_sin_nombre_145-6" x1="318.77" y1="463.6" x2="321.75" y2="201.83" xlink:href="#Degradado_sin_nombre_145"/><linearGradient id="Degradado_sin_nombre_145-7" x1="296.21" y1="463.35" x2="299.19" y2="201.58" xlink:href="#Degradado_sin_nombre_145"/><linearGradient id="Degradado_sin_nombre_145-8" x1="280.82" y1="463.17" x2="283.81" y2="201.4" xlink:href="#Degradado_sin_nombre_145"/><linearGradient id="Degradado_sin_nombre_145-9" x1="311.54" y1="463.52" x2="314.52" y2="201.75" xlink:href="#Degradado_sin_nombre_145"/><linearGradient id="Degradado_sin_nombre_145-10" x1="311.6" y1="463.52" x2="314.59" y2="201.75" xlink:href="#Degradado_sin_nombre_145"/><linearGradient id="Degradado_sin_nombre_145-11" x1="322.01" y1="463.64" x2="324.99" y2="201.87" xlink:href="#Degradado_sin_nombre_145"/><linearGradient id="Degradado_sin_nombre_145-12" x1="193.44" y1="369.01" x2="196.42" y2="107.24" xlink:href="#Degradado_sin_nombre_145"/><linearGradient id="Degradado_sin_nombre_145-13" x1="203.63" y1="369.13" x2="206.61" y2="107.36" xlink:href="#Degradado_sin_nombre_145"/><linearGradient id="Degradado_sin_nombre_145-14" x1="298.69" y1="463.37" x2="301.67" y2="201.6" xlink:href="#Degradado_sin_nombre_145"/><linearGradient id="Degradado_sin_nombre_145-15" x1="332.56" y1="463.76" x2="335.54" y2="201.99" xlink:href="#Degradado_sin_nombre_145"/><linearGradient id="Degradado_sin_nombre_145-16" x1="298.7" y1="463.37" x2="301.69" y2="201.6" xlink:href="#Degradado_sin_nombre_145"/><linearGradient id="Degradado_sin_nombre_145-17" x1="320.94" y1="463.63" x2="323.93" y2="201.86" xlink:href="#Degradado_sin_nombre_145"/><linearGradient id="Degradado_sin_nombre_145-18" x1="284.23" y1="463.21" x2="287.21" y2="201.44" xlink:href="#Degradado_sin_nombre_145"/><linearGradient id="Degradado_sin_nombre_145-19" x1="317.44" y1="463.59" x2="320.42" y2="201.82" xlink:href="#Degradado_sin_nombre_145"/><linearGradient id="Degradado_sin_nombre_145-20" x1="190.27" y1="368.97" x2="193.25" y2="107.2" xlink:href="#Degradado_sin_nombre_145"/><linearGradient id="Degradado_sin_nombre_145-21" x1="283.9" y1="463.21" x2="286.88" y2="201.44" xlink:href="#Degradado_sin_nombre_145"/><linearGradient id="Degradado_sin_nombre_145-22" x1="206.27" y1="369.16" x2="209.26" y2="107.39" xlink:href="#Degradado_sin_nombre_145"/><linearGradient id="Degradado_sin_nombre_145-23" x1="195.77" y1="369.04" x2="198.75" y2="107.27" xlink:href="#Degradado_sin_nombre_145"/><linearGradient id="Degradado_sin_nombre_145-24" x1="288.27" y1="463.26" x2="291.25" y2="201.49" xlink:href="#Degradado_sin_nombre_145"/><linearGradient id="Degradado_sin_nombre_145-25" x1="299.88" y1="463.39" x2="302.86" y2="201.62" xlink:href="#Degradado_sin_nombre_145"/><linearGradient id="Degradado_sin_nombre_145-26" x1="291.92" y1="463.3" x2="294.9" y2="201.53" xlink:href="#Degradado_sin_nombre_145"/><linearGradient id="Degradado_sin_nombre_145-27" x1="325.29" y1="463.68" x2="328.27" y2="201.91" xlink:href="#Degradado_sin_nombre_145"/><linearGradient id="Degradado_sin_nombre_145-28" x1="302.75" y1="463.42" x2="305.73" y2="201.65" xlink:href="#Degradado_sin_nombre_145"/><linearGradient id="Degradado_sin_nombre_145-29" x1="200.18" y1="369.09" x2="203.16" y2="107.32" xlink:href="#Degradado_sin_nombre_145"/><linearGradient id="Degradado_sin_nombre_145-30" x1="199.72" y1="369.08" x2="202.7" y2="107.31" xlink:href="#Degradado_sin_nombre_145"/><linearGradient id="Degradado_sin_nombre_145-31" x1="199.92" y1="369.08" x2="202.91" y2="107.31" xlink:href="#Degradado_sin_nombre_145"/></defs><title>logo-brartnet-bg</title><circle class="cls-1" cx="265.18" cy="265.18" r="265.18"/><polygon class="cls-2" points="517.05 260.8 251.66 260.8 256.82 235.37 523.94 235.37 517.05 260.8"/><path class="cls-3" d="M195.6,392.81a13.23,13.23,0,0,1,7.78,4.26,15.82,15.82,0,0,1,3.45,7.66,28.82,28.82,0,0,1-.05,9.4,37.46,37.46,0,0,1-2.77,9.33,33.28,33.28,0,0,1-6.68,10.66,40.4,40.4,0,0,1-10.09,8,34.59,34.59,0,0,1-11.63,4,21,21,0,0,1-11.35-1.27,15.39,15.39,0,0,1-4.09-2.65,14.57,14.57,0,0,1-2.94-3.57,10.88,10.88,0,0,1-1.44-4.15,10.12,10.12,0,0,1,.52-4.61c.53.92,1,1.81,1.49,2.65a6.74,6.74,0,0,0,1.79,2.13,7.06,7.06,0,0,0,2.82,1.27,14.45,14.45,0,0,0,4.73.06,17,17,0,0,0,7.83-3A36.82,36.82,0,0,0,187.65,418a17.11,17.11,0,0,0,1.73-8.64,7,7,0,0,0-1.67-3.86,7,7,0,0,0-7-2.13,10.15,10.15,0,0,0-3.91,1.84,59.13,59.13,0,0,1-5.25,3.11q-2.82,1.5-5.58,3l-5.25,2.82c-1.65.89-3.05,1.67-4.2,2.37q-.69,3-1.62,6.74c-.61,2.49-1.23,5.07-1.84,7.72s-1.25,5.24-1.9,7.78-1.21,4.76-1.67,6.68q-5.19.11-10.09.11H131q4.62-19.47,9.11-38.2t8.87-38.66l38.95.23a13,13,0,0,1,7.83,2.19,10.94,10.94,0,0,1,4.09,5.65,14.18,14.18,0,0,1,.06,7.72A21.44,21.44,0,0,1,195.6,392.81ZM159,403c1.91-1.23,4.07-2.52,6.45-3.86s4.68-2.77,6.91-4.27,4.28-3,6.17-4.55a18.13,18.13,0,0,0,4.2-4.61c.69-1.15.79-2.05.29-2.7a4.66,4.66,0,0,0-2.53-1.5,16.58,16.58,0,0,0-4.21-.58c-1.61,0-3.19,0-4.72.06a38.82,38.82,0,0,0-4.09.4c-1.2.19-2,.33-2.37.41Z" transform="translate(-112.19 -94.44)"/><path class="cls-3" d="M238.12,391.54l-1.5,4.84a28.45,28.45,0,0,1,3.92-2.3,32.22,32.22,0,0,1,4.84-2,23.56,23.56,0,0,1,5.18-1,14,14,0,0,1,5.07.46,7.56,7.56,0,0,1,4.27,3.11,7.15,7.15,0,0,1,.8,5.3l-9.9,16.83a11.56,11.56,0,0,0-.29-2.19c-.2-.93-.45-2-.75-3.35-.62-3.14-1.92-5.31-3.92-6.51a5.93,5.93,0,0,0-6.11-.17,13.09,13.09,0,0,0-4.15,4.26,26.54,26.54,0,0,0-3.34,8.53l-7.37,28.23-18-.11,12.45-53.93Z" transform="translate(-112.19 -94.44)"/><path class="cls-3" d="M396.21,391.54l-1.49,4.84a28.29,28.29,0,0,1,3.91-2.3,32.66,32.66,0,0,1,4.84-2,23.53,23.53,0,0,1,5.19-1,14,14,0,0,1,5.07.46,7.54,7.54,0,0,1,4.26,3.11,7.19,7.19,0,0,1,.81,5.3l-9.91,16.83a11.56,11.56,0,0,0-.29-2.19c-.19-.93-.44-2-.75-3.35q-.92-4.71-3.92-6.51a5.91,5.91,0,0,0-6.1-.17,12.9,12.9,0,0,0-4.15,4.26,26.31,26.31,0,0,0-3.34,8.53L383,445.58l-18-.11,12.44-53.93Z" transform="translate(-112.19 -94.44)"/><path class="cls-3" d="M419.84,445.35l9.67-43.67h-6.22l2.42-10.14h5.88L437.24,369l17.28.35-5.65,22.24,16.6-.12a56,56,0,0,1-3.63,5.19,12.9,12.9,0,0,1-3.75,3.23,15,15,0,0,1-4.72,1.61,37.34,37.34,0,0,1-6.34.46L436.77,445.7Z" transform="translate(-112.19 -94.44)"/><path class="cls-3" d="M483.33,453.77a16.21,16.21,0,0,0,6.86-6.17,53.52,53.52,0,0,0,5.35-10.54,102.13,102.13,0,0,0,3.92-12.68,122.79,122.79,0,0,0,2.42-12.79,26.13,26.13,0,0,0,.29-4.44,7.74,7.74,0,0,0-.75-3.34,3.49,3.49,0,0,0-2-1.78,6.08,6.08,0,0,0-3.63.23,15.23,15.23,0,0,0-7.14,4.95q-3.11,3.69-5.19,11.18l-6.68,27-18.44.23,12.56-54h18.56l-1.27,5.3a21.94,21.94,0,0,1,7.72-4.44,24.88,24.88,0,0,1,7.95-1.26,20.63,20.63,0,0,1,6.91,1.21,11.51,11.51,0,0,1,4.73,3,11.33,11.33,0,0,1,3.17,4.27,18.1,18.1,0,0,1,1.38,5.47,30.31,30.31,0,0,1-.06,6.16,62.41,62.41,0,0,1-1,6.46q-.81,4-2,8.29a58.56,58.56,0,0,1-3.11,8.42,45.31,45.31,0,0,1-4.61,7.83,28.33,28.33,0,0,1-6.45,6.34,29.3,29.3,0,0,1-8.53,4.09A31.54,31.54,0,0,1,483.33,453.77Z" transform="translate(-112.19 -94.44)"/><path class="cls-3" d="M544.75,414.36l21.55.23a11.64,11.64,0,0,1-4.1,5.77,17.29,17.29,0,0,1-6,2.74,25.68,25.68,0,0,1-6.74.76c-2.3,0-4.49-.05-6.57-.05a13.46,13.46,0,0,0-1,6.85,9.67,9.67,0,0,0,2.19,5,10.56,10.56,0,0,0,4.2,3,12.34,12.34,0,0,0,5.13.87,9.54,9.54,0,0,0,4-.46,13.7,13.7,0,0,0,4-2,8.75,8.75,0,0,0,2.71-3.23,4.78,4.78,0,0,0,.11-4h16.13a18.94,18.94,0,0,1-7,10.25,37,37,0,0,1-12.15,6.05A46.74,46.74,0,0,1,546.82,448a42.35,42.35,0,0,1-13.71-2.48,12.84,12.84,0,0,1-8-7.09q-2.53-5.36-1.27-12.62l8.18-34.22,41.72-.12q6.33.24,9.39,3.06a9.59,9.59,0,0,1,3.28,6.62l-14.17,10.14q.35-4.26-2.08-6.62a14.5,14.5,0,0,0-6.16-3.46,35.1,35.1,0,0,0-8-1.32c-2.84-.16-5.38-.23-7.61-.23Z" transform="translate(-112.19 -94.44)"/><path class="cls-3" d="M587.5,445.35l9.68-43.67H591l2.42-10.14h5.87L604.9,369l17.29.35-5.65,22.24,16.59-.12a54.15,54.15,0,0,1-3.63,5.19,12.86,12.86,0,0,1-3.74,3.23,15,15,0,0,1-4.73,1.61,37.26,37.26,0,0,1-6.34.46L604.44,445.7Z" transform="translate(-112.19 -94.44)"/><path class="cls-4" d="M383.47,350.57c.24-1.11.5-2.33.79-3.64s.58-2.69.89-4.14.64-2.92,1-4.45.68-3.06,1-4.61h4.33c-.39,1.67-.75,3.24-1.09,4.71s-.66,2.9-1,4.25-.6,2.68-.88,4-.59,2.6-.89,3.91Z" transform="translate(-112.19 -94.44)"/><path class="cls-4" d="M395.48,352.39A3.59,3.59,0,0,0,397,351a11.18,11.18,0,0,0,1.17-2.32,20.53,20.53,0,0,0,.86-2.78,26.89,26.89,0,0,0,.54-2.8,5.71,5.71,0,0,0,.06-1,1.71,1.71,0,0,0-.16-.73A.75.75,0,0,0,399,341a1.3,1.3,0,0,0-.79,0,3.24,3.24,0,0,0-1.57,1.08,6.42,6.42,0,0,0-1.14,2.46L394,350.55l-4,.05,2.75-11.87h4.07l-.27,1.17a4.76,4.76,0,0,1,1.69-1,5.53,5.53,0,0,1,1.75-.27,4.27,4.27,0,0,1,1.51.26,2.52,2.52,0,0,1,1,.66,2.6,2.6,0,0,1,.7.93,4.05,4.05,0,0,1,.3,1.21,6.79,6.79,0,0,1,0,1.35c0,.47-.13.94-.23,1.42s-.27,1.19-.44,1.82a12.81,12.81,0,0,1-.69,1.84,9,9,0,0,1-1,1.72,6.2,6.2,0,0,1-1.41,1.39,6.42,6.42,0,0,1-1.88.9A6.93,6.93,0,0,1,395.48,352.39Z" transform="translate(-112.19 -94.44)"/><path class="cls-4" d="M404,350.55l2.12-9.59h-1.36l.53-2.23h1.29l1.24-5,3.79.07-1.24,4.88,3.64,0c-.29.45-.55.83-.79,1.14a2.91,2.91,0,0,1-.83.71,3.57,3.57,0,0,1-1,.35,8.12,8.12,0,0,1-1.4.1l-2.25,9.61Z" transform="translate(-112.19 -94.44)"/><path class="cls-4" d="M417.82,343.74l4.73.05a2.62,2.62,0,0,1-.9,1.27,4,4,0,0,1-1.32.6,5.6,5.6,0,0,1-1.48.17h-1.44a3,3,0,0,0-.23,1.5,2.22,2.22,0,0,0,.48,1.09,2.47,2.47,0,0,0,.93.66,2.84,2.84,0,0,0,1.12.19,2,2,0,0,0,.89-.11,2.75,2.75,0,0,0,.87-.44,1.83,1.83,0,0,0,.59-.71,1,1,0,0,0,0-.87h3.54a4.18,4.18,0,0,1-1.54,2.25,8.36,8.36,0,0,1-2.67,1.33,10.24,10.24,0,0,1-3.15.4,9,9,0,0,1-3-.54,2.79,2.79,0,0,1-1.74-1.56,4.48,4.48,0,0,1-.28-2.76l1.79-7.52,9.16,0a3.12,3.12,0,0,1,2.06.67,2.07,2.07,0,0,1,.72,1.45l-3.11,2.23a1.7,1.7,0,0,0-.46-1.45,3.08,3.08,0,0,0-1.35-.76,7.53,7.53,0,0,0-1.76-.29c-.62,0-1.18-.06-1.66-.06Z" transform="translate(-112.19 -94.44)"/><path class="cls-4" d="M433,338.73l-.33,1.07a5.92,5.92,0,0,1,.86-.51,7.12,7.12,0,0,1,1.06-.43,5.49,5.49,0,0,1,1.14-.23,3.16,3.16,0,0,1,1.11.1,1.73,1.73,0,0,1,.94.69,1.55,1.55,0,0,1,.17,1.16l-2.17,3.69a2.11,2.11,0,0,0-.07-.48c0-.2-.09-.44-.16-.73a2,2,0,0,0-.86-1.43,1.31,1.31,0,0,0-1.34,0,2.83,2.83,0,0,0-.91.94,5.69,5.69,0,0,0-.73,1.87l-1.62,6.2-3.95,0,2.73-11.84Z" transform="translate(-112.19 -94.44)"/><path class="cls-4" d="M442.58,352.39a3.63,3.63,0,0,0,1.5-1.35,11.7,11.7,0,0,0,1.18-2.32,23.83,23.83,0,0,0,.86-2.78c.23-1,.41-1.91.53-2.8a5.71,5.71,0,0,0,.06-1,1.71,1.71,0,0,0-.16-.73.72.72,0,0,0-.45-.39,1.3,1.3,0,0,0-.79,0,3.29,3.29,0,0,0-1.57,1.08,6.42,6.42,0,0,0-1.14,2.46l-1.47,5.92-4,.05,2.75-11.87h4.08l-.28,1.17a4.76,4.76,0,0,1,1.69-1,5.53,5.53,0,0,1,1.75-.27,4.27,4.27,0,0,1,1.51.26,2.46,2.46,0,0,1,1,.66,2.49,2.49,0,0,1,.7.93,4.05,4.05,0,0,1,.3,1.21,6.79,6.79,0,0,1,0,1.35c-.05.47-.13.94-.23,1.42s-.27,1.19-.44,1.82a12.81,12.81,0,0,1-.69,1.84,9,9,0,0,1-1,1.72,6.2,6.2,0,0,1-1.41,1.39,6.48,6.48,0,0,1-1.87.9A7,7,0,0,1,442.58,352.39Z" transform="translate(-112.19 -94.44)"/><path class="cls-4" d="M456.05,343.74l4.73.05a2.54,2.54,0,0,1-.89,1.27,4,4,0,0,1-1.32.6,5.6,5.6,0,0,1-1.48.17h-1.44a3,3,0,0,0-.23,1.5,2.22,2.22,0,0,0,.48,1.09,2.47,2.47,0,0,0,.93.66,2.84,2.84,0,0,0,1.12.19,2,2,0,0,0,.89-.11,2.75,2.75,0,0,0,.87-.44,1.83,1.83,0,0,0,.59-.71,1,1,0,0,0,0-.87h3.54a4.18,4.18,0,0,1-1.54,2.25,8.36,8.36,0,0,1-2.67,1.33,10.24,10.24,0,0,1-3.15.4,9,9,0,0,1-3-.54,2.79,2.79,0,0,1-1.74-1.56,4.41,4.41,0,0,1-.28-2.76l1.79-7.52,9.16,0a3.14,3.14,0,0,1,2.06.67,2.07,2.07,0,0,1,.72,1.45l-3.11,2.23a1.7,1.7,0,0,0-.46-1.45,3.08,3.08,0,0,0-1.35-.76,7.53,7.53,0,0,0-1.76-.29c-.62,0-1.18-.06-1.67-.06Z" transform="translate(-112.19 -94.44)"/><path class="cls-4" d="M465.44,350.55l2.12-9.59H466.2l.53-2.23H468l1.24-5,3.79.07-1.24,4.88,3.64,0a13.62,13.62,0,0,1-.79,1.14,2.91,2.91,0,0,1-.83.71,3.57,3.57,0,0,1-1,.35,8,8,0,0,1-1.39.1l-2.25,9.61Z" transform="translate(-112.19 -94.44)"/><path class="cls-4" d="M480,350.57l.78-3.64c.29-1.32.59-2.69.9-4.14s.64-2.92,1-4.45.68-3.06,1-4.61h4.33c-.39,1.67-.75,3.24-1.09,4.71s-.66,2.9-1,4.25-.6,2.68-.89,4-.58,2.6-.88,3.91Z" transform="translate(-112.19 -94.44)"/><path class="cls-4" d="M492,352.39a3.59,3.59,0,0,0,1.51-1.35,11.69,11.69,0,0,0,1.17-2.32,20.53,20.53,0,0,0,.86-2.78,24.39,24.39,0,0,0,.53-2.8,5.79,5.79,0,0,0,.07-1,1.71,1.71,0,0,0-.17-.73.73.73,0,0,0-.44-.39,1.34,1.34,0,0,0-.8,0,3.26,3.26,0,0,0-1.56,1.08,6.42,6.42,0,0,0-1.14,2.46l-1.47,5.92-4.05.05,2.76-11.87h4.07l-.28,1.17a4.89,4.89,0,0,1,1.7-1,5.51,5.51,0,0,1,1.74-.27,4.29,4.29,0,0,1,1.52.26,2.52,2.52,0,0,1,1,.66,2.46,2.46,0,0,1,.69.93,4.07,4.07,0,0,1,.31,1.21,6.79,6.79,0,0,1,0,1.35c-.06.47-.13.94-.23,1.42s-.27,1.19-.45,1.82a11.67,11.67,0,0,1-.68,1.84,9.57,9.57,0,0,1-1,1.72,6.26,6.26,0,0,1-3.29,2.29A6.93,6.93,0,0,1,492,352.39Z" transform="translate(-112.19 -94.44)"/><path class="cls-4" d="M512.58,350.62h-1.89l-1.93,0c.27-1.38.6-2.81,1-4.3s.73-2.89,1-4.22a2,2,0,0,0-1.59-.66,3.06,3.06,0,0,0-1.68.63,5.3,5.3,0,0,0-2,3.9,2.24,2.24,0,0,0,0,.52,2.85,2.85,0,0,0,.07.51,1.72,1.72,0,0,0,.58,1.15,1.28,1.28,0,0,0,.93.27,2.25,2.25,0,0,0,1-.38,2.68,2.68,0,0,0,.8-.81,3.59,3.59,0,0,1-.51,1.82,3.68,3.68,0,0,1-1.29,1.31,3.61,3.61,0,0,1-1.8.48,3.92,3.92,0,0,1-2-.6,3.62,3.62,0,0,1-1.29-1.35,5,5,0,0,1-.6-1.78,6.92,6.92,0,0,1,0-2,7.93,7.93,0,0,1,.56-1.93,8,8,0,0,1,1-1.7,5.06,5.06,0,0,1,1.37-1.22,5,5,0,0,1,1.53-.76,8.61,8.61,0,0,1,1.92-.39,6.68,6.68,0,0,1,2,.1,3.64,3.64,0,0,1,1.63.74l.3-1.14,3.77,0Z" transform="translate(-112.19 -94.44)"/><path class="cls-4" d="M522.87,332.82l-4.12,17.75h-4.07l3.71-16.82Z" transform="translate(-112.19 -94.44)"/><path class="cls-4" d="M532.68,350.62H530.8l-1.94,0c.27-1.38.6-2.81,1-4.3s.73-2.89,1-4.22a2.06,2.06,0,0,0-1.6-.66,3.06,3.06,0,0,0-1.68.63,5.13,5.13,0,0,0-1.38,1.61,5.26,5.26,0,0,0-.65,2.29,1.8,1.8,0,0,0,0,.52,4.18,4.18,0,0,0,.06.51,1.77,1.77,0,0,0,.58,1.15,1.3,1.3,0,0,0,.94.27,2.21,2.21,0,0,0,1-.38,2.61,2.61,0,0,0,.81-.81,3.77,3.77,0,0,1-1.81,3.13,3.6,3.6,0,0,1-1.79.48,4,4,0,0,1-2-.6,3.62,3.62,0,0,1-1.29-1.35,5.19,5.19,0,0,1-.59-1.78,6.58,6.58,0,0,1,0-2,7.91,7.91,0,0,1,.55-1.93,7.67,7.67,0,0,1,1-1.7,5,5,0,0,1,1.36-1.22,5.21,5.21,0,0,1,1.53-.76,8.84,8.84,0,0,1,1.92-.39,6.66,6.66,0,0,1,2,.1,3.59,3.59,0,0,1,1.63.74l.31-1.14,3.76,0Z" transform="translate(-112.19 -94.44)"/><path class="cls-4" d="M546.42,340.33a5.39,5.39,0,0,1,2-1.36,5.33,5.33,0,0,1,2.51-.29,3,3,0,0,1,2.57,1.85,7.62,7.62,0,0,1,.21,4.12,18,18,0,0,1-.56,2.3,14.82,14.82,0,0,1-1,2.51,6.71,6.71,0,0,1-2.39,2.53,5.62,5.62,0,0,1-3.71.58,3.25,3.25,0,0,0,1.42-1.15,9.9,9.9,0,0,0,1.16-2,16.42,16.42,0,0,0,.85-2.48,19.87,19.87,0,0,0,.49-2.44,9.52,9.52,0,0,0,.09-1.93q-.06-.81-.39-1a1.09,1.09,0,0,0-.85-.14,2,2,0,0,0-.76.42,2.79,2.79,0,0,0-.58.73,3.81,3.81,0,0,0-.34.81l-1.65,7.21-3.81,0,1.59-7.21a2.24,2.24,0,0,0,0-1.72.86.86,0,0,0-.89-.43,2.12,2.12,0,0,0-1.15.66,3.08,3.08,0,0,0-.82,1.51l-1.82,7.21-4,0,2.63-11.74,4,0-.25,1.12a2.84,2.84,0,0,1,1.29-.91,4,4,0,0,1,1.63-.27,3.51,3.51,0,0,1,1.53.43A2.36,2.36,0,0,1,546.42,340.33Z" transform="translate(-112.19 -94.44)"/><path class="cls-4" d="M557.87,333.73h3.9l-3.26,13.75a2.83,2.83,0,0,0,1.83.41,3.23,3.23,0,0,0,1.59-.67,4.05,4.05,0,0,0,1.15-1.44,5,5,0,0,0,.53-1.94,2.94,2.94,0,0,0-.19-1.59,1.62,1.62,0,0,0-.78-.86,1.56,1.56,0,0,0-1.11,0,2.39,2.39,0,0,0-1.15.85,4.38,4.38,0,0,1,1.24-2.35,3.2,3.2,0,0,1,1.87-.91,4,4,0,0,1,1.92.29,3.46,3.46,0,0,1,1.4,1.06,3.94,3.94,0,0,1,.75,1.71,6.11,6.11,0,0,1,0,2.25,9.32,9.32,0,0,1-1.19,3.16,6.89,6.89,0,0,1-2.11,2.24,5.72,5.72,0,0,1-2.83.92,6.76,6.76,0,0,1-3.4-.78l-.2.76-3.87,0Z" transform="translate(-112.19 -94.44)"/><path class="cls-4" d="M574.34,338.73,574,339.8a5.92,5.92,0,0,1,.86-.51,7.58,7.58,0,0,1,1.06-.43,5.49,5.49,0,0,1,1.14-.23,3.14,3.14,0,0,1,1.11.1,1.73,1.73,0,0,1,.94.69,1.55,1.55,0,0,1,.17,1.16l-2.17,3.69a2.68,2.68,0,0,0-.06-.48c0-.2-.1-.44-.17-.73a2,2,0,0,0-.86-1.43,1.31,1.31,0,0,0-1.34,0,2.83,2.83,0,0,0-.91.94,5.69,5.69,0,0,0-.73,1.87l-1.62,6.2-3.95,0,2.73-11.84Z" transform="translate(-112.19 -94.44)"/><path class="cls-4" d="M581,338.78h4l-2.74,11.79h-4Zm4.68-3.59a2,2,0,0,1,0,.8,2,2,0,0,1-.29.77,2.13,2.13,0,0,1-.58.62,1.86,1.86,0,0,1-.82.34,2.77,2.77,0,0,1-1.78-.16,1.55,1.55,0,0,1-.9-1.28,2.05,2.05,0,0,1,.57-1.57,2.44,2.44,0,0,1,1.43-.73,2.21,2.21,0,0,1,.81,0,2.66,2.66,0,0,1,.72.25,2.09,2.09,0,0,1,.54.43A1.19,1.19,0,0,1,585.72,335.19Z" transform="translate(-112.19 -94.44)"/><path class="cls-4" d="M597.45,347.38a5.09,5.09,0,0,1-1.23,1.86,6.66,6.66,0,0,1-1.78,1.25,7.55,7.55,0,0,1-2.08.67,8,8,0,0,1-2.17.09,6.47,6.47,0,0,1-2.05-.46,5,5,0,0,1-1.59-1.07,4.52,4.52,0,0,1-1-1.63,5.91,5.91,0,0,1-.37-2.17,9.12,9.12,0,0,1,.46-3.2,7.41,7.41,0,0,1,1.49-2.63,7.22,7.22,0,0,1,2.39-1.79,7.33,7.33,0,0,1,3.17-.63A7.07,7.07,0,0,1,595,338a4.87,4.87,0,0,1,1.79,1,3.33,3.33,0,0,1,.94,3.72c-.25.08-.57.17-.94.26l-1.12.28-1.11.28-.93.24a4.2,4.2,0,0,0,1.29-2,1.51,1.51,0,0,0-.23-1.35,1.37,1.37,0,0,0-1.23-.39,3.07,3.07,0,0,0-1.75.91,6.23,6.23,0,0,0-1.11,1.4,9.1,9.1,0,0,0-.71,1.46c-.1.4-.2.85-.29,1.34a5.94,5.94,0,0,0-.1,1.45,3.91,3.91,0,0,0,.31,1.36,2.32,2.32,0,0,0,.94,1,2.68,2.68,0,0,0,1.23.27,3,3,0,0,0,1.13-.24,2.76,2.76,0,0,0,.93-.67,2.88,2.88,0,0,0,.6-1.05Z" transform="translate(-112.19 -94.44)"/><path class="cls-4" d="M606.86,338.3a7.24,7.24,0,0,1,2,.38,5.72,5.72,0,0,1,1.64.88,4.37,4.37,0,0,1,1.15,1.31,4,4,0,0,1,.52,1.71,8.6,8.6,0,0,1-.1,2.12,7,7,0,0,1-.68,1.95,8.28,8.28,0,0,1-1.32,2,8.61,8.61,0,0,1-1.7,1.46,7.66,7.66,0,0,1-2,.89,7.37,7.37,0,0,1-2.13.31,6.42,6.42,0,0,1-3.1-.61,4.85,4.85,0,0,1-2-1.79,5.5,5.5,0,0,1-.77-2.61,6.72,6.72,0,0,1,.58-3,7.81,7.81,0,0,1,2.81-3.54,8,8,0,0,1,2.29-1.1A8.11,8.11,0,0,1,606.86,338.3Zm-.94,2.13a4.13,4.13,0,0,0-2,1.4,6.83,6.83,0,0,0-1.25,2.77,5.54,5.54,0,0,0-.23,1.25,5.68,5.68,0,0,0,.06,1.31,4,4,0,0,0,.4,1.16,2,2,0,0,0,.75.81,1.54,1.54,0,0,0,.86.2,2.36,2.36,0,0,0,.89-.24,3.31,3.31,0,0,0,.8-.56,4.85,4.85,0,0,0,.64-.72,9.27,9.27,0,0,0,.86-1.79,7.74,7.74,0,0,0,.43-2.15,9.6,9.6,0,0,0-.11-1.48,3.72,3.72,0,0,0-.38-1.14,1.63,1.63,0,0,0-.7-.68A1.75,1.75,0,0,0,605.92,340.43Z" transform="translate(-112.19 -94.44)"/><path class="cls-3" d="M421.26,242.71h16.62q-1.9,9-3.65,16T431.32,271c-.78,3.49-1.38,6.44-1.8,8.83a18.23,18.23,0,0,0-.32,5.61,6.82,6.82,0,0,0,1.22,3.34,3,3,0,0,0,2,1.21,3.88,3.88,0,0,0,2.38-.68,9.72,9.72,0,0,0,2.44-2.28,25.43,25.43,0,0,0,4.7-7.36,103,103,0,0,0,4.71-12,145.68,145.68,0,0,0,3.87-14.07,103.79,103.79,0,0,0,2.17-13.76,39.45,39.45,0,0,0-.43-11.06q-.94-4.65-3.81-6a30.51,30.51,0,0,1,9.74,2.86,15.86,15.86,0,0,1,6.72,6.4,25.34,25.34,0,0,1,2.91,11.22,66.17,66.17,0,0,1-1.8,17.3q-1.26,5.82-2.48,9.9a58.33,58.33,0,0,1-3.13,8.09,48,48,0,0,1-9.26,13.6,28.76,28.76,0,0,1-11,7.25,20.84,20.84,0,0,1-7.09,1.59,16,16,0,0,1-6.19-.95,14.86,14.86,0,0,1-5-3.12,12.9,12.9,0,0,1-3.23-4.93,16.81,16.81,0,0,1-4.39,5,17.54,17.54,0,0,1-5.61,2.86,19.46,19.46,0,0,1-6.24.79,20.33,20.33,0,0,1-6.19-1.16,15.29,15.29,0,0,1-6.94-4.87,23.59,23.59,0,0,1-4-7.62,38.7,38.7,0,0,1-1.7-9.31,78.65,78.65,0,0,1,0-9.95,63.41,63.41,0,0,1,1.8-10.8,97.35,97.35,0,0,1,3.28-10.42q1.91-5,4.13-9.53a83.17,83.17,0,0,1,4.45-8l20.21.11a32.16,32.16,0,0,0-5.45,6.88,69.33,69.33,0,0,0-4.76,9.36,96.66,96.66,0,0,0-3.81,10.8,106.23,106.23,0,0,0-2.6,11,66.39,66.39,0,0,0-1.06,10,29.51,29.51,0,0,0,.75,8,9,9,0,0,0,1.74,3.6,2.38,2.38,0,0,0,2.22.85,4.77,4.77,0,0,0,2.44-1.38,15.51,15.51,0,0,0,2.38-3.07,34.41,34.41,0,0,0,2.28-5.08q1.21-3.29,2.59-8.47t3.07-12.33Q419,252.24,421.26,242.71Z" transform="translate(-112.19 -94.44)"/><path class="cls-3" d="M475.35,250.44h16.72l-11.43,49.32H463.92Zm19.58-15a7.64,7.64,0,0,1,.1,3.34,9.3,9.3,0,0,1-1.22,3.22,8.93,8.93,0,0,1-2.43,2.6,8.14,8.14,0,0,1-3.44,1.43,11.72,11.72,0,0,1-7.46-.69,6.51,6.51,0,0,1-3.76-5.35,8.62,8.62,0,0,1,2.38-6.56,10.39,10.39,0,0,1,6-3.07,9.2,9.2,0,0,1,3.39,0,10,10,0,0,1,3,1.06,8.6,8.6,0,0,1,2.27,1.8A4.58,4.58,0,0,1,494.93,235.41Z" transform="translate(-112.19 -94.44)"/><path class="cls-3" d="M530.7,267a8.57,8.57,0,0,0,.95-3,6.63,6.63,0,0,0-.27-3,5.83,5.83,0,0,0-1.53-2.43,5.39,5.39,0,0,0-2.75-1.33,12.72,12.72,0,0,0-7.09.32,8.63,8.63,0,0,0-4.55,3.12,3.55,3.55,0,0,0,.31,4.24c1.06,1.52,3.57,2.73,7.52,3.65,1.62.42,3.28.85,5,1.27s3.39.92,5.08,1.48a10.49,10.49,0,0,1,4.92,3.18,9.73,9.73,0,0,1,2.17,4.76,11.65,11.65,0,0,1-.58,5.61,19,19,0,0,1-3.33,5.82,31.82,31.82,0,0,1-10.16,7.94,48,48,0,0,1-11.75,3.7,33.76,33.76,0,0,1-10,.42,23.5,23.5,0,0,1-8.68-2.54,13.8,13.8,0,0,1-5.72-5.55A13.09,13.09,0,0,1,489.1,286l17.36-2.43a6,6,0,0,0-2,3,5.74,5.74,0,0,0,.05,3.34,6.16,6.16,0,0,0,2,2.8,7.54,7.54,0,0,0,3.91,1.54,13.1,13.1,0,0,0,3.92.05,12.73,12.73,0,0,0,4-1.16,10.4,10.4,0,0,0,3.22-2.44,6.33,6.33,0,0,0,1.59-3.76,3,3,0,0,0-.26-2,5.1,5.1,0,0,0-1.22-1.58,6.88,6.88,0,0,0-1.64-1.06c-.6-.28-1.08-.5-1.43-.64-2.89-.91-5.41-1.62-7.57-2.11a27.3,27.3,0,0,1-6.61-2.54q-4.77-2.65-6.46-6.14a10.1,10.1,0,0,1-.74-7.15,15,15,0,0,1,4.5-7,28,28,0,0,1,9.47-5.56c1.2-.49,2.38-1,3.55-1.37a23.33,23.33,0,0,1,3.7-1,30.21,30.21,0,0,1,4.29-.48c1.55-.07,3.28-.07,5.18,0a24.47,24.47,0,0,1,11,2.86,13.79,13.79,0,0,1,6.25,7.2Z" transform="translate(-112.19 -94.44)"/><path class="cls-3" d="M564.88,287.8q2.32,3.81,5.45,3.71a9.52,9.52,0,0,0,6-2.7,23.1,23.1,0,0,0,5.08-6.83,27.31,27.31,0,0,0,2.81-8.68,23,23,0,0,0,.37-4.55,14.05,14.05,0,0,0-.63-4,6.52,6.52,0,0,0-1.75-2.8,4.53,4.53,0,0,0-2.86-1.17c-4.09.15-7.23,1.57-9.42,4.29s-4,6.93-5.29,12.65l-10.27,42-16,.22,15.88-69.75h16l-1.38,5.93a13.28,13.28,0,0,1,3.18-2.81,19.36,19.36,0,0,1,4.6-2.17,23.83,23.83,0,0,1,5.56-1.06,19.79,19.79,0,0,1,6,.53A17.5,17.5,0,0,1,599,257q3.7,4.82,3.18,12.65a41.86,41.86,0,0,1-1.86,10.32,31,31,0,0,1-4.23,8.62,28.89,28.89,0,0,1-6.4,6.56,25,25,0,0,1-8.26,4A15.85,15.85,0,0,1,570,297.7a11.17,11.17,0,0,1-4.07-3.92A8.58,8.58,0,0,1,564.88,287.8Z" transform="translate(-112.19 -94.44)"/><path class="cls-5" d="M269.74,389l.18-.54A2.63,2.63,0,0,0,269.74,389Z" transform="translate(-112.19 -94.44)"/><path class="cls-6" d="M271.4,392.1l2.75,1.11L277.2,384l-6.05,3.16a2.73,2.73,0,0,0-1.23,1.37l-.18.54a2.9,2.9,0,0,0-.06.66A2.76,2.76,0,0,0,271.4,392.1Z" transform="translate(-112.19 -94.44)"/><path class="cls-7" d="M261.47,430.3a2.62,2.62,0,0,1-1,.2,2.75,2.75,0,0,1-1-5.3l4.86-2,9.87-30-2.75-1.11a2.76,2.76,0,0,1-1.72-2.42,2.9,2.9,0,0,1,.06-.66l-17,51.69a2.76,2.76,0,0,0,1.75,3.47,3,3,0,0,0,.88.12q2.58-6.63,6.15-14Z" transform="translate(-112.19 -94.44)"/><path class="cls-8" d="M262.84,427.61c.5-1,1-2,1.51-3l.91-1.75-1,.4Z" transform="translate(-112.19 -94.44)"/><path class="cls-9" d="M264.28,423.24l-4.86,2a2.75,2.75,0,0,0,1,5.3,2.62,2.62,0,0,0,1-.2l.06,0c.42-.88.87-1.78,1.31-2.67Z" transform="translate(-112.19 -94.44)"/><path class="cls-10" d="M305.93,289.89l1.8,1.17,6.08-18.51L319.89,291l1.77-1.15a2.75,2.75,0,1,1,3,4.6l-3,2,1.55,4.72,6.51,4.24a2.75,2.75,0,0,1-.11,4.68l-2.9,1.71,3.59,10.93,6.28,3.69a2.75,2.75,0,0,1-.22,4.86l-.92.43h3.6l-20.45-62.2a7.37,7.37,0,0,1-9.58,0L302,291c.05-.1.1-.21.16-.31A2.76,2.76,0,0,1,305.93,289.89Z" transform="translate(-112.19 -94.44)"/><path class="cls-11" d="M291,326.42l6.33-3.72,3.58-10.88L298,310.09a2.75,2.75,0,0,1-.11-4.68l6.56-4.28,1.53-4.66-3-2a2.73,2.73,0,0,1-1.2-2.74l-11.81,35.9A2.76,2.76,0,0,1,291,326.42Z" transform="translate(-112.19 -94.44)"/><path class="cls-12" d="M271.15,387.11,277.2,384l9-27.36-2.87-1.5a2.74,2.74,0,0,1,.1-4.92l5.78-2.73,4.87-14.82-2.85-1.34a2.67,2.67,0,0,1-1.51-3l-19.79,60.2A2.73,2.73,0,0,1,271.15,387.11Z" transform="translate(-112.19 -94.44)"/><path class="cls-13" d="M313.81,261a2.77,2.77,0,0,1,2.62,1.89l2.17,6.63a7.53,7.53,0,1,0-9.58,0l2.18-6.63A2.76,2.76,0,0,1,313.81,261Z" transform="translate(-112.19 -94.44)"/><path class="cls-14" d="M318.6,269.51l-2.17-6.63a2.75,2.75,0,0,0-5.23,0L309,269.51a7.37,7.37,0,0,0,9.58,0Z" transform="translate(-112.19 -94.44)"/><path class="cls-15" d="M313.8,319.4l15.52,9.12-15.52,7.32,6.44,3,11.26-5.3c.63-.53,1.25-1.05,1.87-1.54l-3.06-9.31-11.09-6.52Z" transform="translate(-112.19 -94.44)"/><polygon class="cls-16" points="201.6 218.57 192.38 213.15 201.6 207.14 196.57 203.86 192.22 206.69 188.71 217.37 196.18 221.76 201.6 218.57"/><polygon class="cls-17" points="206.63 203.86 209.48 202 207.7 196.6 201.6 200.57 206.63 203.86"/><path class="cls-18" d="M305.07,361.77l.87-1.06-15.17-7.93,23-10.86-6.45-3-18.15,8.56-3,9.15,16.27,8.51C303.33,364,304.2,362.86,305.07,361.77Z" transform="translate(-112.19 -94.44)"/><path class="cls-19" d="M337.94,328.92a2.75,2.75,0,0,0-1.35-2.5l-6.28-3.69,3.06,9.31.4-.33h1.68l.92-.43A2.74,2.74,0,0,0,337.94,328.92Z" transform="translate(-112.19 -94.44)"/><path class="cls-20" d="M297.86,305.41a2.75,2.75,0,0,0,.11,4.68l2.94,1.73,3.51-10.69Z" transform="translate(-112.19 -94.44)"/><path class="cls-21" d="M324.67,294.49a2.75,2.75,0,1,0-3-4.6L319.89,291l1.78,5.41Z" transform="translate(-112.19 -94.44)"/><path class="cls-22" d="M283.42,350.17a2.74,2.74,0,0,0-.1,4.92l2.87,1.5,3-9.15Z" transform="translate(-112.19 -94.44)"/><path class="cls-23" d="M313.8,341.92l6,2.84.16-.18c1.33-1.4,2.62-2.72,3.9-4l-3.63-1.71Z" transform="translate(-112.19 -94.44)"/><polygon class="cls-24" points="201.6 241.4 186.08 234.08 201.6 224.95 196.18 221.76 185.13 228.26 181.87 238.18 195.16 244.44 201.6 241.4"/><path class="cls-25" d="M295.45,374.41,277.2,384l-3.05,9.26,6.71,2.7q1.49-2.36,3-4.71l-4.91-2,9.57-5c.54-.8,1.07-1.59,1.62-2.39C291.92,379.3,293.68,376.84,295.45,374.41Z" transform="translate(-112.19 -94.44)"/><polygon class="cls-26" points="201.6 207.14 210.82 213.15 201.6 218.57 207.03 221.76 214.52 217.35 211.03 206.72 206.63 203.86 201.6 207.14"/><polygon class="cls-27" points="201.6 200.57 195.53 196.62 193.76 202.02 196.57 203.86 201.6 200.57"/><path class="cls-28" d="M289.71,328.28l.2-.63A2.72,2.72,0,0,0,289.71,328.28Z" transform="translate(-112.19 -94.44)"/><path class="cls-29" d="M301.72,291.75,302,291A2.53,2.53,0,0,0,301.72,291.75Z" transform="translate(-112.19 -94.44)"/><path class="cls-30" d="M291.22,331.28l2.85,1.34,3.26-9.92L291,326.42a2.76,2.76,0,0,0-1.09,1.23l-.2.63a2.67,2.67,0,0,0,1.51,3Z" transform="translate(-112.19 -94.44)"/><path class="cls-31" d="M329.62,310.09a2.75,2.75,0,0,0,.11-4.68l-6.51-4.24,3.5,10.63Z" transform="translate(-112.19 -94.44)"/><path class="cls-32" d="M302.92,294.49l3,2,1.78-5.41-1.8-1.17a2.76,2.76,0,0,0-3.81.8c-.06.1-.11.21-.16.31l-.24.75A2.73,2.73,0,0,0,302.92,294.49Z" transform="translate(-112.19 -94.44)"/><polygon class="cls-33" points="195.16 244.44 201.6 247.48 208.05 244.44 201.6 241.4 195.16 244.44"/><polygon class="cls-34" points="201.6 200.57 196.57 203.86 201.6 207.14 206.63 203.86 201.6 200.57"/><polygon class="cls-35" points="201.6 218.57 196.18 221.76 201.6 224.95 207.03 221.76 201.6 218.57"/><path class="cls-36" d="M362.73,390.71A256.76,256.76,0,0,0,359.94,361a175.61,175.61,0,0,0-7-29.29H333.78c-.14.1-.27.22-.41.33-.61.49-1.24,1-1.87,1.53q-3.67,3.09-7.63,7c-1.27,1.27-2.57,2.59-3.89,4l-.17.18Q313,352,305.94,360.7l-.86,1.05c-.88,1.1-1.75,2.22-2.62,3.33q-3.52,4.51-7,9.32c-1.76,2.42-3.52,4.88-5.27,7.42-.55.79-1.08,1.59-1.62,2.38q-2.38,3.49-4.67,7-1.53,2.35-3,4.71c-1.55,2.44-3.08,4.89-4.57,7.34q-6,9.87-11,19.59c-.3.58-.62,1.16-.92,1.74-.52,1-1,2-1.5,3s-.9,1.79-1.32,2.67c-2.37,4.92-4.43,9.6-6.14,14h0l20.66.17q2.88-6.6,5.84-12.11t7.2-12.44l15.91.17a25.58,25.58,0,0,0,7-.85,18.14,18.14,0,0,0,5.67-2.79,33.09,33.09,0,0,0,4.42-3.91c.39-.41.78-.82,1.17-1.26.82-.91,1.73-2,2.69-3.11,1.3-1.54,2.7-3.25,4.25-5.18h-1.07l-14.89.08h-.91l-14.52.08h-1.29l.27-.42q1.4-2.14,3-4.73c.8-1.31,1.63-2.69,2.51-4.17q3.21-5.41,7.11-11.51,3.07-4.8,6.56-9.66c.63-.87,1.26-1.74,1.91-2.62.46-.63.94-1.24,1.41-1.85.25-.32.5-.66.75-1a112.19,112.19,0,0,1,7.49-8.61c.31,1.39.6,2.8.88,4.23.69,3.52,1.26,7.21,1.75,11q.4,3.22.72,6.58.66,7.25.89,15.14c0,.86.06,1.7.08,2.56,0,1.11,0,2.22,0,3.33q0,4.69-.07,9.43c0,1.95-.11,3.9-.19,5.86q-.56,13.38-2.23,27.18l30,.34c.51-4.94,1-10.22,1.38-15.78.14-1.88.28-3.81.41-5.76l.18-2.65c0-.35,0-.69.07-1q.44-7.27.5-14.82Q363,397.58,362.73,390.71Z" transform="translate(-112.19 -94.44)"/><path class="cls-37" d="M329.31,265.63a19.59,19.59,0,1,0-31,0l2.31-7a14.1,14.1,0,1,1,26.39,0Z" transform="translate(-112.19 -94.44)"/><path class="cls-37" d="M345,253.69A31.2,31.2,0,1,0,294.26,278l1.87-5.68a25.7,25.7,0,1,1,35.37,0l1.87,5.68A31.15,31.15,0,0,0,345,253.69Z" transform="translate(-112.19 -94.44)"/><path class="cls-37" d="M286.89,300.39l1.75-5.34a48.43,48.43,0,1,1,50.35,0l1.75,5.34a53.93,53.93,0,1,0-53.85,0Z" transform="translate(-112.19 -94.44)"/><path class="cls-37" d="M356.7,253.69a42.89,42.89,0,1,0-66.27,35.92l1.79-5.43a37.39,37.39,0,1,1,43.19,0l1.79,5.43A42.86,42.86,0,0,0,356.7,253.69Z" transform="translate(-112.19 -94.44)"/></svg>