<svg id="Capa_1" data-name="Capa 1" xmlns="http://www.w3.org/2000/svg" xmlns:xlink="http://www.w3.org/1999/xlink" viewBox="0 0 530.36 530.36"><defs><style>.cls-1{fill:#fff;}.cls-2{fill:url(#Degradado_sin_nombre_6);}.cls-3{fill:#002d81;stroke:#fff;stroke-miterlimit:10;stroke-width:2px;}.cls-4{fill:#211915;}.cls-5{fill:url(#Degradado_sin_nombre_145);}.cls-6{fill:url(#Degradado_sin_nombre_145-2);}.cls-7{fill:url(#Degradado_sin_nombre_145-3);}.cls-8{fill:url(#Degradado_sin_nombre_145-4);}.cls-9{fill:url(#Degradado_sin_nombre_145-5);}.cls-10{fill:url(#Degradado_sin_nombre_145-6);}.cls-11{fill:url(#Degradado_sin_nombre_145-7);}.cls-12{fill:url(#Degradado_sin_nombre_145-8);}.cls-13{fill:url(#Degradado_sin_nombre_145-9);}.cls-14{fill:url(#Degradado_sin_nombre_145-10);}.cls-15{fill:url(#Degradado_sin_nombre_145-11);}.cls-16{fill:url(#Degradado_sin_nombre_145-12);}.cls-17{fill:url(#Degradado_sin_nombre_145-13);}.cls-18{fill:url(#Degradado_sin_nombre_145-14);}.cls-19{fill:url(#Degradado_sin_nombre_145-15);}.cls-20{fill:url(#Degradado_sin_nombre_145-16);}.cls-21{fill:url(#Degradado_sin_nombre_145-17);}.cls-22{fill:url(#Degradado_sin_nombre_145-18);}.cls-23{fill:url(#Degradado_sin_nombre_145-19);}.cls-24{fill:url(#Degradado_sin_nombre_145-20);}.cls-25{fill:url(#Degradado_sin_nombre_145-21);}.cls-26{fill:url(#Degradado_sin_nombre_145-22);}.cls-27{fill:url(#Degradado_sin_nombre_145-23);}.cls-28{fill:url(#Degradado_sin_nombre_145-24);}.cls-29{fill:url(#Degradado_sin_nombre_145-25);}.cls-30{fill:url(#Degradado_sin_nombre_145-26);}.cls-31{fill:url(#Degradado_sin_nombre_145-27);}.cls-32{fill:url(#Degradado_sin_nombre_145-28);}.cls-33{fill:url(#Degradado_sin_nombre_145-29);}.cls-34{fill:url(#Degradado_sin_nombre_145-30);}.cls-35{fill:url(#Degradado_sin_nombre_145-31);}.cls-36{fill:#be0811;}.cls-37{fill:#001d7e;}</style><linearGradient id="Degradado_sin_nombre_6" x1="251.66" y1="248.09" x2="523.94" y2="248.09" gradientUnits="userSpaceOnUse"><stop offset="0" stop-color="#f7e02c"/><stop offset="0.46" stop-color="#fff"/><stop offset="1" stop-color="#f7e02c"/></linearGradient><linearGradient id="Degradado_sin_nombre_145" x1="252" y1="463.33" x2="254.98" y2="201.56" gradientUnits="userSpaceOnUse"><stop offset="0.07" stop-color="#be0811"/><stop offset="0.08" stop-color="#c31a22"/><stop offset="0.11" stop-color="#cf494f"/><stop offset="0.14" stop-color="#e39498"/><stop offset="0.18" stop-color="#fefafa"/><stop offset="0.18" stop-color="#fff"/><stop offset="0.21" stop-color="#eebec1"/><stop offset="0.26" stop-color="#d45d63"/><stop offset="0.3" stop-color="#c42028"/><stop offset="0.32" stop-color="#be0811"/><stop offset="0.36" stop-color="#ce444b"/><stop offset="0.42" stop-color="#e39497"/><stop offset="0.47" stop-color="#f2cecf"/><stop offset="0.51" stop-color="#fbf1f2"/><stop offset="0.53" stop-color="#fff"/><stop offset="0.54" stop-color="#f9e9ea"/><stop offset="0.56" stop-color="#ecb5b8"/><stop offset="0.59" stop-color="#df878b"/><stop offset="0.61" stop-color="#d56066"/><stop offset="0.64" stop-color="#cd4047"/><stop offset="0.67" stop-color="#c6272f"/><stop offset="0.7" stop-color="#c2161e"/><stop offset="0.73" stop-color="#bf0b14"/><stop offset="0.76" stop-color="#be0811"/></linearGradient><linearGradient id="Degradado_sin_nombre_145-2" x1="255.58" y1="463.37" x2="258.56" y2="201.6" xlink:href="#Degradado_sin_nombre_145"/><linearGradient id="Degradado_sin_nombre_145-3" x1="245.88" y1="463.26" x2="248.86" y2="201.49" xlink:href="#Degradado_sin_nombre_145"/><linearGradient id="Degradado_sin_nombre_145-4" x1="246.64" y1="463.27" x2="249.62" y2="201.5" xlink:href="#Degradado_sin_nombre_145"/><linearGradient id="Degradado_sin_nombre_145-5" x1="243.57" y1="463.23" x2="246.56" y2="201.46" xlink:href="#Degradado_sin_nombre_145"/><linearGradient id="Degradado_sin_nombre_145-6" x1="301.78" y1="463.89" x2="304.77" y2="202.12" xlink:href="#Degradado_sin_nombre_145"/><linearGradient id="Degradado_sin_nombre_145-7" x1="279.22" y1="463.64" x2="282.2" y2="201.87" xlink:href="#Degradado_sin_nombre_145"/><linearGradient id="Degradado_sin_nombre_145-8" x1="263.84" y1="463.46" x2="266.82" y2="201.69" xlink:href="#Degradado_sin_nombre_145"/><linearGradient id="Degradado_sin_nombre_145-9" x1="294.55" y1="463.81" x2="297.53" y2="202.04" xlink:href="#Degradado_sin_nombre_145"/><linearGradient id="Degradado_sin_nombre_145-10" x1="294.62" y1="463.81" x2="297.6" y2="202.04" xlink:href="#Degradado_sin_nombre_145"/><linearGradient id="Degradado_sin_nombre_145-11" x1="305.02" y1="463.93" x2="308.01" y2="202.16" xlink:href="#Degradado_sin_nombre_145"/><linearGradient id="Degradado_sin_nombre_145-12" x1="193.44" y1="369.01" x2="196.42" y2="107.24" xlink:href="#Degradado_sin_nombre_145"/><linearGradient id="Degradado_sin_nombre_145-13" x1="203.63" y1="369.13" x2="206.61" y2="107.36" xlink:href="#Degradado_sin_nombre_145"/><linearGradient id="Degradado_sin_nombre_145-14" x1="281.71" y1="463.67" x2="284.69" y2="201.9" xlink:href="#Degradado_sin_nombre_145"/><linearGradient id="Degradado_sin_nombre_145-15" x1="315.57" y1="464.05" x2="318.55" y2="202.28" xlink:href="#Degradado_sin_nombre_145"/><linearGradient id="Degradado_sin_nombre_145-16" x1="281.72" y1="463.67" x2="284.7" y2="201.9" xlink:href="#Degradado_sin_nombre_145"/><linearGradient id="Degradado_sin_nombre_145-17" x1="303.96" y1="463.92" x2="306.94" y2="202.15" xlink:href="#Degradado_sin_nombre_145"/><linearGradient id="Degradado_sin_nombre_145-18" x1="267.24" y1="463.5" x2="270.23" y2="201.73" xlink:href="#Degradado_sin_nombre_145"/><linearGradient id="Degradado_sin_nombre_145-19" x1="300.45" y1="463.88" x2="303.43" y2="202.11" xlink:href="#Degradado_sin_nombre_145"/><linearGradient id="Degradado_sin_nombre_145-20" x1="190.27" y1="368.97" x2="193.25" y2="107.2" xlink:href="#Degradado_sin_nombre_145"/><linearGradient id="Degradado_sin_nombre_145-21" x1="266.91" y1="463.5" x2="269.89" y2="201.73" xlink:href="#Degradado_sin_nombre_145"/><linearGradient id="Degradado_sin_nombre_145-22" x1="206.27" y1="369.16" x2="209.26" y2="107.39" xlink:href="#Degradado_sin_nombre_145"/><linearGradient id="Degradado_sin_nombre_145-23" x1="195.77" y1="369.04" x2="198.75" y2="107.27" xlink:href="#Degradado_sin_nombre_145"/><linearGradient id="Degradado_sin_nombre_145-24" x1="271.28" y1="463.55" x2="274.26" y2="201.78" xlink:href="#Degradado_sin_nombre_145"/><linearGradient id="Degradado_sin_nombre_145-25" x1="282.89" y1="463.68" x2="285.87" y2="201.91" xlink:href="#Degradado_sin_nombre_145"/><linearGradient id="Degradado_sin_nombre_145-26" x1="274.93" y1="463.59" x2="277.92" y2="201.82" xlink:href="#Degradado_sin_nombre_145"/><linearGradient id="Degradado_sin_nombre_145-27" x1="308.3" y1="463.97" x2="311.28" y2="202.2" xlink:href="#Degradado_sin_nombre_145"/><linearGradient id="Degradado_sin_nombre_145-28" x1="285.76" y1="463.71" x2="288.74" y2="201.94" xlink:href="#Degradado_sin_nombre_145"/><linearGradient id="Degradado_sin_nombre_145-29" x1="200.18" y1="369.09" x2="203.16" y2="107.32" xlink:href="#Degradado_sin_nombre_145"/><linearGradient id="Degradado_sin_nombre_145-30" x1="199.72" y1="369.08" x2="202.7" y2="107.31" xlink:href="#Degradado_sin_nombre_145"/><linearGradient id="Degradado_sin_nombre_145-31" x1="199.92" y1="369.08" x2="202.91" y2="107.31" xlink:href="#Degradado_sin_nombre_145"/></defs><title>logo-brartnet</title><circle class="cls-1" cx="265.18" cy="265.18" r="265.18"/><polygon class="cls-2" points="517.05 260.8 251.66 260.8 256.82 235.37 523.94 235.37 517.05 260.8"/><path class="cls-3" d="M178.61,393.1a13.2,13.2,0,0,1,7.78,4.26,15.83,15.83,0,0,1,3.46,7.67,28.5,28.5,0,0,1-.06,9.39,37.87,37.87,0,0,1-2.76,9.33,33,33,0,0,1-6.69,10.66,40.13,40.13,0,0,1-10.08,8,34.5,34.5,0,0,1-11.64,4,20.87,20.87,0,0,1-11.35-1.27,15.39,15.39,0,0,1-4.09-2.65,15,15,0,0,1-2.94-3.57,10.83,10.83,0,0,1-1.44-4.15,10.26,10.26,0,0,1,.52-4.61c.54.93,1,1.81,1.5,2.65A6.86,6.86,0,0,0,142.6,435a7,7,0,0,0,2.83,1.26,14.38,14.38,0,0,0,4.72.06,16.94,16.94,0,0,0,7.84-3.05,37,37,0,0,0,12.67-14.92,17.17,17.17,0,0,0,1.73-8.65,6.82,6.82,0,0,0-4.78-5.87,7.17,7.17,0,0,0-3.86-.12,10.26,10.26,0,0,0-3.92,1.84,59.93,59.93,0,0,1-5.24,3.12q-2.84,1.48-5.59,3l-5.24,2.83q-2.49,1.32-4.21,2.36c-.46,2-1,4.24-1.61,6.74s-1.23,5.07-1.85,7.72-1.25,5.24-1.9,7.78-1.21,4.76-1.67,6.68q-5.19.12-10.08.12H114q4.61-19.49,9.1-38.2T131.94,369l38.95.23a13,13,0,0,1,7.84,2.19,10.92,10.92,0,0,1,4.09,5.64,14.18,14.18,0,0,1,.06,7.72A21.4,21.4,0,0,1,178.61,393.1ZM142,403.24q2.88-1.85,6.45-3.86c2.38-1.34,4.69-2.77,6.92-4.26s4.28-3,6.16-4.56a18.18,18.18,0,0,0,4.21-4.61c.69-1.15.78-2.05.29-2.7a4.76,4.76,0,0,0-2.54-1.5,16.45,16.45,0,0,0-4.21-.58c-1.61,0-3.18,0-4.72.06a39.09,39.09,0,0,0-4.09.4c-1.19.2-2,.33-2.36.41Z" transform="translate(-95.21 -94.74)"/><path class="cls-3" d="M221.13,391.83l-1.5,4.84a30.15,30.15,0,0,1,3.92-2.3,33.78,33.78,0,0,1,4.84-2,24.12,24.12,0,0,1,5.19-1,14,14,0,0,1,5.07.46,7.54,7.54,0,0,1,4.26,3.11,7.19,7.19,0,0,1,.81,5.3l-9.91,16.83a11.56,11.56,0,0,0-.29-2.19c-.19-.92-.44-2-.75-3.34q-.92-4.73-3.92-6.51a5.91,5.91,0,0,0-6.1-.18,12.84,12.84,0,0,0-4.15,4.27,26.15,26.15,0,0,0-3.34,8.52l-7.38,28.24-18-.12,12.44-53.93Z" transform="translate(-95.21 -94.74)"/><path class="cls-3" d="M379.23,391.83l-1.5,4.84a29.5,29.5,0,0,1,3.92-2.3,33.31,33.31,0,0,1,4.84-2,24,24,0,0,1,5.18-1,14,14,0,0,1,5.07.46,7.56,7.56,0,0,1,4.27,3.11,7.15,7.15,0,0,1,.8,5.3l-9.91,16.83a11.4,11.4,0,0,0-.28-2.19c-.2-.92-.45-2-.75-3.34-.62-3.15-1.92-5.32-3.92-6.51a5.93,5.93,0,0,0-6.11-.18,13,13,0,0,0-4.15,4.27,26.38,26.38,0,0,0-3.34,8.52L366,445.88l-18-.12,12.45-53.93Z" transform="translate(-95.21 -94.74)"/><path class="cls-3" d="M402.85,445.64,412.53,402h-6.22l2.42-10.14h5.87l5.65-22.58,17.28.34-5.64,22.24,16.59-.11a55.17,55.17,0,0,1-3.63,5.18,12.86,12.86,0,0,1-3.74,3.23,14.76,14.76,0,0,1-4.73,1.61,37.34,37.34,0,0,1-6.34.46L419.79,446Z" transform="translate(-95.21 -94.74)"/><path class="cls-3" d="M466.34,454.06a16.09,16.09,0,0,0,6.86-6.17,53.53,53.53,0,0,0,5.36-10.54,102.13,102.13,0,0,0,3.91-12.68,120.23,120.23,0,0,0,2.42-12.79,25.09,25.09,0,0,0,.29-4.43,7.75,7.75,0,0,0-.75-3.35,3.54,3.54,0,0,0-2-1.78,6.08,6.08,0,0,0-3.63.23,15.38,15.38,0,0,0-7.15,4.95q-3.11,3.69-5.18,11.18l-6.69,27-18.43.24,12.56-54.05h18.55l-1.27,5.3a21.84,21.84,0,0,1,7.72-4.43,24.67,24.67,0,0,1,8-1.27,20.73,20.73,0,0,1,6.92,1.21,14.92,14.92,0,0,1,7.89,7.26,18.1,18.1,0,0,1,1.38,5.47,30.39,30.39,0,0,1-.05,6.17,62.7,62.7,0,0,1-1,6.45c-.54,2.69-1.21,5.45-2,8.3a57.71,57.71,0,0,1-3.11,8.41,44.32,44.32,0,0,1-4.61,7.83,28.13,28.13,0,0,1-6.45,6.34,29.18,29.18,0,0,1-8.53,4.09A31.54,31.54,0,0,1,466.34,454.06Z" transform="translate(-95.21 -94.74)"/><path class="cls-3" d="M527.76,414.65l21.55.23a11.7,11.7,0,0,1-4.09,5.78,17.75,17.75,0,0,1-6,2.74,26.18,26.18,0,0,1-6.75.75q-3.45,0-6.56,0a13.48,13.48,0,0,0-1,6.85,9.84,9.84,0,0,0,2.19,5,10.52,10.52,0,0,0,4.21,3,12.16,12.16,0,0,0,5.12.87,9.58,9.58,0,0,0,4-.46,13.41,13.41,0,0,0,4-2,8.75,8.75,0,0,0,2.71-3.23,4.81,4.81,0,0,0,.12-4h16.13a19,19,0,0,1-7,10.25,37.18,37.18,0,0,1-12.16,6.05,46.7,46.7,0,0,1-14.35,1.85,42.08,42.08,0,0,1-13.71-2.48,12.81,12.81,0,0,1-7.95-7.09q-2.54-5.35-1.27-12.61l8.19-34.23,41.71-.11q6.33.22,9.39,3a9.59,9.59,0,0,1,3.28,6.63L555.3,411.54c.23-2.85-.46-5.05-2.07-6.63a14.54,14.54,0,0,0-6.17-3.46,34.92,34.92,0,0,0-8-1.32c-2.84-.15-5.38-.23-7.6-.23Z" transform="translate(-95.21 -94.74)"/><path class="cls-3" d="M570.51,445.64,580.19,402H574l2.42-10.14h5.88l5.64-22.58,17.29.34-5.65,22.24,16.6-.11a57.11,57.11,0,0,1-3.63,5.18,13,13,0,0,1-3.75,3.23,14.7,14.7,0,0,1-4.72,1.61,37.34,37.34,0,0,1-6.34.46L587.45,446Z" transform="translate(-95.21 -94.74)"/><path class="cls-4" d="M366.49,350.86c.23-1.11.49-2.32.78-3.64s.58-2.69.9-4.13.63-2.93,1-4.46.68-3.06,1-4.61h4.32c-.39,1.67-.75,3.24-1.09,4.72s-.65,2.89-1,4.24-.59,2.68-.88,4-.58,2.6-.89,3.91Z" transform="translate(-95.21 -94.74)"/><path class="cls-4" d="M378.5,352.68a3.44,3.44,0,0,0,1.5-1.35,11.89,11.89,0,0,0,1.18-2.31,22.74,22.74,0,0,0,.86-2.79c.23-1,.41-1.91.53-2.8a5.71,5.71,0,0,0,.06-1,1.71,1.71,0,0,0-.16-.73.8.8,0,0,0-.44-.39,1.34,1.34,0,0,0-.8.05,3.36,3.36,0,0,0-1.57,1.09,6.67,6.67,0,0,0-1.14,2.45l-1.46,5.92-4.05.05L375.77,339h4.07l-.28,1.16a4.67,4.67,0,0,1,1.69-1,5.28,5.28,0,0,1,1.75-.28,4.57,4.57,0,0,1,1.52.26,2.48,2.48,0,0,1,1,.66,2.42,2.42,0,0,1,.7.94,3.92,3.92,0,0,1,.3,1.2,6.79,6.79,0,0,1,0,1.35,14,14,0,0,1-.23,1.42c-.12.59-.26,1.19-.44,1.82a12.75,12.75,0,0,1-.68,1.84,10.2,10.2,0,0,1-1,1.72,6.29,6.29,0,0,1-1.42,1.4,6.6,6.6,0,0,1-1.87.89A7,7,0,0,1,378.5,352.68Z" transform="translate(-95.21 -94.74)"/><path class="cls-4" d="M387,350.84l2.12-9.59h-1.36l.53-2.22h1.29l1.24-5,3.79.08L393.34,339l3.65,0a12.6,12.6,0,0,1-.8,1.14,3,3,0,0,1-.82.71,3.36,3.36,0,0,1-1,.35,8,8,0,0,1-1.39.1l-2.25,9.61Z" transform="translate(-95.21 -94.74)"/><path class="cls-4" d="M400.83,344l4.73.05a2.5,2.5,0,0,1-.9,1.27,3.9,3.9,0,0,1-1.31.6,5.65,5.65,0,0,1-1.48.17h-1.45a2.9,2.9,0,0,0-.22,1.5,2.05,2.05,0,0,0,.48,1.09,2.33,2.33,0,0,0,.92.66,2.89,2.89,0,0,0,1.13.19,2.13,2.13,0,0,0,.88-.1,3,3,0,0,0,.87-.45,2,2,0,0,0,.6-.7,1.08,1.08,0,0,0,0-.88h3.54a4.12,4.12,0,0,1-1.54,2.25,8,8,0,0,1-2.67,1.33,10.25,10.25,0,0,1-3.15.41,9.25,9.25,0,0,1-3-.55,2.8,2.8,0,0,1-1.75-1.55,4.59,4.59,0,0,1-.28-2.77l1.8-7.51,9.15,0a3.1,3.1,0,0,1,2.06.67,2.08,2.08,0,0,1,.72,1.46l-3.11,2.22a1.73,1.73,0,0,0-.45-1.45,3.2,3.2,0,0,0-1.35-.76,7.62,7.62,0,0,0-1.76-.29c-.63,0-1.18-.05-1.67-.05Z" transform="translate(-95.21 -94.74)"/><path class="cls-4" d="M416,339l-.33,1.06a6.52,6.52,0,0,1,.86-.51,7.58,7.58,0,0,1,1.06-.43,4.89,4.89,0,0,1,1.14-.22,2.92,2.92,0,0,1,1.11.1,1.52,1.52,0,0,1,1.12,1.84l-2.18,3.69a2.79,2.79,0,0,0-.06-.48c0-.2-.1-.44-.17-.73a2,2,0,0,0-.86-1.43,1.31,1.31,0,0,0-1.34,0,2.93,2.93,0,0,0-.91.94,5.92,5.92,0,0,0-.73,1.87l-1.62,6.2-3.94,0L411.91,339Z" transform="translate(-95.21 -94.74)"/><path class="cls-4" d="M425.59,352.68a3.39,3.39,0,0,0,1.5-1.35,11.89,11.89,0,0,0,1.18-2.31,22.74,22.74,0,0,0,.86-2.79,26.27,26.27,0,0,0,.53-2.8,5.71,5.71,0,0,0,.06-1,1.58,1.58,0,0,0-.16-.73.8.8,0,0,0-.44-.39,1.34,1.34,0,0,0-.8.05,3.36,3.36,0,0,0-1.57,1.09,6.67,6.67,0,0,0-1.14,2.45l-1.46,5.92-4,.05L422.86,339h4.07l-.28,1.16a4.63,4.63,0,0,1,1.7-1,5.18,5.18,0,0,1,1.74-.28,4.57,4.57,0,0,1,1.52.26,2.48,2.48,0,0,1,1,.66,2.42,2.42,0,0,1,.7.94,3.92,3.92,0,0,1,.3,1.2,6.11,6.11,0,0,1,0,1.35,11.66,11.66,0,0,1-.23,1.42c-.11.59-.26,1.19-.44,1.82a12.75,12.75,0,0,1-.68,1.84,10.2,10.2,0,0,1-1,1.72,6.29,6.29,0,0,1-1.42,1.4,6.6,6.6,0,0,1-1.87.89A7,7,0,0,1,425.59,352.68Z" transform="translate(-95.21 -94.74)"/><path class="cls-4" d="M439.07,344l4.73.05a2.5,2.5,0,0,1-.9,1.27,3.87,3.87,0,0,1-1.32.6,5.6,5.6,0,0,1-1.48.17h-1.44a2.9,2.9,0,0,0-.22,1.5,2.05,2.05,0,0,0,.48,1.09,2.33,2.33,0,0,0,.92.66,2.87,2.87,0,0,0,1.12.19,2.18,2.18,0,0,0,.89-.1,3,3,0,0,0,.87-.45,2,2,0,0,0,.6-.7,1.08,1.08,0,0,0,0-.88h3.54a4.12,4.12,0,0,1-1.54,2.25,8.16,8.16,0,0,1-2.67,1.33,10.25,10.25,0,0,1-3.15.41,9.31,9.31,0,0,1-3-.55,2.81,2.81,0,0,1-1.74-1.55,4.52,4.52,0,0,1-.28-2.77l1.8-7.51,9.15,0a3.1,3.1,0,0,1,2.06.67,2.08,2.08,0,0,1,.72,1.46l-3.11,2.22a1.73,1.73,0,0,0-.45-1.45,3.17,3.17,0,0,0-1.36-.76,7.44,7.44,0,0,0-1.75-.29c-.63,0-1.18-.05-1.67-.05Z" transform="translate(-95.21 -94.74)"/><path class="cls-4" d="M448.45,350.84l2.13-9.59h-1.37l.53-2.22H451l1.24-5,3.79.08L454.82,339l3.65,0a12.6,12.6,0,0,1-.8,1.14,3,3,0,0,1-.82.71,3.36,3.36,0,0,1-1,.35,8,8,0,0,1-1.39.1l-2.25,9.61Z" transform="translate(-95.21 -94.74)"/><path class="cls-4" d="M463,350.86c.24-1.11.5-2.32.79-3.64s.58-2.69.9-4.13.63-2.93,1-4.46.68-3.06,1-4.61h4.32c-.39,1.67-.75,3.24-1.09,4.72s-.65,2.89-1,4.24-.6,2.68-.88,4-.58,2.6-.89,3.91Z" transform="translate(-95.21 -94.74)"/><path class="cls-4" d="M475.06,352.68a3.5,3.5,0,0,0,1.5-1.35,11.89,11.89,0,0,0,1.18-2.31,24.62,24.62,0,0,0,.86-2.79c.23-1,.41-1.91.53-2.8a5.71,5.71,0,0,0,.06-1,1.71,1.71,0,0,0-.16-.73.79.79,0,0,0-.45-.39,1.3,1.3,0,0,0-.79.05,3.36,3.36,0,0,0-1.57,1.09,6.51,6.51,0,0,0-1.14,2.45l-1.47,5.92-4,.05L472.32,339h4.08l-.28,1.16a4.67,4.67,0,0,1,1.69-1,5.28,5.28,0,0,1,1.75-.28,4.61,4.61,0,0,1,1.52.26,2.48,2.48,0,0,1,1,.66,2.42,2.42,0,0,1,.7.94,3.92,3.92,0,0,1,.3,1.2,6.79,6.79,0,0,1,0,1.35,14,14,0,0,1-.23,1.42c-.12.59-.26,1.19-.44,1.82a14.06,14.06,0,0,1-.68,1.84,9.62,9.62,0,0,1-1,1.72,6,6,0,0,1-1.41,1.4,6.6,6.6,0,0,1-1.87.89A7,7,0,0,1,475.06,352.68Z" transform="translate(-95.21 -94.74)"/><path class="cls-4" d="M495.59,350.91h-1.88l-1.94,0c.27-1.38.6-2.81,1-4.3s.73-2.89,1-4.22a2.07,2.07,0,0,0-1.6-.66,3.22,3.22,0,0,0-1.68.63,5.13,5.13,0,0,0-1.38,1.61,5.3,5.3,0,0,0-.65,2.29,1.8,1.8,0,0,0,0,.52,4.6,4.6,0,0,0,.06.52,1.79,1.79,0,0,0,.58,1.15,1.29,1.29,0,0,0,.94.26,2.25,2.25,0,0,0,1-.38,2.61,2.61,0,0,0,.81-.81A3.77,3.77,0,0,1,490,350.6a3.6,3.6,0,0,1-1.79.48,3.86,3.86,0,0,1-2-.6,3.62,3.62,0,0,1-1.29-1.35,5.43,5.43,0,0,1-.6-1.78,6.93,6.93,0,0,1,0-2,7.49,7.49,0,0,1,.55-1.93,7.67,7.67,0,0,1,1-1.7,5,5,0,0,1,1.36-1.22,5.21,5.21,0,0,1,1.53-.76,8.84,8.84,0,0,1,1.92-.39,6.66,6.66,0,0,1,1.95.1,3.59,3.59,0,0,1,1.63.74l.31-1.13,3.76,0Z" transform="translate(-95.21 -94.74)"/><path class="cls-4" d="M505.88,333.11l-4.12,17.75h-4.07L501.41,334Z" transform="translate(-95.21 -94.74)"/><path class="cls-4" d="M515.7,350.91h-1.89l-1.93,0c.27-1.38.6-2.81,1-4.3s.74-2.89,1-4.22a2,2,0,0,0-1.59-.66,3.22,3.22,0,0,0-1.68.63,5.3,5.3,0,0,0-2,3.9,2.24,2.24,0,0,0,0,.52,3.09,3.09,0,0,0,.07.52,1.75,1.75,0,0,0,.58,1.15,1.27,1.27,0,0,0,.93.26,2.17,2.17,0,0,0,1-.38,2.61,2.61,0,0,0,.81-.81,3.73,3.73,0,0,1-1.8,3.13,3.64,3.64,0,0,1-1.8.48,3.88,3.88,0,0,1-2-.6,3.79,3.79,0,0,1-1.29-1.35,5.19,5.19,0,0,1-.59-1.78,6.92,6.92,0,0,1,0-2,7.51,7.51,0,0,1,.56-1.93,8,8,0,0,1,1-1.7,5.06,5.06,0,0,1,1.37-1.22,5,5,0,0,1,1.53-.76,8.61,8.61,0,0,1,1.92-.39,6.7,6.7,0,0,1,1.95.1,3.64,3.64,0,0,1,1.63.74l.3-1.13,3.77,0Z" transform="translate(-95.21 -94.74)"/><path class="cls-4" d="M529.43,340.62a5.25,5.25,0,0,1,2-1.35A5.14,5.14,0,0,1,534,339a2.93,2.93,0,0,1,2.56,1.84,7.7,7.7,0,0,1,.22,4.12,20.26,20.26,0,0,1-.57,2.31,13.26,13.26,0,0,1-1,2.5,6.56,6.56,0,0,1-2.39,2.53,5.59,5.59,0,0,1-3.7.58,3.29,3.29,0,0,0,1.41-1.15,9.46,9.46,0,0,0,1.16-2,16.42,16.42,0,0,0,.85-2.48,22.1,22.1,0,0,0,.5-2.44,8.78,8.78,0,0,0,.08-1.93q-.06-.81-.39-1a1.09,1.09,0,0,0-.85-.14,1.93,1.93,0,0,0-.75.42,2.71,2.71,0,0,0-.59.74,3.55,3.55,0,0,0-.34.8l-1.64,7.21-3.82,0,1.59-7.21a2.24,2.24,0,0,0,0-1.72.85.85,0,0,0-.88-.43,2.09,2.09,0,0,0-1.15.66,3.14,3.14,0,0,0-.83,1.51l-1.82,7.21-4,0,2.63-11.74,4,0-.25,1.11a2.84,2.84,0,0,1,1.29-.91,4.2,4.2,0,0,1,1.63-.27,3.51,3.51,0,0,1,1.53.43A2.36,2.36,0,0,1,529.43,340.62Z" transform="translate(-95.21 -94.74)"/><path class="cls-4" d="M540.89,334h3.89l-3.26,13.76a2.82,2.82,0,0,0,1.83.4,3.31,3.31,0,0,0,1.6-.67,4.28,4.28,0,0,0,1.15-1.44,5.09,5.09,0,0,0,.53-1.94,3.14,3.14,0,0,0-.19-1.59,1.68,1.68,0,0,0-.79-.86,1.56,1.56,0,0,0-1.11,0,2.43,2.43,0,0,0-1.15.85,4.45,4.45,0,0,1,1.24-2.35,3.26,3.26,0,0,1,1.87-.91,4.14,4.14,0,0,1,1.92.29,3.49,3.49,0,0,1,1.41,1.06,4,4,0,0,1,.74,1.71,5.89,5.89,0,0,1,0,2.25,9.46,9.46,0,0,1-1.19,3.16,6.89,6.89,0,0,1-2.11,2.24,5.76,5.76,0,0,1-2.84.92,6.79,6.79,0,0,1-3.4-.78l-.2.76-3.87,0Z" transform="translate(-95.21 -94.74)"/><path class="cls-4" d="M557.35,339l-.33,1.06a6.52,6.52,0,0,1,.86-.51,7.58,7.58,0,0,1,1.06-.43,4.89,4.89,0,0,1,1.14-.22,2.92,2.92,0,0,1,1.11.1,1.52,1.52,0,0,1,1.12,1.84l-2.18,3.69a2.79,2.79,0,0,0-.06-.48c0-.2-.1-.44-.17-.73a2,2,0,0,0-.86-1.43,1.31,1.31,0,0,0-1.34,0,2.93,2.93,0,0,0-.91.94,5.92,5.92,0,0,0-.73,1.87l-1.62,6.2-3.94,0L553.23,339Z" transform="translate(-95.21 -94.74)"/><path class="cls-4" d="M564.05,339.08h4l-2.73,11.78h-4Zm4.68-3.59a1.74,1.74,0,0,1,0,.79,2.23,2.23,0,0,1-.29.77,2,2,0,0,1-.59.62,1.82,1.82,0,0,1-.82.34,2.78,2.78,0,0,1-1.78-.16,1.57,1.57,0,0,1-.9-1.28A2,2,0,0,1,565,335a2.48,2.48,0,0,1,1.43-.74,2.21,2.21,0,0,1,.81,0,2.55,2.55,0,0,1,.72.25,2.32,2.32,0,0,1,.54.43A1.09,1.09,0,0,1,568.73,335.49Z" transform="translate(-95.21 -94.74)"/><path class="cls-4" d="M580.47,347.68a5.26,5.26,0,0,1-1.23,1.85,6.86,6.86,0,0,1-1.78,1.26,8,8,0,0,1-2.09.67,8.74,8.74,0,0,1-2.16.09,6.69,6.69,0,0,1-2.05-.47,4.59,4.59,0,0,1-1.59-1.07,4.68,4.68,0,0,1-1-1.63,6.13,6.13,0,0,1-.37-2.17,9.12,9.12,0,0,1,.46-3.2,7.66,7.66,0,0,1,1.49-2.63,7.16,7.16,0,0,1,2.39-1.78,7.26,7.26,0,0,1,3.18-.64,7,7,0,0,1,2.27.32,4.92,4.92,0,0,1,1.8,1,3.43,3.43,0,0,1,1,1.61,3.35,3.35,0,0,1-.09,2.11c-.25.08-.56.17-.93.26l-1.13.28-1.11.28-.92.24a4.18,4.18,0,0,0,1.29-2,1.57,1.57,0,0,0-.23-1.36,1.38,1.38,0,0,0-1.24-.39,3.13,3.13,0,0,0-1.75.91,6.07,6.07,0,0,0-1.11,1.41,8.65,8.65,0,0,0-.71,1.45c-.1.4-.2.85-.29,1.34a6.48,6.48,0,0,0-.1,1.45,3.87,3.87,0,0,0,.32,1.36,2.24,2.24,0,0,0,.93,1,2.74,2.74,0,0,0,1.23.27,3.06,3.06,0,0,0,1.14-.24,2.82,2.82,0,0,0,.92-.67,3.05,3.05,0,0,0,.61-1Z" transform="translate(-95.21 -94.74)"/><path class="cls-4" d="M589.87,338.6a6.83,6.83,0,0,1,2,.38,5.76,5.76,0,0,1,1.65.87,4.51,4.51,0,0,1,1.15,1.31,4.32,4.32,0,0,1,.52,1.71,8.58,8.58,0,0,1-.11,2.12,6.39,6.39,0,0,1-.68,1.95,8,8,0,0,1-1.31,2,9,9,0,0,1-1.71,1.46,7.63,7.63,0,0,1-2,.9,7.79,7.79,0,0,1-2.14.3,6.42,6.42,0,0,1-3.1-.61,4.78,4.78,0,0,1-2-1.79,5.5,5.5,0,0,1-.77-2.61,6.72,6.72,0,0,1,.58-3,8.2,8.2,0,0,1,1.09-1.91,7.87,7.87,0,0,1,1.72-1.63,8,8,0,0,1,5.08-1.41Zm-.93,2.12a4.15,4.15,0,0,0-2,1.4,7,7,0,0,0-1.25,2.77,6.12,6.12,0,0,0-.23,1.26,5.11,5.11,0,0,0,.07,1.3,3.69,3.69,0,0,0,.39,1.16,1.87,1.87,0,0,0,.76.81,1.52,1.52,0,0,0,.86.2,2,2,0,0,0,.88-.24,3.56,3.56,0,0,0,.8-.55,5.33,5.33,0,0,0,.64-.72,8.81,8.81,0,0,0,.86-1.8,7.67,7.67,0,0,0,.43-2.15,8.49,8.49,0,0,0-.11-1.48,3.47,3.47,0,0,0-.38-1.14,1.67,1.67,0,0,0-.69-.68A1.84,1.84,0,0,0,588.94,340.72Z" transform="translate(-95.21 -94.74)"/><path class="cls-3" d="M404.28,243h16.61q-1.9,9-3.65,16t-2.91,12.28c-.78,3.49-1.37,6.44-1.8,8.83a17.85,17.85,0,0,0-.31,5.61,6.78,6.78,0,0,0,1.21,3.34,3,3,0,0,0,2,1.22,3.81,3.81,0,0,0,2.38-.69,9.72,9.72,0,0,0,2.44-2.28A25.7,25.7,0,0,0,425,280a104.44,104.44,0,0,0,4.71-12A145.11,145.11,0,0,0,433.54,254a102.17,102.17,0,0,0,2.17-13.76,39.87,39.87,0,0,0-.42-11.06q-1-4.65-3.81-6a30.78,30.78,0,0,1,9.73,2.86,15.75,15.75,0,0,1,6.72,6.4,25.47,25.47,0,0,1,2.92,11.22,66.17,66.17,0,0,1-1.8,17.3q-1.28,5.82-2.49,9.9a57,57,0,0,1-3.12,8.09,48.17,48.17,0,0,1-9.26,13.6,28.87,28.87,0,0,1-11,7.25,20.79,20.79,0,0,1-7.09,1.59,16.08,16.08,0,0,1-6.19-.95,14.57,14.57,0,0,1-5-3.12,12.83,12.83,0,0,1-3.23-4.92,17,17,0,0,1-4.39,5,17.54,17.54,0,0,1-5.61,2.86,19.55,19.55,0,0,1-6.25.79,20.39,20.39,0,0,1-6.19-1.16,15.31,15.31,0,0,1-6.93-4.87,23.6,23.6,0,0,1-4-7.62,38.61,38.61,0,0,1-1.69-9.31,78.65,78.65,0,0,1,0-10,64.39,64.39,0,0,1,1.79-10.8,98.09,98.09,0,0,1,3.29-10.42q1.9-5,4.12-9.53a89.1,89.1,0,0,1,4.45-8l20.21.11a32.47,32.47,0,0,0-5.45,6.88,69.33,69.33,0,0,0-4.76,9.36,96.66,96.66,0,0,0-3.81,10.8,104.19,104.19,0,0,0-2.59,11,65.13,65.13,0,0,0-1.06,10.05,29.5,29.5,0,0,0,.74,8,8.7,8.7,0,0,0,1.75,3.6,2.38,2.38,0,0,0,2.22.85,4.75,4.75,0,0,0,2.43-1.38,14.87,14.87,0,0,0,2.38-3.07,32.43,32.43,0,0,0,2.28-5.08c.81-2.18,1.67-5,2.59-8.46s1.94-7.57,3.07-12.33S402.79,249.36,404.28,243Z" transform="translate(-95.21 -94.74)"/><path class="cls-3" d="M458.36,250.73h16.72l-11.43,49.32H446.93Zm19.58-15A7.49,7.49,0,0,1,478,239a9.41,9.41,0,0,1-1.21,3.23,8.92,8.92,0,0,1-2.44,2.59,8,8,0,0,1-3.43,1.43,11.74,11.74,0,0,1-7.47-.69,6.5,6.5,0,0,1-3.75-5.35,8.6,8.6,0,0,1,2.38-6.56,10.36,10.36,0,0,1,6-3.07,9.15,9.15,0,0,1,3.38,0,10.17,10.17,0,0,1,3,1.06,9.26,9.26,0,0,1,2.28,1.8A4.6,4.6,0,0,1,477.94,235.7Z" transform="translate(-95.21 -94.74)"/><path class="cls-3" d="M513.71,267.24a8.57,8.57,0,0,0,.95-3,6.65,6.65,0,0,0-.26-3,5.85,5.85,0,0,0-1.54-2.43,5.26,5.26,0,0,0-2.75-1.32,12.64,12.64,0,0,0-7.09.31,8.63,8.63,0,0,0-4.55,3.13,3.52,3.52,0,0,0,.32,4.23c1.06,1.52,3.56,2.73,7.51,3.65,1.62.42,3.28.85,5,1.27s3.38.92,5.08,1.48a10.6,10.6,0,0,1,4.92,3.18,9.91,9.91,0,0,1,2.17,4.76,11.65,11.65,0,0,1-.58,5.61,19.13,19.13,0,0,1-3.34,5.82,31.72,31.72,0,0,1-10.16,7.94,47.47,47.47,0,0,1-11.75,3.7,34.09,34.09,0,0,1-10,.43,23.75,23.75,0,0,1-8.68-2.54,13.79,13.79,0,0,1-5.71-5.56,13,13,0,0,1-1.11-8.63l17.35-2.43a6,6,0,0,0-2,3,5.55,5.55,0,0,0,.05,3.33,6.07,6.07,0,0,0,2,2.8,7.49,7.49,0,0,0,3.92,1.54,13,13,0,0,0,3.91.05,12.4,12.4,0,0,0,4-1.16,10.41,10.41,0,0,0,3.23-2.44,6.45,6.45,0,0,0,1.59-3.75,3,3,0,0,0-.27-2,4.89,4.89,0,0,0-1.22-1.59,6.88,6.88,0,0,0-1.64-1.06c-.6-.28-1.07-.49-1.43-.64-2.89-.91-5.41-1.62-7.56-2.11a27.37,27.37,0,0,1-6.62-2.54c-3.17-1.77-5.33-3.81-6.45-6.14a10.05,10.05,0,0,1-.74-7.15,14.87,14.87,0,0,1,4.49-7,28.05,28.05,0,0,1,9.48-5.56c1.2-.49,2.38-.95,3.54-1.37a23.45,23.45,0,0,1,3.71-1,31.47,31.47,0,0,1,4.28-.47q2.33-.1,5.19,0a24.41,24.41,0,0,1,11,2.85,13.89,13.89,0,0,1,6.24,7.2Z" transform="translate(-95.21 -94.74)"/><path class="cls-3" d="M547.9,288.09c1.55,2.54,3.36,3.78,5.45,3.71a9.52,9.52,0,0,0,6-2.7,23.28,23.28,0,0,0,5.08-6.83,27.45,27.45,0,0,0,2.8-8.68,22.23,22.23,0,0,0,.37-4.55,13.37,13.37,0,0,0-.63-4,6.42,6.42,0,0,0-1.75-2.8,4.56,4.56,0,0,0-2.86-1.17q-6.14.22-9.41,4.29T547.68,278l-10.26,42-16,.21,15.87-69.75h16l-1.37,5.93a13.24,13.24,0,0,1,3.17-2.81,19.44,19.44,0,0,1,4.61-2.17,23.74,23.74,0,0,1,5.55-1.06,19.83,19.83,0,0,1,6,.53,17.51,17.51,0,0,1,10.68,6.3q3.71,4.81,3.18,12.65a41.86,41.86,0,0,1-1.85,10.32,31.35,31.35,0,0,1-4.24,8.62,29.14,29.14,0,0,1-6.4,6.57,25.14,25.14,0,0,1-8.25,4,14.82,14.82,0,0,1-5.77.37A15.12,15.12,0,0,1,553,298a11,11,0,0,1-4.08-3.92A8.58,8.58,0,0,1,547.9,288.09Z" transform="translate(-95.21 -94.74)"/><path class="cls-5" d="M252.75,389.31l.18-.54A3.42,3.42,0,0,0,252.75,389.31Z" transform="translate(-95.21 -94.74)"/><path class="cls-6" d="M254.41,392.39l2.76,1.11,3-9.26-6,3.16a2.78,2.78,0,0,0-1.23,1.37l-.18.54a3,3,0,0,0-.06.66A2.75,2.75,0,0,0,254.41,392.39Z" transform="translate(-95.21 -94.74)"/><path class="cls-7" d="M244.49,430.59a2.69,2.69,0,0,1-1,.2,2.75,2.75,0,0,1-1-5.3l4.86-2,9.88-30-2.76-1.11a2.75,2.75,0,0,1-1.72-2.42,3,3,0,0,1,.06-.66l-17,51.69a2.75,2.75,0,0,0,1.75,3.47,2.92,2.92,0,0,0,.88.12c1.71-4.42,3.77-9.09,6.14-14Z" transform="translate(-95.21 -94.74)"/><path class="cls-8" d="M245.86,427.9c.5-1,1-2,1.5-3,.3-.58.62-1.16.92-1.75l-1,.4Z" transform="translate(-95.21 -94.74)"/><path class="cls-9" d="M247.29,423.53l-4.86,2a2.75,2.75,0,0,0,1,5.3,2.69,2.69,0,0,0,1-.2l0,0c.42-.88.87-1.77,1.32-2.67Z" transform="translate(-95.21 -94.74)"/><path class="cls-10" d="M288.94,290.18l1.8,1.17,6.09-18.51,6.08,18.49,1.77-1.15a2.75,2.75,0,0,1,3,4.6l-3,2,1.56,4.72,6.51,4.24a2.76,2.76,0,0,1-.11,4.68l-2.91,1.71L313.32,323l6.28,3.69a2.75,2.75,0,0,1-.22,4.86l-.91.43h3.59l-20.44-62.2a7.37,7.37,0,0,1-9.58,0L285,291.29a2.38,2.38,0,0,1,.17-.31A2.75,2.75,0,0,1,288.94,290.18Z" transform="translate(-95.21 -94.74)"/><path class="cls-11" d="M274,326.71l6.33-3.72,3.58-10.88L281,310.38a2.76,2.76,0,0,1-.11-4.68l6.56-4.27,1.54-4.67-3-2a2.74,2.74,0,0,1-1.21-2.74L272.93,328A2.71,2.71,0,0,1,274,326.71Z" transform="translate(-95.21 -94.74)"/><path class="cls-12" d="M254.16,387.4l6-3.16,9-27.36-2.87-1.5a2.74,2.74,0,0,1,.1-4.92l5.78-2.73,4.87-14.82-2.84-1.34a2.66,2.66,0,0,1-1.52-3l-19.79,60.2A2.78,2.78,0,0,1,254.16,387.4Z" transform="translate(-95.21 -94.74)"/><path class="cls-13" d="M296.83,261.29a2.74,2.74,0,0,1,2.61,1.89l2.18,6.62a7.53,7.53,0,1,0-9.58,0l2.18-6.62A2.74,2.74,0,0,1,296.83,261.29Z" transform="translate(-95.21 -94.74)"/><path class="cls-14" d="M301.62,269.8l-2.18-6.62a2.75,2.75,0,0,0-5.22,0L292,269.8a7.37,7.37,0,0,0,9.58,0Z" transform="translate(-95.21 -94.74)"/><path class="cls-15" d="M296.81,319.69l15.52,9.13-15.52,7.31,6.45,3,11.25-5.3c.63-.53,1.26-1.05,1.87-1.54L313.32,323l-11.09-6.52Z" transform="translate(-95.21 -94.74)"/><polygon class="cls-16" points="201.6 218.57 192.38 213.15 201.6 207.14 196.57 203.86 192.22 206.69 188.71 217.37 196.18 221.76 201.6 218.57"/><polygon class="cls-17" points="206.63 203.86 209.48 202 207.7 196.6 201.6 200.57 206.63 203.86"/><path class="cls-18" d="M288.09,362.06,289,361l-15.17-7.93,23-10.86-6.45-3-18.15,8.56-3,9.15,16.27,8.51C286.34,364.27,287.21,363.15,288.09,362.06Z" transform="translate(-95.21 -94.74)"/><path class="cls-19" d="M321,329.21a2.77,2.77,0,0,0-1.36-2.5L313.32,323l3.06,9.31.41-.33h1.68l.91-.43A2.75,2.75,0,0,0,321,329.21Z" transform="translate(-95.21 -94.74)"/><path class="cls-20" d="M280.87,305.7a2.76,2.76,0,0,0,.11,4.68l2.94,1.73,3.51-10.68Z" transform="translate(-95.21 -94.74)"/><path class="cls-21" d="M307.68,294.78a2.75,2.75,0,0,0-3-4.6l-1.77,1.15,1.77,5.41Z" transform="translate(-95.21 -94.74)"/><path class="cls-22" d="M266.43,350.46a2.74,2.74,0,0,0-.1,4.92l2.87,1.5,3-9.15Z" transform="translate(-95.21 -94.74)"/><path class="cls-23" d="M296.81,342.21l6,2.84.17-.18q2-2.08,3.89-4l-3.62-1.71Z" transform="translate(-95.21 -94.74)"/><polygon class="cls-24" points="201.6 241.4 186.08 234.08 201.6 224.95 196.18 221.76 185.13 228.26 181.87 238.18 195.16 244.44 201.6 241.4"/><path class="cls-25" d="M278.46,374.7l-18.25,9.54-3,9.26,6.7,2.7q1.5-2.35,3-4.7l-4.91-2,9.58-5c.54-.8,1.07-1.59,1.62-2.39C274.94,379.59,276.7,377.13,278.46,374.7Z" transform="translate(-95.21 -94.74)"/><polygon class="cls-26" points="201.6 207.14 210.82 213.15 201.6 218.57 207.03 221.76 214.52 217.35 211.03 206.72 206.63 203.86 201.6 207.14"/><polygon class="cls-27" points="201.6 200.57 195.53 196.62 193.76 202.02 196.57 203.86 201.6 200.57"/><path class="cls-28" d="M272.72,328.57l.21-.62A2.27,2.27,0,0,0,272.72,328.57Z" transform="translate(-95.21 -94.74)"/><path class="cls-29" d="M284.73,292l.24-.75A3,3,0,0,0,284.73,292Z" transform="translate(-95.21 -94.74)"/><path class="cls-30" d="M274.24,331.57l2.84,1.34,3.26-9.92L274,326.71a2.71,2.71,0,0,0-1.08,1.24l-.21.62a2.66,2.66,0,0,0,1.52,3Z" transform="translate(-95.21 -94.74)"/><path class="cls-31" d="M312.64,310.38a2.76,2.76,0,0,0,.11-4.68l-6.51-4.24,3.49,10.63Z" transform="translate(-95.21 -94.74)"/><path class="cls-32" d="M285.94,294.78l3,2,1.77-5.41-1.8-1.17a2.75,2.75,0,0,0-3.8.8,2.38,2.38,0,0,0-.17.31l-.24.75A2.74,2.74,0,0,0,285.94,294.78Z" transform="translate(-95.21 -94.74)"/><polygon class="cls-33" points="195.16 244.44 201.6 247.48 208.05 244.44 201.6 241.4 195.16 244.44"/><polygon class="cls-34" points="201.6 200.57 196.57 203.86 201.6 207.14 206.63 203.86 201.6 200.57"/><polygon class="cls-35" points="201.6 218.57 196.18 221.76 201.6 224.95 207.03 221.76 201.6 218.57"/><path class="cls-36" d="M345.75,391a256.8,256.8,0,0,0-2.8-29.72,175.59,175.59,0,0,0-7-29.29H316.79l-.4.33c-.62.49-1.24,1-1.87,1.53-2.45,2.07-5,4.4-7.63,7-1.28,1.27-2.58,2.59-3.9,4l-.16.18Q296,352.31,289,361l-.87,1.06c-.87,1.09-1.74,2.21-2.62,3.32q-3.51,4.51-7,9.32-2.66,3.63-5.28,7.42c-.55.8-1.08,1.59-1.62,2.39-1.59,2.32-3.14,4.65-4.67,7q-1.53,2.36-3,4.71c-1.55,2.44-3.08,4.89-4.56,7.34q-6,9.87-11,19.59l-.91,1.75c-.53,1-1,2-1.51,3s-.89,1.79-1.32,2.67q-3.56,7.38-6.14,14h0l20.66.17q2.88-6.6,5.84-12.1t7.2-12.45l15.92.17a25.45,25.45,0,0,0,7-.85,18.19,18.19,0,0,0,5.68-2.79,33,33,0,0,0,4.41-3.91c.39-.41.78-.82,1.17-1.26.82-.91,1.73-2,2.7-3.11,1.29-1.53,2.7-3.24,4.25-5.18h-1.07l-14.89.08h-.92l-14.51.08h-1.29c.08-.14.18-.29.27-.42q1.38-2.14,3-4.73c.8-1.31,1.63-2.69,2.51-4.17q3.22-5.42,7.12-11.51,3.06-4.8,6.56-9.66c.62-.87,1.26-1.74,1.9-2.62.47-.63.94-1.23,1.42-1.85l.74-1q3.6-4.57,7.49-8.61c.32,1.39.61,2.8.89,4.23q1,5.3,1.74,11,.4,3.22.72,6.58.67,7.25.9,15.14c0,.86,0,1.7.07,2.56,0,1.11,0,2.22,0,3.33q0,4.7-.07,9.43-.06,2.93-.18,5.86-.56,13.38-2.23,27.18l30,.34c.5-4.94,1-10.22,1.38-15.78q.21-2.82.4-5.76l.18-2.65c0-.35.05-.68.07-1,.3-4.85.46-9.79.51-14.82Q346,397.88,345.75,391Z" transform="translate(-95.21 -94.74)"/><path class="cls-37" d="M312.33,265.92a19.59,19.59,0,1,0-31,0l2.31-7a14.09,14.09,0,1,1,26.38,0Z" transform="translate(-95.21 -94.74)"/><path class="cls-37" d="M328,254a31.2,31.2,0,1,0-50.75,24.28l1.87-5.68a25.7,25.7,0,1,1,35.38,0l1.87,5.68A31.12,31.12,0,0,0,328,254Z" transform="translate(-95.21 -94.74)"/><path class="cls-37" d="M269.9,300.68l1.76-5.34a48.43,48.43,0,1,1,50.34,0l1.75,5.34a53.93,53.93,0,1,0-53.85,0Z" transform="translate(-95.21 -94.74)"/><path class="cls-37" d="M339.71,254a42.89,42.89,0,1,0-66.27,35.93l1.79-5.44a37.39,37.39,0,1,1,43.2,0l1.78,5.44A42.89,42.89,0,0,0,339.71,254Z" transform="translate(-95.21 -94.74)"/></svg>